<?xml version="1.0" encoding="UTF-8"?>
<svg width="89px" height="50px" viewBox="0 0 89 50" version="1.1" xmlns="http://www.w3.org/2000/svg" xmlns:xlink="http://www.w3.org/1999/xlink">
    <!-- Generator: Sketch 45.2 (43514) - http://www.bohemiancoding.com/sketch -->
    <title>noun_950894_cc copy</title>
    <desc>Created with Sketch.</desc>
    <defs>
        <linearGradient x1="50%" y1="0%" x2="50%" y2="100%" id="linearGradient-1">
            <stop stop-color="#00DEB3" offset="0%"></stop>
            <stop stop-color="#00B4F6" offset="100%"></stop>
        </linearGradient>
    </defs>
    <g id="Page-1" stroke="none" stroke-width="1" fill="none" fill-rule="evenodd">
        <g id="LANDING" transform="translate(-760.000000, -7948.000000)" fill-rule="nonzero" fill="url(#linearGradient-1)">
            <g id="features" transform="translate(128.000000, 7155.000000)">
                <g id="Group-23" transform="translate(616.000000, 781.000000)">
                    <g id="noun_950894_cc-copy" transform="translate(0.750908, 0.586713)">
                        <path d="M30.0537452,42.2338165 L31.8418771,43.4249702 L41.1842591,29.4113973 L39.3961272,28.2202436 L30.0537452,42.2338165 Z M35.6190021,48.4352897 C34.5876032,48.4352897 33.7505257,49.2723671 33.7505257,50.3037661 C33.7505257,51.3351651 34.5876032,52.1722425 35.6190021,52.1722425 C36.6504011,52.1722425 37.4874785,51.3351651 37.4874785,50.3037661 C37.4874785,49.2723671 36.6504011,48.4352897 35.6190021,48.4352897 Z M35.6190021,24.1450966 C36.6504011,24.1450966 37.4874785,23.3080191 37.4874785,22.2766202 C37.4874785,21.2452212 36.6504011,20.4081438 35.6190021,20.4081438 C34.5876032,20.4081438 33.7505257,21.2452212 33.7505257,22.2766202 C33.7505257,23.3080191 34.5876032,24.1450966 35.6190021,24.1450966 Z M32.8564598,28.2202436 L23.5140778,42.2338165 L25.3022097,43.4249702 L34.6445917,29.4113973 L32.8564598,28.2202436 Z M84.1993884,24.1450966 C85.2307874,24.1450966 86.0678648,23.3080191 86.0678648,22.2766202 C86.0678648,21.2452212 85.2307874,20.4081438 84.1993884,20.4081438 C83.1679894,20.4081438 82.330912,21.2452212 82.330912,22.2766202 C82.330912,23.3080191 83.1679894,24.1450966 84.1993884,24.1450966 Z M62.5932616,37.1001776 L56.1292675,37.1001776 L56.1292675,41.3500272 L62.5932616,41.3500272 C63.7647963,41.3500272 64.7177193,40.39617 64.7177193,39.2246353 C64.7177193,38.0531006 63.7647963,37.1001776 62.5932616,37.1001776 Z M90.7390558,16.671191 L90.7390558,15.7369528 L29.0793348,15.7369528 L29.0793348,16.671191 C29.0793348,20.1596364 27.9872103,26.013573 20.671191,26.013573 L19.7369528,26.013573 L19.7369528,46.5668133 L20.671191,46.5668133 C27.9872103,46.5668133 29.0793348,52.4207498 29.0793348,55.9091953 L29.0793348,56.8434335 L90.7390558,56.8434335 L90.7390558,55.9091953 C90.7390558,52.4207498 91.8311802,46.5668133 99.1471995,46.5668133 L100.081438,46.5668133 L100.081438,27.8820494 L99.1471995,27.8820494 C93.3698705,27.8820494 90.7390558,22.0701535 90.7390558,16.671191 Z M98.2129614,44.7282325 C92.6215457,45.1000593 89.2059709,48.8519599 88.8939353,54.9749571 L30.9244552,54.9749571 C30.6124196,48.8519599 27.1968448,45.1009936 21.6054292,44.7282325 L21.6054292,27.8521537 C27.1968448,27.4803269 30.6124196,23.7284263 30.9244552,17.6054292 L88.8948696,17.6054292 C89.1835492,23.3360463 92.1338734,29.1675611 98.2138956,29.7094193 L98.2138956,44.7282325 L98.2129614,44.7282325 Z M87.002103,28.6761518 C82.8036365,28.6761518 79.3880617,32.0917267 79.3880617,36.2901931 C79.3880617,40.4886596 82.8036365,43.9042344 87.002103,43.9042344 C91.2005694,43.9042344 94.6161443,40.4886596 94.6161443,36.2901931 C94.6161443,32.0917267 91.2005694,28.6761518 87.002103,28.6761518 Z M87.002103,41.7554866 C83.9882506,41.7554866 81.5368095,39.3040456 81.5368095,36.2901931 C81.5368095,33.2763407 83.9882506,30.8248997 87.002103,30.8248997 C90.0159554,30.8248997 92.4673964,33.2763407 92.4673964,36.2901931 C92.4673964,39.3040456 90.0159554,41.7554866 87.002103,41.7554866 Z M100.081438,12 L19.7369528,12 C17.6760233,12 16,13.6760233 16,15.7369528 L16,56.8434335 C16,58.9043629 17.6760233,60.5803863 19.7369528,60.5803863 L100.081438,60.5803863 C102.142367,60.5803863 103.818391,58.9043629 103.818391,56.8434335 L103.818391,15.7369528 C103.818391,13.6760233 102.142367,12 100.081438,12 Z M101.949914,56.8434335 C101.949914,57.8738982 101.111902,58.7119099 100.081438,58.7119099 L19.7369528,58.7119099 C18.7064881,58.7119099 17.8684764,57.8738982 17.8684764,56.8434335 L17.8684764,15.7369528 C17.8684764,14.7064881 18.7064881,13.8684764 19.7369528,13.8684764 L100.081438,13.8684764 C101.111902,13.8684764 101.949914,14.7064881 101.949914,15.7369528 L101.949914,56.8434335 Z M62.5932616,31.3583497 L56.1292675,31.3583497 L56.1292675,35.6063308 L62.5932616,35.6063308 C63.7647963,35.6063308 64.7177193,34.6534078 64.7177193,33.4828073 C64.7177193,32.3122069 63.7647963,31.3583497 62.5932616,31.3583497 Z M84.1993884,48.4352897 C83.1679894,48.4352897 82.330912,49.2723671 82.330912,50.3037661 C82.330912,51.3351651 83.1679894,52.1722425 84.1993884,52.1722425 C85.2307874,52.1722425 86.0678648,51.3351651 86.0678648,50.3037661 C86.0678648,49.2723671 85.2307874,48.4352897 84.1993884,48.4352897 Z M64.9111066,23.8498773 C63.3658766,23.2295431 61.6777082,22.8866777 59.9091953,22.8866777 C53.0705717,22.8866777 47.427773,28.0081715 46.6075118,34.6244464 C46.5402467,35.17191 46.5047456,35.7268475 46.5047456,36.2901931 C46.5047456,43.6949651 52.507226,49.6946428 59.9101295,49.6946428 C67.3149015,49.6946428 73.3155134,43.6949651 73.3155134,36.2901931 C73.3145792,30.6558026 69.8382788,25.8313965 64.9111066,23.8498773 Z M66.2134346,39.2246353 C66.2134346,41.2211023 64.5897286,42.8448083 62.5932616,42.8448083 L61.8561477,42.8448083 L61.8561477,44.5180289 C61.8561477,44.930028 61.5216904,45.2644852 61.1087571,45.2644852 C60.6958238,45.2644852 60.3613666,44.9309622 60.3613666,44.5180289 L60.3613666,42.8448083 L58.8198735,42.8448083 L58.8198735,44.5180289 C58.8198735,44.930028 58.4854163,45.2644852 58.072483,45.2644852 C57.6595497,45.2644852 57.3250924,44.9309622 57.3250924,44.5180289 L57.3250924,42.8448083 L55.381877,42.8448083 C54.9698779,42.8448083 54.6344864,42.5094168 54.6344864,42.0964835 L54.6344864,30.6100249 C54.6344864,30.1980258 54.9689437,29.8635686 55.381877,29.8635686 L57.3250924,29.8635686 L57.3250924,28.1996903 C57.3250924,27.7876913 57.6586155,27.4513655 58.072483,27.4513655 C58.484482,27.4513655 58.8198735,27.7867571 58.8198735,28.1996903 L58.8198735,29.8635686 L60.3613666,29.8635686 L60.3613666,28.1996903 C60.3613666,27.7876913 60.6948896,27.4513655 61.1087571,27.4513655 C61.5207562,27.4513655 61.8561477,27.7867571 61.8561477,28.1996903 L61.8561477,29.8635686 L62.5932616,29.8635686 C64.5897286,29.8635686 66.2134346,31.4854061 66.2134346,33.4818731 C66.2134346,34.6515393 65.6519575,35.6913464 64.7877871,36.3537213 C65.6519575,37.0142277 66.2134346,38.0549691 66.2134346,39.2246353 Z" id="Shape"></path>
                    </g>
                </g>
            </g>
        </g>
    </g>
</svg>