<?xml version="1.0" encoding="UTF-8"?>
<svg width="83px" height="83px" viewBox="0 0 83 83" version="1.1" xmlns="http://www.w3.org/2000/svg" xmlns:xlink="http://www.w3.org/1999/xlink">
    <!-- Generator: Sketch 45.2 (43514) - http://www.bohemiancoding.com/sketch -->
    <title>Group 4 Copy</title>
    <desc>Created with Sketch.</desc>
    <defs>
        <linearGradient x1="50%" y1="0%" x2="50%" y2="100%" id="linearGradient-1">
            <stop stop-color="#00DEB3" offset="0%"></stop>
            <stop stop-color="#00B4F6" offset="100%"></stop>
        </linearGradient>
    </defs>
    <g id="Page-1" stroke="none" stroke-width="1" fill="none" fill-rule="evenodd">
        <g id="LANDING" transform="translate(-761.000000, -7262.000000)" fill="url(#linearGradient-1)">
            <g id="features" transform="translate(128.000000, 7155.000000)">
                <g id="Group-21" transform="translate(623.000000, 96.000000)">
                    <g id="Group-4-Copy" transform="translate(0.750908, 0.671741)">
                        <path d="M83.665326,52.2040558 L83.665326,21.1803686 C86.3574642,20.4111863 88.0240259,17.7190481 87.3830406,14.8987129 C86.7420553,12.0783777 83.7935231,10.5400131 81.1013849,11.1809983 C78.4092468,11.8219836 76.7426851,14.6423188 77.3836704,17.462654 C77.8964586,19.2574128 79.3066262,20.6675804 81.1013849,21.1803686 L81.1013849,52.2040558 C80.3322026,52.3322528 79.6912173,52.4604499 79.0502321,52.716844 L79.0502321,52.5886469 L71.3584088,41.1791091 C71.3584088,41.1791091 71.3584088,41.1791091 71.2302118,41.050912 C73.1531676,38.9997592 73.1531676,35.7948328 71.1020147,33.7436799 C69.0508618,31.8207241 65.8459355,31.8207241 63.7947826,33.871877 C63.5383885,34.1282711 63.4101914,34.3846652 63.1537973,34.6410593 C63.1537973,34.6410593 63.0256003,34.6410593 63.0256003,34.5128623 L34.9504454,24.2570979 L34.9504454,23.8725067 C34.9504454,21.0521715 32.6428984,18.7446246 29.8225632,18.7446246 C27.002228,18.7446246 24.694681,21.0521715 24.694681,23.8725067 C24.694681,26.6928419 27.002228,29.0003889 29.8225632,29.0003889 L29.8225632,29.0003889 L32.3865043,40.0253356 C24.694681,41.4355032 19.6949959,48.8709323 21.1051635,56.4345586 C21.8743458,60.2804702 24.0536957,63.6135936 27.3868191,65.6647465 L16.1054784,83.2277429 C13.4133402,82.3303635 10.464808,83.7405311 9.56742858,86.3044722 C8.6700492,88.8684133 10.0802168,91.9451426 12.6441579,92.842522 C15.336296,93.7399014 18.2848283,92.3297338 19.1822077,89.7657927 C19.4386018,89.1248074 19.5667988,88.6120192 19.5667988,87.9710339 C19.5667988,86.6890634 19.0540106,85.5352899 18.2848283,84.6379105 L29.6943661,66.946717 C33.9248689,68.6132787 38.6681599,68.2286876 42.5140716,65.7929435 L49.8213037,75.1513285 C48.282939,77.5870725 49.0521213,80.6638018 51.4878654,82.2021665 C53.9236094,83.7405311 57.0003387,82.9713488 58.5387034,80.5356048 C59.3078857,79.2536342 59.5642798,77.5870725 59.0514916,76.1769049 L59.1796886,76.1769049 L75.7171087,67.4595052 C75.8453057,67.4595052 75.8453057,67.3313082 75.9735028,67.3313082 C79.3066262,70.9208257 85.0754936,71.1772198 88.6650112,67.7158993 C92.2545287,64.2545789 92.5109228,58.6139085 89.0496023,55.024391 C87.5112377,53.4860263 85.7164789,52.4604499 83.665326,52.2040558 Z M14.4389166,90.534975 C13.028749,90.534975 11.8749756,89.3812015 11.8749756,87.9710339 C11.8749756,86.5608663 13.028749,85.4070929 14.4389166,85.4070929 C15.8490842,85.4070929 17.0028577,86.5608663 17.0028577,87.9710339 C17.0028577,89.3812015 15.8490842,90.534975 14.4389166,90.534975 Z M79.8194144,16.1806835 C79.8194144,14.7705159 80.9731879,13.6167424 82.3833555,13.6167424 C83.7935231,13.6167424 84.9472966,14.7705159 84.9472966,16.1806835 C84.9472966,17.5908511 83.7935231,18.7446246 82.3833555,18.7446246 C80.9731879,18.7446246 79.8194144,17.5908511 79.8194144,16.1806835 Z M76.8708821,53.9988145 L76.8708821,53.9988145 C75.4607145,55.152588 74.3069411,56.8191497 73.7941528,58.6139085 L49.0521213,54.6397998 L49.0521213,53.7424204 C49.0521213,52.2040558 48.7957272,50.6656911 48.282939,49.2555235 L48.282939,49.2555235 L63.4101914,40.6663209 C64.692162,42.3328826 66.999709,43.1020649 69.0508618,42.3328826 C69.0508618,42.4610796 69.0508618,42.4610796 69.1790589,42.4610796 L76.8708821,53.9988145 Z M67.3843001,35.0256505 C68.7944677,35.0256505 69.9482412,36.179424 69.9482412,37.5895916 C69.9482412,38.9997592 68.7944677,40.1535326 67.3843001,40.1535326 C65.9741325,40.1535326 64.820359,38.9997592 64.820359,37.5895916 C64.820359,36.179424 65.9741325,35.0256505 67.3843001,35.0256505 L67.3843001,35.0256505 Z M27.2586221,23.8725067 C27.2586221,22.4623391 28.4123956,21.3085656 29.8225632,21.3085656 C31.2327308,21.3085656 32.3865043,22.4623391 32.3865043,23.8725067 C32.3865043,25.2826743 31.2327308,26.4364478 29.8225632,26.4364478 C28.4123956,26.4364478 27.2586221,25.2826743 27.2586221,23.8725067 Z M32.3865043,28.4876007 L32.0019131,28.6157977 C32.8992925,28.2312066 33.6684748,27.5902213 34.181263,26.821039 L62.2564179,37.2050004 L62.384615,37.2050004 L62.384615,37.7177886 C62.384615,37.9741827 62.384615,38.2305768 62.5128121,38.4869709 L47.2573626,46.9479765 C44.8216185,42.4610796 40.0783275,39.6407444 34.9504454,39.6407444 L34.9504454,39.6407444 L32.3865043,28.4876007 Z M23.4127105,53.7424204 C23.4127105,47.3325677 28.5405926,42.2046855 34.9504454,42.2046855 C41.3602981,42.2046855 46.4881803,47.3325677 46.4881803,53.7424204 C46.4881803,60.1522731 41.3602981,65.2801553 34.9504454,65.2801553 L34.9504454,65.2801553 C28.5405926,65.2801553 23.4127105,60.1522731 23.4127105,53.7424204 Z M54.1800035,80.2792107 C52.7698359,80.2792107 51.6160624,79.1254372 51.6160624,77.7152696 C51.6160624,76.305102 52.7698359,75.1513285 54.1800035,75.1513285 C55.5901711,75.1513285 56.7439446,76.305102 56.7439446,77.7152696 C56.7439446,79.1254372 55.5901711,80.2792107 54.1800035,80.2792107 Z M57.8977181,73.7411609 C57.769521,73.7411609 57.769521,73.869358 57.641324,73.997555 C55.9747623,72.4591904 53.5390182,72.0745992 51.6160624,73.3565697 L44.5652244,64.2545789 C46.6163773,62.3316231 48.0265449,60.0240761 48.6675302,57.3319379 L73.4095617,61.1778496 C73.4095617,62.4598201 73.7941528,63.8699877 74.3069411,65.0237612 L57.8977181,73.7411609 Z M82.3833555,67.4595052 C78.793838,67.4595052 75.9735028,64.63917 75.9735028,61.0496525 C75.9735028,57.460135 78.793838,54.6397998 82.3833555,54.6397998 C85.972873,54.6397998 88.7932082,57.460135 88.7932082,61.0496525 C88.7932082,64.63917 85.972873,67.4595052 82.3833555,67.4595052 Z" id="Shape" fill-rule="nonzero"></path>
                        <path d="M40.8090607,56.9998227 C40.8090607,58.9416372 39.229803,60.5208949 37.2879885,60.5208949 L36.5710527,60.5208949 L36.5710527,62.1483118 C36.5710527,62.5490325 36.2457511,62.8743342 35.8441217,62.8743342 C35.4424923,62.8743342 35.1171906,62.5499412 35.1171906,62.1483118 L35.1171906,60.5208949 L33.6178953,60.5208949 L33.6178953,62.1483118 C33.6178953,62.5490325 33.2925937,62.8743342 32.8909643,62.8743342 C32.4893349,62.8743342 32.1640333,62.5499412 32.1640333,62.1483118 L32.1640333,60.5208949 L30.2740125,60.5208949 C29.8732918,60.5208949 29.5470815,60.1946846 29.5470815,59.7930552 L29.5470815,48.6210337 C29.5470815,48.220313 29.8723831,47.8950114 30.2740125,47.8950114 L32.1640333,47.8950114 L32.1640333,46.2766811 C32.1640333,45.8759604 32.4884262,45.5488414 32.8909643,45.5488414 C33.291685,45.5488414 33.6178953,45.8750517 33.6178953,46.2766811 L33.6178953,47.8950114 L35.1171906,47.8950114 L35.1171906,46.2766811 C35.1171906,45.8759604 35.4415836,45.5488414 35.8441217,45.5488414 C36.2448424,45.5488414 36.5710527,45.8750517 36.5710527,46.2766811 L36.5710527,47.8950114 L37.2879885,47.8950114 C39.229803,47.8950114 40.8090607,49.4724517 40.8090607,51.4142663 C40.8090607,52.5519134 40.2629538,53.5632562 39.4224397,54.2074988 C40.2629538,54.8499241 40.8090607,55.8621756 40.8090607,56.9998227 Z M37.2879885,54.9335212 L31.0009436,54.9335212 L31.0009436,59.0670328 L37.2879885,59.0670328 C38.4274529,59.0670328 39.3542899,58.1392871 39.3542899,56.9998227 C39.3542899,55.8603583 38.4274529,54.9335212 37.2879885,54.9335212 Z M37.2879885,49.3488734 L31.0009436,49.3488734 L31.0009436,53.4805678 L37.2879885,53.4805678 C38.4274529,53.4805678 39.3542899,52.5537307 39.3542899,51.4151749 C39.3542899,50.2766192 38.4274529,49.3488734 37.2879885,49.3488734 Z" id="Combined-Shape"></path>
                    </g>
                </g>
            </g>
        </g>
    </g>
</svg>