<?xml version="1.0" encoding="UTF-8"?>
<svg width="58px" height="91px" viewBox="0 0 58 91" version="1.1" xmlns="http://www.w3.org/2000/svg" xmlns:xlink="http://www.w3.org/1999/xlink">
    <!-- Generator: Sketch 45.2 (43514) - http://www.bohemiancoding.com/sketch -->
    <title>Group Copy</title>
    <desc>Created with Sketch.</desc>
    <defs>
        <linearGradient x1="50%" y1="0%" x2="50%" y2="100%" id="linearGradient-1">
            <stop stop-color="#00DEB3" offset="0%"></stop>
            <stop stop-color="#00B4F6" offset="100%"></stop>
        </linearGradient>
    </defs>
    <g id="Page-1" stroke="none" stroke-width="1" fill="none" fill-rule="evenodd">
        <g id="LANDING" transform="translate(-160.000000, -7519.000000)" fill-rule="nonzero" fill="url(#linearGradient-1)">
            <g id="features" transform="translate(128.000000, 7155.000000)">
                <g id="Group-22" transform="translate(0.000000, 317.000000)">
                    <g id="Group-Copy" transform="translate(0.000000, 0.942853)">
                        <path d="M87.0286129,46.096674 L43.5255,46.096674 C42.3955491,46.096674 41.3785932,47.0006348 41.3785932,48.2435809 L41.3785932,76.3793604 C41.3785932,77.5093114 42.282554,78.5262673 43.5255,78.5262673 L61.0397403,78.5262673 L61.0397403,78.6392624 C61.0397403,80.560179 62.6216717,82.1421104 64.5425883,82.1421104 L66.0115246,82.1421104 L66.0115246,87.2268898 L67.7064511,87.2268898 L67.7064511,90.6167428 L41.0396079,90.6167428 C36.2938137,90.6167428 32.4519804,94.4585761 32.4519804,99.2043703 L32.4519804,137.057728 L82.6218041,137.057728 L82.6218041,99.0913752 C82.6218041,94.9105565 79.5709364,91.4077085 75.5031129,90.6167428 L75.5031129,87.1138947 L77.1980394,87.1138947 L77.1980394,82.0291153 L78.6669756,82.0291153 C80.7008874,82.0291153 82.1698237,80.4471839 82.1698237,78.5262673 L82.1698237,78.4132722 L86.9156178,78.4132722 C88.0455688,78.4132722 89.0625247,77.5093114 89.0625247,76.2663653 L89.0625247,48.1305858 C89.1755198,47.0006348 88.1585639,46.096674 87.0286129,46.096674 Z M43.5255,76.4923555 C43.4125049,76.4923555 43.2995098,76.3793604 43.2995098,76.2663653 L43.2995098,71.6335663 L61.0397403,71.6335663 L61.1527354,71.6335663 L61.1527354,76.4923555 L43.5255,76.4923555 L43.5255,76.4923555 Z M34.259902,135.136812 L34.259902,104.28915 L80.7008874,104.28915 L80.7008874,135.023816 L34.259902,135.023816 L34.259902,135.136812 Z M80.7008874,99.0913752 L80.7008874,102.481228 L34.259902,102.481228 L34.259902,99.0913752 C34.259902,95.3625369 37.3107696,92.3116693 41.0396079,92.3116693 L74.0341766,92.3116693 C77.6500198,92.3116693 80.7008874,95.3625369 80.7008874,99.0913752 Z M73.6951913,90.3907526 L69.7403629,90.3907526 L69.7403629,87.0008996 L73.6951913,87.0008996 L73.6951913,90.3907526 Z M75.3901178,85.1929781 L68.0454364,85.1929781 L68.0454364,81.9161202 L75.3901178,81.9161202 L75.3901178,85.1929781 Z M80.4748972,78.4132722 C80.4748972,79.317233 79.6839315,80.1081986 78.7799707,80.1081986 L64.6555834,80.1081986 C63.7516227,80.1081986 62.960657,79.317233 62.960657,78.4132722 L62.960657,64.2888849 C62.960657,63.3849241 63.7516227,62.5939584 64.6555834,62.5939584 L78.7799707,62.5939584 C79.6839315,62.5939584 80.4748972,63.3849241 80.4748972,64.2888849 L80.4748972,78.4132722 Z M78.7799707,60.7860368 L64.6555834,60.7860368 C62.7346668,60.7860368 61.1527354,62.3679682 61.1527354,64.2888849 L61.1527354,66.6617819 L61.0397403,66.6617819 L43.2995098,66.6617819 L43.2995098,48.1305858 C43.2995098,48.0175907 43.4125049,47.9045956 43.5255,47.9045956 L87.0286129,47.9045956 C87.141608,47.9045956 87.2546031,48.0175907 87.2546031,48.1305858 L87.2546031,66.6617819 L82.2828188,66.6617819 L82.2828188,64.2888849 C82.2828188,62.3679682 80.7008874,60.7860368 78.7799707,60.7860368 Z M87.0286129,76.4923555 L82.2828188,76.4923555 L82.2828188,71.6335663 L87.2546031,71.6335663 L87.2546031,76.2663653 C87.2546031,76.3793604 87.141608,76.4923555 87.0286129,76.4923555 Z M50.3052059,96.4924879 L63.9776129,96.4924879 L63.9776129,98.3004095 L50.3052059,98.3004095 L50.3052059,96.4924879 Z" id="Shape"></path>
                        <path d="M66.5765001,76.4923555 L76.8590541,76.4923555 L76.8590541,66.2098015 L66.5765001,66.2098015 L66.5765001,76.4923555 Z M68.3844217,68.1307182 L74.9381374,68.1307182 L74.9381374,74.6844339 L68.3844217,74.6844339 L68.3844217,68.1307182 Z M47.1413432,53.7803407 L81.9438335,53.7803407 L81.9438335,55.5882623 L47.1413432,55.5882623 L47.1413432,53.7803407 Z" id="Shape"></path>
                    </g>
                </g>
            </g>
        </g>
    </g>
</svg>