<?xml version="1.0" encoding="UTF-8"?>
<svg width="298px" height="298px" viewBox="0 0 298 298" version="1.1" xmlns="http://www.w3.org/2000/svg" xmlns:xlink="http://www.w3.org/1999/xlink">
    <!-- Generator: Sketch 45.1 (43504) - http://www.bohemiancoding.com/sketch -->
    <title>Group 40</title>
    <desc>Created with Sketch.</desc>
    <defs>
        <linearGradient x1="50%" y1="0%" x2="50%" y2="100%" id="linearGradient-1">
            <stop stop-color="#00DEB3" offset="0%"></stop>
            <stop stop-color="#00B4F6" offset="100%"></stop>
        </linearGradient>
    </defs>
    <g id="Page-1" stroke="none" stroke-width="1" fill="none" fill-rule="evenodd">
        <g id="LANDING" transform="translate(-837.000000, -171.000000)" fill="url(#linearGradient-1)">
            <g id="header" transform="translate(-8.000000, -63.000000)">
                <g id="Group-10" transform="translate(845.000000, 234.000000)">
                    <g id="Group-40">
                        <path d="M213.754224,15.1155124 C153.023074,-14.3483143 79.2581512,0.913454199 35.2607413,53.3475255 C13.4537206,79.3361207 1.50652011,111.326917 0.573738891,144.534676 C0.258451446,155.759161 1.21122967,166.992271 3.41236156,178.003424 C5.56013548,188.747655 8.8855072,199.226387 13.3374077,209.240319 C22.4230943,229.677308 36.0501341,247.862887 53.5643811,262.559085 C116.390969,315.276852 210.058174,307.082033 262.775941,244.255446 C308.253385,190.057538 308.969016,111.64527 265.642401,56.8240609 L264.073286,58.064173 C306.814616,112.14482 306.108613,189.50213 261.243852,242.96987 C209.236089,304.950309 116.830395,313.034759 54.8499563,261.026996 C37.5700225,246.52741 24.1277217,228.58837 15.1649452,208.427849 C10.7731087,198.549023 7.49248882,188.211311 5.37356054,177.61138 C3.20191205,166.747717 2.26188638,155.664959 2.57295035,144.590832 C3.49318111,111.82988 15.2782778,80.2731458 36.7928302,54.6331007 C80.1975738,2.90534156 152.970051,-12.1510925 212.881235,16.9149263 L213.754224,15.1155124 Z" id="Oval-7" fill-rule="nonzero"></path>
                        <path d="M240.116269,71.2325384 C221.274374,71.2325384 206,55.9581644 206,37.1162692 C206,18.274374 221.274374,3 240.116269,3 C258.958164,3 274.232538,18.274374 274.232538,37.1162692 C274.232538,55.9581644 258.958164,71.2325384 240.116269,71.2325384 Z M240.116269,69.2325384 C257.853595,69.2325384 272.232538,54.8535949 272.232538,37.1162692 C272.232538,19.3789435 257.853595,5 240.116269,5 C222.378943,5 208,19.3789435 208,37.1162692 C208,54.8535949 222.378943,69.2325384 240.116269,69.2325384 Z" id="Oval-7-Copy" fill-rule="nonzero"></path>
                        <g id="flaticon1499831763-svg" transform="translate(210.000000, 13.000000)">
                            <g transform="translate(0.116269, 0.616269)" id="Shape">
                                <path d="M48.4860113,9.02731024 L40.1196471,9.02731024 C39.7331211,9.02731024 39.4198325,9.34068087 39.4198325,9.72712483 C39.4198325,10.1136508 39.7332031,10.4269394 40.1196471,10.4269394 L48.4860113,10.4269394 C49.0952839,10.4269394 49.5908048,10.9226243 49.5908048,11.5317329 L49.5908048,13.0396189 L20.2907741,13.0396189 L20.2907741,11.5317329 C20.2907741,10.9226243 20.786459,10.4269394 21.3955675,10.4269394 L37.786795,10.4269394 C38.173321,10.4269394 38.4866096,10.1135688 38.4866096,9.72712483 C38.4866096,9.34059885 38.173239,9.02731024 37.786795,9.02731024 L21.3955675,9.02731024 C20.0146372,9.02731024 18.8910629,10.1508846 18.8910629,11.5318149 L18.8910629,15.6524623 L11.5040946,15.6524623 C10.1234103,15.6525443 9,16.7758726 9,18.1566389 L9,29.5094146 C9,29.8959406 9.31337063,30.2092292 9.6998146,30.2092292 C10.0863406,30.2092292 10.3996292,29.8958586 10.3996292,29.5094146 L10.3996292,25.7302682 L39.6996599,25.7302682 L39.6996599,34.5169476 C39.6996599,35.1258921 39.204139,35.621413 38.5951945,35.621413 L11.5040946,35.621413 C10.8951501,35.621413 10.3996292,35.1258921 10.3996292,34.5169476 L10.3996292,31.8421846 C10.3996292,31.4556586 10.0862586,31.14237 9.6998146,31.14237 C9.31328862,31.14237 9,31.4557406 9,31.8421846 L9,34.5168656 C9,35.8976319 10.1234103,37.0209602 11.5040946,37.0209602 L38.5952765,37.0209602 C39.9760428,37.0209602 41.0993711,35.8975499 41.0993711,34.5168656 L41.0993711,18.1566389 C41.0993711,16.7758726 39.9759608,15.6525443 38.5952765,15.6525443 L20.2907741,15.6525443 L20.2907741,14.4394941 L49.5908048,14.4394941 L49.5908048,17.7054049 L42.639078,17.7054049 C42.252552,17.7054049 41.9392634,18.0187755 41.9392634,18.4052195 C41.9392634,18.7917455 42.252634,19.1050341 42.639078,19.1050341 L49.5908048,19.1050341 L49.5908048,27.8913035 C49.5908048,28.500412 49.0951198,28.9960969 48.4860113,28.9960969 L42.7324085,28.9960969 C42.3458825,28.9960969 42.0325939,29.3094676 42.0325939,29.6959115 C42.0325939,30.0824375 42.3459645,30.3957261 42.7324085,30.3957261 L48.4860113,30.3957261 C49.8670236,30.3957261 50.990516,29.2721518 50.990516,27.8912215 L50.990516,11.5318149 C50.990516,10.1508846 49.8669416,9.02731024 48.4860113,9.02731024 Z M38.5952765,17.0521735 C39.204221,17.0521735 39.6997419,17.5476944 39.6997419,18.1566389 L39.6997419,19.664935 L14.0855272,19.664935 C13.6990012,19.664935 13.3857126,19.9783056 13.3857126,20.3647495 C13.3857126,20.7512755 13.6990832,21.0645641 14.0855272,21.0645641 L39.6997419,21.0645641 L39.6997419,24.3304749 L10.3997112,24.3304749 L10.3997112,21.0645641 L11.7527572,21.0645641 C12.1392831,21.0645641 12.4525718,20.7511935 12.4525718,20.3647495 C12.4525718,19.9782236 12.1392011,19.664935 11.7527572,19.664935 L10.3997112,19.664935 L10.3997112,18.1566389 C10.3997112,17.5476944 10.8952321,17.0521735 11.5041766,17.0521735 L38.5952765,17.0521735 L38.5952765,17.0521735 Z" fill-rule="nonzero"></path>
                                <path d="M18.5644882,27.4098888 C18.0804491,27.4098888 17.6041192,27.5115026 17.1657611,27.7033303 C16.7365065,27.5151111 16.2630471,27.4098888 15.7651478,27.4098888 C13.8356344,27.4098888 12.2659108,28.9796124 12.2659108,30.9091258 C12.2659108,32.8386392 13.8356344,34.4083628 15.7651478,34.4083628 C16.262965,34.4083628 16.7365065,34.3031405 17.1656791,34.1149213 C17.6041192,34.306831 18.0805311,34.4083628 18.5644882,34.4083628 C20.4940016,34.4083628 22.0637252,32.8386392 22.0637252,30.9091258 C22.0637252,28.9796124 20.4940016,27.4098888 18.5644882,27.4098888 Z M15.7651478,33.0085696 C14.6074561,33.0085696 13.665622,32.0667354 13.665622,30.9090438 C13.665622,29.7513521 14.6074561,28.809518 15.7651478,28.809518 C16.9228394,28.809518 17.8646736,29.7513521 17.8646736,30.9090438 C17.8646736,32.0668174 16.9228394,33.0085696 15.7651478,33.0085696 Z M18.5644882,33.0085696 C18.5638321,33.0085696 18.563258,33.0084876 18.5626019,33.0084876 C19.0029282,32.4232447 19.2643028,31.6961199 19.2643028,30.9090438 C19.2643028,30.1219676 19.0029282,29.3947608 18.5626019,28.8096 C18.563258,28.8096 18.5638321,28.809518 18.5644882,28.809518 C19.7221798,28.809518 20.664014,29.7513521 20.664014,30.9090438 C20.664014,32.0668174 19.7222618,33.0085696 18.5644882,33.0085696 Z" fill-rule="nonzero"></path>
                                <path d="M37.00669,27.3408341 L26.6495488,27.3408341 C26.2630228,27.3408341 25.9497342,27.6542047 25.9497342,28.0406487 C25.9497342,28.4271747 26.2631048,28.7404633 26.6495488,28.7404633 L37.006608,28.7404633 C37.393134,28.7404633 37.7064226,28.4270926 37.7064226,28.0406487 C37.7065046,27.6541227 37.393134,27.3408341 37.00669,27.3408341 Z" fill-rule="nonzero"></path>
                            </g>
                        </g>
                        <circle id="Oval-8" cx="88.3286436" cy="283.195672" r="7.17135639"></circle>
                    </g>
                </g>
            </g>
        </g>
    </g>
</svg>