<?xml version="1.0" encoding="UTF-8"?>
<svg width="24px" height="11px" viewBox="0 0 24 11" version="1.1" xmlns="http://www.w3.org/2000/svg" xmlns:xlink="http://www.w3.org/1999/xlink">
    <!-- Generator: Sketch 45.2 (43514) - http://www.bohemiancoding.com/sketch -->
    <title>Shape</title>
    <desc>Created with Sketch.</desc>
    <defs></defs>
    <g id="Page-1" stroke="none" stroke-width="1" fill="none" fill-rule="evenodd">
        <g id="UI-KIT" transform="translate(-163.000000, -1646.000000)" fill-rule="nonzero" fill="#FFFFFF">
            <g id="Group-28" transform="translate(150.000000, 1626.582901)">
                <path d="M26.0569137,16.8947835 L27.3805593,18.2184745 L28.127917,18.9658322 C28.3342726,19.1721877 28.6047963,19.2753655 28.8751839,19.2753655 C29.1456623,19.2753655 29.416186,19.1722332 29.6224508,18.9658322 C30.0352073,18.5530757 30.0352073,17.8839187 29.6224508,17.4712076 L25.7474712,13.5960918 L25.747335,13.5959556 C25.7224488,13.571024 25.6964727,13.5477727 25.6698154,13.5258383 C25.6580535,13.5161654 25.6453834,13.5075824 25.6331673,13.498409 C25.6178178,13.4868742 25.6026045,13.4749306 25.5868009,13.464304 C25.5720872,13.4544495 25.556556,13.4457756 25.5413427,13.4366931 C25.5269923,13.4281101 25.5128235,13.4190275 25.4981552,13.4111711 C25.4826695,13.402906 25.4665025,13.3958216 25.4506535,13.3882831 C25.4352131,13.381017 25.4199999,13.3732969 25.4044233,13.3668483 C25.3889829,13.3604451 25.3731339,13.3553134 25.3574211,13.3496368 C25.340573,13.3435969 25.3238156,13.3371029 25.3067405,13.3319713 C25.2912547,13.3272483 25.2751786,13.323797 25.2593749,13.3198006 C25.2417094,13.3153502 25.2242255,13.3104456 25.2063783,13.306858 C25.1883948,13.3033158 25.1699572,13.301136 25.1517921,13.2985475 C25.1358523,13.2962314 25.1201394,13.2932796 25.1041542,13.2916447 C25.070912,13.2884204 25.0372158,13.2866493 25.0030654,13.2865585 C25.0021117,13.2865131 25.0011126,13.2863768 25.0000681,13.2863768 C24.9990236,13.2863768 24.9980245,13.2865131 24.9969801,13.2865131 C24.9628751,13.2866039 24.9291334,13.2883296 24.8958913,13.2915993 C24.879906,13.2932342 24.8641932,13.296186 24.8482533,13.2985021 C24.8299974,13.3010906 24.8116052,13.3033158 24.7936671,13.3068126 C24.7758199,13.3103548 24.7583814,13.3153502 24.7406705,13.3197552 C24.7248668,13.3237515 24.7088361,13.3272029 24.693305,13.3319258 C24.6762752,13.3370575 24.6595633,13.3435515 24.6426243,13.3495914 C24.6269115,13.3552226 24.6110625,13.3603542 24.5956221,13.3668028 C24.5800001,13.373206 24.5647415,13.3809716 24.5493919,13.3882377 C24.5335429,13.3956853 24.5174214,13.4028152 24.5018902,13.4111257 C24.4872219,13.4189367 24.4730531,13.4280192 24.4587027,13.4366477 C24.4434894,13.4457302 24.4280036,13.454404 24.4132445,13.4642586 C24.3973955,13.4748398 24.3821822,13.4867833 24.3668781,13.4983636 C24.3546166,13.507537 24.3419465,13.51612 24.33023,13.5257929 C24.3035273,13.5477273 24.2775966,13.5709786 24.252665,13.5959102 L24.2525288,13.5960464 L20.3775038,17.4711168 C19.9647473,17.8838733 19.9647473,18.5530302 20.3775038,18.9657414 C20.7901241,19.3784979 21.4593265,19.3784979 21.8721284,18.9657414 L22.6195315,18.2183837 L23.9430863,16.8947381 L23.9430863,18.2184291 L23.9430863,21.9232016 C22.7129456,22.3594819 21.8293496,23.5342191 21.8293496,24.912042 C21.8293496,26.289865 22.712991,27.4645567 23.9430863,27.9008825 L23.9430863,31.6055188 L23.9430863,32.9292097 L22.6194407,31.6055188 L21.8720376,30.8581611 C21.4593719,30.4454954 20.7901241,30.4454954 20.377413,30.8581611 C19.9646565,31.2709176 19.9646565,31.9400745 20.377413,32.3527856 L24.2524834,36.2278106 L24.2526196,36.2279468 C24.2775512,36.2528784 24.3034819,36.2761298 24.3301392,36.2979733 C24.3421281,36.3077824 24.3549345,36.3165017 24.3672868,36.3258113 C24.3825909,36.3372099 24.3975317,36.3490626 24.4130629,36.359553 C24.4280036,36.3695438 24.4437165,36.3783085 24.4591568,36.3875272 C24.4733256,36.395974 24.4872673,36.4050112 24.5017085,36.4126859 C24.5173305,36.4210873 24.5336791,36.4282625 24.5498461,36.4358464 C24.5650139,36.4430216 24.5800001,36.450651 24.5954859,36.4570542 C24.6110625,36.4634574 24.627184,36.4687707 24.6431239,36.4744473 C24.6597449,36.4804417 24.6762298,36.4868449 24.6931687,36.4919312 C24.7089724,36.4966995 24.7251393,36.5002417 24.7413062,36.5043288 C24.7586993,36.5086885 24.7759562,36.5136385 24.7935309,36.5170898 C24.8118323,36.5206774 24.8305877,36.5228573 24.8492524,36.5256274 C24.8647381,36.5278072 24.880133,36.5307591 24.895755,36.5323031 C24.9299962,36.5356636 24.9647824,36.537571 24.9999773,36.537571 C25.0351268,36.537571 25.0699583,36.5356636 25.104245,36.5323031 C25.119867,36.5307591 25.1352619,36.5278072 25.1507476,36.5256274 C25.1694123,36.5229481 25.1881677,36.5207683 25.2064691,36.5170898 C25.2239984,36.5136385 25.2412553,36.5086885 25.2586938,36.5043288 C25.2748153,36.5002417 25.2910276,36.4966995 25.3068313,36.4919312 C25.3237248,36.4868449 25.3402097,36.4803963 25.3568761,36.4744473 C25.3727252,36.4687252 25.3889375,36.4634574 25.4045141,36.4570542 C25.4199999,36.450651 25.4350315,36.4430216 25.4501539,36.4358464 C25.4662755,36.4282171 25.482624,36.4210419 25.4982915,36.4126859 C25.5127327,36.4049203 25.5266744,36.395974 25.5408432,36.3875272 C25.5562835,36.3783085 25.5719964,36.3695438 25.5869371,36.359553 C25.6025591,36.3490626 25.6174999,36.3373007 25.6327132,36.3258113 C25.6451109,36.3165017 25.6578719,36.3078279 25.6698608,36.2979733 C25.6964727,36.2760389 25.7224034,36.2527876 25.7473804,36.2279468 L25.7475166,36.2278106 L29.622587,32.3527856 C30.0353435,31.9400291 30.0353435,31.2708722 29.622587,30.8581611 C29.2099667,30.4454045 28.5407644,30.4454045 28.1279624,30.8581611 L27.3806047,31.6055188 L26.0569592,32.9292097 L26.0569592,31.6055188 L26.0569592,27.9007917 C27.2870999,27.4645113 28.1706958,26.2897742 28.1706958,24.9119512 C28.1706958,23.5341282 27.2870544,22.3594365 26.0569592,21.9231108 L26.0569592,18.2183382 L26.0569592,16.8947835 L26.0569137,16.8947835 Z M25.0000681,25.9689331 C24.4172862,25.9689331 23.9431771,25.4948239 23.9431771,24.912042 C23.9431771,24.3294872 24.4169229,23.8556051 24.9993415,23.8552418 C24.9995686,23.8552418 24.9998411,23.855151 25.0000681,23.855151 C25.0002952,23.855151 25.0005677,23.8552418 25.0007947,23.8552418 C25.5832133,23.8556051 26.0569592,24.3294872 26.0569592,24.912042 C26.0569137,25.4948239 25.5828954,25.9689331 25.0000681,25.9689331 Z" id="Shape" transform="translate(25.000000, 24.911974) rotate(90.000000) translate(-25.000000, -24.911974) "></path>
            </g>
        </g>
    </g>
</svg>