<?xml version="1.0" encoding="UTF-8"?>
<svg width="18px" height="15px" viewBox="0 0 18 15" version="1.1" xmlns="http://www.w3.org/2000/svg" xmlns:xlink="http://www.w3.org/1999/xlink">
    <!-- Generator: Sketch 45.2 (43514) - http://www.bohemiancoding.com/sketch -->
    <title>Shape</title>
    <desc>Created with Sketch.</desc>
    <defs></defs>
    <g id="Page-1" stroke="none" stroke-width="1" fill="none" fill-rule="evenodd">
        <g id="LANDING" transform="translate(-159.000000, -13877.000000)" fill-rule="nonzero" fill="#FFFFFF">
            <g id="footer" transform="translate(-75.000000, 13474.000000)">
                <g id="form" transform="translate(228.000000, 382.000000)">
                    <g id="flaticon1499181084-svg" transform="translate(0.000000, 17.533849)">
                        <path d="M22.8979978,4.61132677 C22.5946053,4.3078664 22.2297881,4.156221 21.8037835,4.156221 L7.5494218,4.156221 C7.12334946,4.156221 6.75853223,4.3078664 6.45510577,4.61132677 C6.15164539,4.91471931 6,5.27950263 6,5.7056428 L6,16.241555 C6,16.667763 6.15164539,17.0322411 6.45510577,17.3356336 C6.75849831,17.6392975 7.12331554,17.7908751 7.5494218,17.7908751 L21.8038175,17.7908751 C22.229822,17.7908751 22.5946053,17.6392975 22.8980317,17.3356336 C23.20156,17.0322411 23.3531375,16.6675595 23.3531375,16.241555 L23.3531375,5.7056428 C23.3531036,5.27950263 23.20156,4.91471931 22.8979978,4.61132677 Z M22.1134848,16.2413176 C22.1134848,16.3252636 22.0828572,16.397881 22.0214325,16.459204 C21.9600417,16.5205948 21.8874921,16.5509849 21.8036818,16.5509849 L7.54932005,16.5509849 C7.46540801,16.5509849 7.39275661,16.5205948 7.33146759,16.459204 C7.27011073,16.397881 7.23948317,16.3252636 7.23948317,16.2413176 L7.23948317,8.80431682 C7.44604109,9.03671991 7.66877768,9.24979 7.90765903,9.44342533 C9.63786141,10.7732988 11.0129131,11.864257 12.0329496,12.7164695 C12.3621874,12.9941186 12.630136,13.210343 12.836694,13.3653124 C13.0432519,13.5203495 13.3224612,13.6768451 13.6742541,13.8349348 C14.0260809,13.993262 14.3569806,14.0720525 14.6668514,14.0720525 L14.6765857,14.0720525 L14.6862183,14.0720525 C14.9960213,14.0720525 15.3270566,13.993262 15.6787477,13.8349348 C16.0306763,13.6768451 16.3100552,13.5203834 16.5165453,13.3653124 C16.7230693,13.210343 16.9910519,12.9941186 17.3203235,12.7164695 C18.3403601,11.864257 19.7152422,10.7732988 21.4455124,9.44342533 C21.6843938,9.24982392 21.9072321,9.03671991 22.1134848,8.80431682 L22.1134848,16.2413176 L22.1134848,16.2413176 Z M22.1134848,5.95734499 L22.1134848,6.06384612 C22.1134848,6.44470635 21.9635352,6.86921849 21.6633649,7.33721293 C21.3631606,7.80520737 21.0386374,8.17809698 20.6902363,8.45561042 C19.4441052,9.43704883 18.1499131,10.4601719 16.8068457,11.5253528 C16.7681797,11.5576084 16.6550985,11.652781 16.4678058,11.8108708 C16.2807844,11.9691979 16.1322255,12.0903853 16.0224343,12.1741956 C15.9125075,12.2582433 15.7690363,12.3598942 15.5915796,12.4792162 C15.4139873,12.5985382 15.2510134,12.68747 15.1025563,12.7455029 C14.9540992,12.8034002 14.8152746,12.8323997 14.6862183,12.8323997 L14.6765857,12.8323997 L14.6668514,12.8323997 C14.5377612,12.8323997 14.3990723,12.8034002 14.2505134,12.7455029 C14.1020562,12.68747 13.9389806,12.5985382 13.761524,12.4792162 C13.5841012,12.3598603 13.4404265,12.2582094 13.3306693,12.1741956 C13.2209799,12.0903853 13.072421,11.9691979 12.8852639,11.8108708 C12.698039,11.652781 12.5849579,11.5576084 12.5462579,11.5253528 C11.2034958,10.460138 9.90916794,9.43704883 8.66313868,8.45561042 C7.71409154,7.70684645 7.23965276,6.79005491 7.23965276,5.70547322 C7.23965276,5.62162902 7.27028031,5.5489437 7.33163717,5.48768859 C7.39299403,5.42633173 7.4655776,5.39563634 7.54948964,5.39563634 L21.8038853,5.39563634 C21.85544,5.42463585 21.900686,5.43270823 21.9394538,5.41988739 C21.9782215,5.40682914 22.0072211,5.43111411 22.0264862,5.49240313 C22.0458531,5.55375999 22.0636259,5.5827595 22.0797368,5.57957125 C22.0959155,5.57631516 22.1056498,5.61664314 22.108872,5.70069084 C22.1118906,5.78456896 22.1135187,5.82679632 22.1135187,5.82679632 L22.1135187,5.95734499 L22.1134848,5.95734499 Z" id="Shape"></path>
                    </g>
                </g>
            </g>
        </g>
    </g>
</svg>