<?xml version="1.0" encoding="UTF-8"?>
<svg width="171px" height="47px" viewBox="0 0 171 47" version="1.1" xmlns="http://www.w3.org/2000/svg" xmlns:xlink="http://www.w3.org/1999/xlink">
    <!-- Generator: Sketch 46.2 (44496) - http://www.bohemiancoding.com/sketch -->
    <title>logo-icoprom copy 11</title>
    <desc>Created with Sketch.</desc>
    <defs></defs>
    <g id="Landing-page" stroke="none" stroke-width="1" fill="none" fill-rule="evenodd">
        <g id="Mobile-dashboard-Copy" transform="translate(-17.000000, -8.000000)">
            <g id="mob-menu">
                <g id="logo-icoprom" transform="translate(16.000000, 8.000000)">
                    <path d="M41.848,12.0946667 L45.376,12.0946667 L45.376,27.4166667 L41.848,27.4166667 L41.848,12.0946667 Z M47.928,19.8496667 C47.928,18.5806603 48.127998,17.448755 48.528,16.4539167 C48.928002,15.4590784 49.4679966,14.6170034 50.148,13.9276667 C50.8280034,13.2383299 51.6199955,12.7135018 52.524,12.3531667 C53.4280045,11.9928315 54.383995,11.8126667 55.392,11.8126667 C56.3680049,11.8126667 57.251996,12.0124147 58.044,12.4119167 C58.836004,12.8114187 59.4959974,13.2774973 60.024,13.8101667 L58.08,15.9486667 C57.679998,15.5883315 57.276002,15.3063344 56.868,15.1026667 C56.459998,14.898999 55.9840027,14.7971667 55.44,14.7971667 C54.8959973,14.7971667 54.3880024,14.9107489 53.916,15.1379167 C53.4439976,15.3650845 53.0320018,15.6901646 52.68,16.1131667 C52.3279982,16.5361688 52.052001,17.0531636 51.852,17.6641667 C51.651999,18.2751697 51.552,18.9644962 51.552,19.7321667 C51.552,21.3145079 51.8959966,22.5404123 52.584,23.4099167 C53.2720034,24.279421 54.1919942,24.7141667 55.344,24.7141667 C55.9840032,24.7141667 56.5439976,24.5888346 57.024,24.3381667 C57.5040024,24.0874987 57.9359981,23.758502 58.32,23.3511667 L60.264,25.4426667 C59.6079967,26.1946704 58.8600042,26.7586648 58.02,27.1346667 C57.1799958,27.5106685 56.2720049,27.6986667 55.296,27.6986667 C54.287995,27.6986667 53.3360045,27.5302517 52.44,27.1934167 C51.5439955,26.8565816 50.7600034,26.35917 50.088,25.7011667 C49.4159966,25.0431634 48.8880019,24.2245882 48.504,23.2454167 C48.1199981,22.2662451 47.928,21.1343398 47.928,19.8496667 Z M67.712,27.6986667 C66.6559947,27.6986667 65.6920043,27.5145852 64.82,27.1464167 C63.9479956,26.7782482 63.2000031,26.2495034 62.576,25.5601667 C61.9519969,24.8708299 61.4680017,24.0326716 61.124,23.0456667 C60.7799983,22.0586617 60.608,20.9385063 60.608,19.6851667 C60.608,18.4318271 60.7799983,17.3155882 61.124,16.3364167 C61.4680017,15.3572451 61.9519969,14.5347533 62.576,13.8689167 C63.2000031,13.20308 63.9479956,12.6939184 64.82,12.3414167 C65.6920043,11.9889149 66.6559947,11.8126667 67.712,11.8126667 C68.7680053,11.8126667 69.7319956,11.9889149 70.604,12.3414167 C71.4760043,12.6939184 72.2239969,13.2069966 72.848,13.8806667 C73.4720031,14.5543367 73.9559983,15.3807451 74.3,16.3599167 C74.6440017,17.3390882 74.816,18.4474938 74.816,19.6851667 C74.816,20.9385063 74.6440017,22.0586617 74.3,23.0456667 C73.9559983,24.0326716 73.4720031,24.8708299 72.848,25.5601667 C72.2239969,26.2495034 71.4760043,26.7782482 70.604,27.1464167 C69.7319956,27.5145852 68.7680053,27.6986667 67.712,27.6986667 Z M67.712,24.7141667 C68.7840053,24.7141667 69.6319969,24.2637545 70.256,23.3629167 C70.8800031,22.4620788 71.192,21.2361744 71.192,19.6851667 C71.192,18.1498257 70.8800031,16.9513376 70.256,16.0896667 C69.6319969,15.2279957 68.7840053,14.7971667 67.712,14.7971667 C66.6399946,14.7971667 65.7920031,15.2279957 65.168,16.0896667 C64.5439969,16.9513376 64.232,18.1498257 64.232,19.6851667 C64.232,21.2361744 64.5439969,22.4620788 65.168,23.3629167 C65.7920031,24.2637545 66.6399946,24.7141667 67.712,24.7141667 Z M78.784,26.3121667 L78.784,32.5161667 L77.728,32.5161667 L77.728,16.1366667 L78.64,16.1366667 L78.736,17.5466667 L78.808,17.5466667 C79.3680028,17.1079978 79.9799967,16.7163351 80.644,16.3716667 C81.3080033,16.0269983 81.9999964,15.8546667 82.72,15.8546667 C84.2560077,15.8546667 85.4079961,16.3755781 86.176,17.4174167 C86.9440038,18.4592552 87.328,19.8574912 87.328,21.6121667 C87.328,22.5678381 87.1920013,23.4216629 86.92,24.1736667 C86.6479986,24.9256704 86.2760023,25.5640807 85.804,26.0889167 C85.3319976,26.6137526 84.7880031,27.0132486 84.172,27.2874167 C83.5559969,27.5615847 82.9120033,27.6986667 82.24,27.6986667 C81.6959973,27.6986667 81.1360029,27.5772512 80.56,27.3344167 C79.9839971,27.0915821 79.392003,26.7508355 78.784,26.3121667 Z M78.784,25.3251667 C79.4560033,25.857836 80.0799971,26.2338322 80.656,26.4531667 C81.2320029,26.6725011 81.7439977,26.7821667 82.192,26.7821667 C82.7680029,26.7821667 83.3039975,26.6568346 83.8,26.4061667 C84.2960025,26.1554987 84.7199982,25.8030023 85.072,25.3486667 C85.4240017,24.8943311 85.699999,24.3499198 85.9,23.7154167 C86.100001,23.0809135 86.2,22.3798372 86.2,21.6121667 C86.2,20.9228299 86.1320007,20.280503 85.996,19.6851667 C85.8599993,19.0898304 85.6480014,18.5767522 85.36,18.1459167 C85.0719985,17.7150812 84.6960023,17.3782512 84.232,17.1354167 C83.7679977,16.8925821 83.2080033,16.7711667 82.552,16.7711667 C81.9759971,16.7711667 81.3800031,16.9317484 80.764,17.2529167 C80.1479969,17.5740849 79.4880035,18.0323304 78.784,18.6276667 L78.784,25.3251667 Z M90.384,16.1366667 L91.296,16.1366667 L91.392,18.2281667 L91.464,18.2281667 C91.8480019,17.5231631 92.3159972,16.9513355 92.868,16.5126667 C93.4200027,16.0739978 94.0399965,15.8546667 94.728,15.8546667 C94.9520011,15.8546667 95.1519991,15.8703332 95.328,15.9016667 C95.5040009,15.9330002 95.687999,15.9956662 95.88,16.0896667 L95.64,17.0296667 C95.447999,16.9513329 95.2800007,16.9004168 95.136,16.8769167 C94.9919993,16.8534165 94.8080011,16.8416667 94.584,16.8416667 C94.0719974,16.8416667 93.5320028,17.0570812 92.964,17.4879167 C92.3959971,17.9187522 91.8880022,18.666828 91.44,19.7321667 L91.44,27.4166667 L90.384,27.4166667 L90.384,16.1366667 Z M96.392,21.8001667 C96.392,20.860162 96.5319986,20.0180871 96.812,19.2739167 C97.0920014,18.5297463 97.4679976,17.9070025 97.94,17.4056667 C98.4120023,16.9043308 98.9599969,16.5205013 99.584,16.2541667 C100.208003,15.987832 100.863997,15.8546667 101.552,15.8546667 C102.240003,15.8546667 102.899997,15.987832 103.532,16.2541667 C104.164003,16.5205013 104.715998,16.9043308 105.188,17.4056667 C105.660002,17.9070025 106.035999,18.5297463 106.316,19.2739167 C106.596001,20.0180871 106.736,20.860162 106.736,21.8001667 C106.736,22.7401714 106.596001,23.574413 106.316,24.3029167 C106.035999,25.0314203 105.660002,25.6463308 105.188,26.1476667 C104.715998,26.6490025 104.164003,27.032832 103.532,27.2991667 C102.899997,27.5655013 102.240003,27.6986667 101.552,27.6986667 C100.863997,27.6986667 100.208003,27.5655013 99.584,27.2991667 C98.9599969,27.032832 98.4120023,26.6490025 97.94,26.1476667 C97.4679976,25.6463308 97.0920014,25.0314203 96.812,24.3029167 C96.5319986,23.574413 96.392,22.7401714 96.392,21.8001667 Z M97.496,21.8001667 C97.496,22.5365037 97.5999989,23.2101636 97.808,23.8211667 C98.016001,24.4321697 98.2999982,24.9569978 98.66,25.3956667 C99.0200018,25.8343355 99.4479975,26.1750821 99.944,26.4179167 C100.440002,26.6607512 100.975997,26.7821667 101.552,26.7821667 C102.128003,26.7821667 102.667997,26.6607512 103.172,26.4179167 C103.676002,26.1750821 104.107998,25.8343355 104.468,25.3956667 C104.828002,24.9569978 105.111999,24.4321697 105.32,23.8211667 C105.528001,23.2101636 105.632,22.5365037 105.632,21.8001667 C105.632,21.0481629 105.528001,20.3666697 105.32,19.7556667 C105.111999,19.1446636 104.828002,18.6159189 104.468,18.1694167 C104.107998,17.7229144 103.676002,17.3782512 103.172,17.1354167 C102.667997,16.8925821 102.128003,16.7711667 101.552,16.7711667 C100.975997,16.7711667 100.440002,16.8925821 99.944,17.1354167 C99.4479975,17.3782512 99.0200018,17.7229144 98.66,18.1694167 C98.2999982,18.6159189 98.016001,19.1446636 97.808,19.7556667 C97.5999989,20.3666697 97.496,21.0481629 97.496,21.8001667 Z M109.792,16.1366667 L110.704,16.1366667 L110.8,17.8756667 L110.872,17.8756667 C111.384003,17.2959971 111.955997,16.8142519 112.588,16.4304167 C113.220003,16.0465814 113.855997,15.8546667 114.496,15.8546667 C115.424005,15.8546667 116.135997,16.0622479 116.632,16.4774167 C117.128002,16.8925854 117.479999,17.4526631 117.688,18.1576667 C118.360003,17.4526631 119.011997,16.8925854 119.644,16.4774167 C120.276003,16.0622479 120.927997,15.8546667 121.6,15.8546667 C123.904011,15.8546667 125.056,17.2959856 125.056,20.1786667 L125.056,27.4166667 L123.976,27.4166667 L123.976,20.3196667 C123.976,19.1133273 123.768002,18.2242529 123.352,17.6524167 C122.935998,17.0805805 122.288004,16.7946667 121.408,16.7946667 C120.367995,16.7946667 119.216006,17.4996596 117.952,18.9096667 L117.952,27.4166667 L116.896,27.4166667 L116.896,20.3196667 C116.896,19.1133273 116.688002,18.2242529 116.272,17.6524167 C115.855998,17.0805805 115.200004,16.7946667 114.304,16.7946667 C113.263995,16.7946667 112.112006,17.4996596 110.848,18.9096667 L110.848,27.4166667 L109.792,27.4166667 L109.792,16.1366667 Z M127.92,21.8001667 C127.92,20.860162 128.059999,20.0180871 128.34,19.2739167 C128.620001,18.5297463 128.995998,17.9070025 129.468,17.4056667 C129.940002,16.9043308 130.487997,16.5205013 131.112,16.2541667 C131.736003,15.987832 132.391997,15.8546667 133.08,15.8546667 C133.768003,15.8546667 134.427997,15.987832 135.06,16.2541667 C135.692003,16.5205013 136.243998,16.9043308 136.716,17.4056667 C137.188002,17.9070025 137.563999,18.5297463 137.844,19.2739167 C138.124001,20.0180871 138.264,20.860162 138.264,21.8001667 C138.264,22.7401714 138.124001,23.574413 137.844,24.3029167 C137.563999,25.0314203 137.188002,25.6463308 136.716,26.1476667 C136.243998,26.6490025 135.692003,27.032832 135.06,27.2991667 C134.427997,27.5655013 133.768003,27.6986667 133.08,27.6986667 C132.391997,27.6986667 131.736003,27.5655013 131.112,27.2991667 C130.487997,27.032832 129.940002,26.6490025 129.468,26.1476667 C128.995998,25.6463308 128.620001,25.0314203 128.34,24.3029167 C128.059999,23.574413 127.92,22.7401714 127.92,21.8001667 Z M129.024,21.8001667 C129.024,22.5365037 129.127999,23.2101636 129.336,23.8211667 C129.544001,24.4321697 129.827998,24.9569978 130.188,25.3956667 C130.548002,25.8343355 130.975997,26.1750821 131.472,26.4179167 C131.968002,26.6607512 132.503997,26.7821667 133.08,26.7821667 C133.656003,26.7821667 134.195997,26.6607512 134.7,26.4179167 C135.204002,26.1750821 135.635998,25.8343355 135.996,25.3956667 C136.356002,24.9569978 136.639999,24.4321697 136.848,23.8211667 C137.056001,23.2101636 137.16,22.5365037 137.16,21.8001667 C137.16,21.0481629 137.056001,20.3666697 136.848,19.7556667 C136.639999,19.1446636 136.356002,18.6159189 135.996,18.1694167 C135.635998,17.7229144 135.204002,17.3782512 134.7,17.1354167 C134.195997,16.8925821 133.656003,16.7711667 133.08,16.7711667 C132.503997,16.7711667 131.968002,16.8925821 131.472,17.1354167 C130.975997,17.3782512 130.548002,17.7229144 130.188,18.1694167 C129.827998,18.6159189 129.544001,19.1446636 129.336,19.7556667 C129.127999,20.3666697 129.024,21.0481629 129.024,21.8001667 Z" id="ICOpromo" fill="#041E42"></path>
                    <path d="M49.53,36.9341667 L48.7,37.0516667 L47,43.18125 L46.59,43.18125 L44.83,38.0602083 L43.18,43.18125 L42.78,43.18125 L40.97,37.0320833 L40.14,36.9341667 L40.14,36.5327083 L42.86,36.5327083 L42.86,36.9341667 L41.94,37.041875 L43.18,41.53625 L44.7,37.0516667 L43.71,36.9341667 L43.71,36.5327083 L46.42,36.5327083 L46.42,36.9341667 L45.42,37.0516667 L46.91,41.5852083 L48.19,37.0614583 L47.26,36.9341667 L47.26,36.5327083 L49.53,36.5327083 L49.53,36.9341667 Z M51.93,40.2927083 C52.1700012,40.2927083 52.3299996,40.2437505 52.41,40.1458333 C52.4900004,40.0479162 52.53,39.9271535 52.53,39.7835417 C52.53,39.6464576 52.5016669,39.5142715 52.445,39.3869792 C52.388333,39.2596869 52.3116671,39.1470838 52.215,39.0491667 C52.1183328,38.9512495 52.0050006,38.872917 51.875,38.8141667 C51.7449993,38.7554164 51.6033341,38.7260417 51.45,38.7260417 C51.3099993,38.7260417 51.1650007,38.7537844 51.015,38.8092708 C50.8649992,38.8647572 50.7283339,38.9561452 50.605,39.0834375 C50.481666,39.2107298 50.3750004,39.3739226 50.285,39.5730208 C50.1949995,39.7721191 50.1366668,40.0120125 50.11,40.2927083 L51.93,40.2927083 Z M50.09,40.71375 C50.1033334,41.3208364 50.2566652,41.7875678 50.55,42.1139583 C50.8433348,42.4403489 51.2299976,42.6035417 51.71,42.6035417 C52.0300016,42.6035417 52.2966656,42.5382645 52.51,42.4077083 C52.7233344,42.2771521 52.9199991,42.1074316 53.1,41.8985417 L53.34,42.0845833 C53.1666658,42.4370851 52.9183349,42.7161448 52.595,42.9217708 C52.271665,43.1273969 51.8800023,43.2302083 51.42,43.2302083 C51.0799983,43.2302083 50.7733347,43.1747228 50.5,43.06375 C50.2266653,42.9527772 49.9933343,42.7912163 49.8,42.5790625 C49.6066657,42.3669087 49.4566672,42.1106959 49.35,41.8104167 C49.2433328,41.5101374 49.19,41.1739602 49.19,40.801875 C49.19,40.4297898 49.2499994,40.0887168 49.37,39.7786458 C49.4900006,39.4685748 49.6549989,39.2025706 49.865,38.980625 C50.075001,38.7586794 50.3199986,38.5856951 50.6,38.4616667 C50.8800014,38.3376383 51.1766651,38.275625 51.49,38.275625 C51.7500013,38.275625 51.9949988,38.3180551 52.225,38.4029167 C52.4550011,38.4877782 52.6533325,38.6118047 52.82,38.775 C52.9866675,38.9381953 53.1183328,39.1372905 53.215,39.3722917 C53.3116671,39.6072928 53.36,39.8716652 53.36,40.1654167 C53.36,40.2763894 53.3533334,40.377569 53.34,40.4689583 C53.3266666,40.5603477 53.3100001,40.6419441 53.29,40.71375 L50.09,40.71375 Z M58.47,42.7308333 L58.47,43.0833333 L56.01,43.0833333 L56.01,42.7308333 L56.8,42.59375 C56.8066667,42.3261098 56.8116666,42.0633693 56.815,41.8055208 C56.8183333,41.5476723 56.82,41.2881958 56.82,41.0270833 L56.82,36.8264583 L56,36.7285417 L56,36.3858333 L57.56,35.9452083 L57.7,36.0235417 L57.66,37.4139583 L57.66,41.0270833 C57.66,41.2881958 57.6616666,41.5493043 57.665,41.8104167 C57.6683333,42.0715291 57.6733333,42.3326376 57.68,42.59375 L58.47,42.7308333 Z M61.66,40.5472917 C61.4866658,40.5929863 61.3183341,40.6419442 61.155,40.6941667 C60.9916658,40.7463892 60.8566672,40.7920831 60.75,40.83125 C60.5299989,40.9161115 60.3550006,41.0026037 60.225,41.0907292 C60.0949993,41.1788546 59.996667,41.2653468 59.93,41.3502083 C59.863333,41.4350699 59.8200001,41.5199301 59.8,41.6047917 C59.7799999,41.6896532 59.77,41.7679858 59.77,41.8397917 C59.77,41.9703479 59.7883331,42.0747913 59.825,42.153125 C59.8616668,42.2314587 59.9066664,42.2999997 59.96,42.35875 C60.1133341,42.5088896 60.3166654,42.5839583 60.57,42.5839583 C60.6500004,42.5839583 60.7266663,42.5757987 60.8,42.5594792 C60.8733337,42.5431596 60.9499996,42.5137849 61.03,42.4713542 C61.1100004,42.4289234 61.1999995,42.3734378 61.3,42.3048958 C61.4000005,42.2363538 61.5199993,42.1531255 61.66,42.0552083 L61.66,40.5472917 Z M63.46,42.6622917 C63.3466661,42.8711816 63.223334,43.0098955 63.09,43.0784375 C62.956666,43.1469795 62.8100008,43.18125 62.65,43.18125 C62.3699986,43.18125 62.1500008,43.1143409 61.99,42.9805208 C61.8299992,42.8467007 61.7266669,42.6688206 61.68,42.446875 C61.546666,42.5774312 61.4233339,42.6916662 61.31,42.7895833 C61.1966661,42.8875005 61.0833339,42.9690969 60.97,43.034375 C60.8566661,43.0996531 60.7400006,43.1486109 60.62,43.18125 C60.4999994,43.2138891 60.3666674,43.2302083 60.22,43.2302083 C60.0399991,43.2302083 59.8683341,43.2040975 59.705,43.151875 C59.5416658,43.0996525 59.3983339,43.02132 59.275,42.916875 C59.151666,42.81243 59.0550003,42.6835077 58.985,42.5301042 C58.9149996,42.3767006 58.88,42.1988205 58.88,41.9964583 C58.88,41.8593743 58.9033331,41.7255562 58.95,41.595 C58.9966669,41.4644438 59.0799994,41.3387853 59.2,41.2180208 C59.3200006,41.0972563 59.4883322,40.9764937 59.705,40.8557292 C59.9216677,40.7349647 60.1999983,40.6158339 60.54,40.4983333 C60.6933341,40.4461109 60.8683323,40.3922572 61.065,40.3367708 C61.2616676,40.2812844 61.459999,40.2274308 61.66,40.1752083 L61.66,39.9108333 C61.66,39.6758322 61.6416668,39.4816327 61.605,39.3282292 C61.5683331,39.1748256 61.5133337,39.0540629 61.44,38.9659375 C61.3666663,38.8778121 61.2716672,38.8157988 61.155,38.7798958 C61.0383327,38.7439929 60.8966675,38.7260417 60.73,38.7260417 C60.6566663,38.7260417 60.5783337,38.7293055 60.495,38.7358333 C60.4116662,38.7423611 60.3200005,38.7554166 60.22,38.775 L60.02,39.4604167 C59.9266662,39.7737516 59.746668,39.9304167 59.48,39.9304167 C59.3399993,39.9304167 59.2300004,39.8928823 59.15,39.8178125 C59.0699996,39.7427427 59.0233334,39.6399312 59.01,39.509375 C59.1033338,39.1372898 59.3233316,38.838647 59.67,38.6134375 C60.0166684,38.388228 60.4466641,38.275625 60.96,38.275625 C61.4866693,38.275625 61.8766654,38.4061793 62.13,38.6672917 C62.3833346,38.9284041 62.51,39.3722885 62.51,39.9989583 L62.51,42.094375 C62.51,42.4795158 62.6199989,42.6720833 62.84,42.6720833 C62.9200004,42.6720833 62.9899997,42.6541321 63.05,42.6182292 C63.1100003,42.5823262 63.1633331,42.5447919 63.21,42.505625 L63.26,42.446875 L63.46,42.6622917 Z M68.82,42.7308333 L68.82,43.0833333 L67.43,43.18125 L67.32,42.3097917 C67.0466653,42.6361822 66.7600015,42.8711798 66.46,43.0147917 C66.1599985,43.1584035 65.8566682,43.2302083 65.55,43.2302083 C65.349999,43.2302083 65.1683341,43.1992017 65.005,43.1371875 C64.8416658,43.0751733 64.7033339,42.9739938 64.59,42.8336458 C64.4766661,42.6932979 64.3916669,42.5121539 64.335,42.2902083 C64.278333,42.0682628 64.25,41.7940989 64.25,41.4677083 L64.28,39.0002083 L63.57,38.8533333 L63.57,38.510625 L65.04,38.3735417 L65.14,38.4714583 L65.09,39.8422917 L65.09,41.36 C65.09,41.7973633 65.1549993,42.1025339 65.285,42.2755208 C65.4150006,42.4485078 65.6166653,42.535 65.89,42.535 C66.356669,42.535 66.823331,42.3228493 67.29,41.8985417 L67.32,39.0002083 L66.61,38.8533333 L66.61,38.510625 L68.06,38.3735417 L68.16,38.4714583 L68.13,39.8422917 L68.13,42.5839583 L68.82,42.7308333 Z M74.73,42.7308333 L74.73,43.0833333 L72.41,43.0833333 L72.41,42.7308333 L73.15,42.59375 C73.1566667,42.352221 73.1616666,42.0878487 73.165,41.800625 C73.1683333,41.5134013 73.17,41.2555567 73.17,41.0270833 L73.17,40.1654167 C73.17,39.7215256 73.1066673,39.4114592 72.98,39.2352083 C72.8533327,39.0589575 72.6433348,38.9708333 72.35,38.9708333 C72.1166655,38.9708333 71.8916677,39.0197912 71.675,39.1177083 C71.4583322,39.2156255 71.2233346,39.3722906 70.97,39.5877083 L70.97,41.0270833 C70.97,41.2425011 70.9716666,41.4954499 70.975,41.7859375 C70.9783333,42.0764251 70.9833333,42.3456932 70.99,42.59375 L71.69,42.7308333 L71.69,43.0833333 L69.37,43.0833333 L69.37,42.7308333 L70.11,42.59375 C70.1166667,42.3456932 70.1216666,42.078057 70.125,41.7908333 C70.1283333,41.5036097 70.13,41.2490289 70.13,41.0270833 L70.13,40.5277083 C70.13,40.2600681 70.1266667,40.0381259 70.12,39.861875 C70.1133333,39.6856241 70.1066667,39.4995843 70.1,39.30375 L69.31,39.215625 L69.31,38.8729167 L70.7,38.275625 L70.85,38.3735417 L70.93,39.1666667 C71.1766679,38.8990264 71.4583317,38.6836119 71.775,38.5204167 C72.0916682,38.3572214 72.4099984,38.275625 72.73,38.275625 C73.1633355,38.275625 73.4849989,38.4159708 73.695,38.6966667 C73.905001,38.9773625 74.01,39.4408301 74.01,40.0870833 L74.01,41.0270833 C74.01,41.2555567 74.0116666,41.5117694 74.015,41.7957292 C74.0183333,42.0796889 74.0233333,42.3456932 74.03,42.59375 L74.73,42.7308333 Z M79.41,41.9670833 C79.276666,42.3783354 79.0516682,42.6916656 78.735,42.9070833 C78.4183317,43.1225011 78.0200024,43.2302083 77.54,43.2302083 C77.1999983,43.2302083 76.891668,43.1730908 76.615,43.0588542 C76.3383319,42.9446175 76.1016676,42.7797927 75.905,42.564375 C75.7083323,42.3489573 75.5583338,42.0894807 75.455,41.7859375 C75.3516661,41.4823943 75.3,41.1445852 75.3,40.7725 C75.3,40.3873592 75.3633327,40.0397585 75.49,39.7296875 C75.6166673,39.4196165 75.7883322,39.1568761 76.005,38.9414583 C76.2216677,38.7260406 76.4683319,38.5612158 76.745,38.4469792 C77.021668,38.3327425 77.3099985,38.275625 77.61,38.275625 C77.8366678,38.275625 78.0516656,38.3082636 78.255,38.3735417 C78.4583343,38.4388198 78.6383325,38.5285758 78.795,38.6428125 C78.9516674,38.7570492 79.0799995,38.8908673 79.18,39.0442708 C79.2800005,39.1976744 79.3466665,39.365763 79.38,39.5485417 C79.3333331,39.7965985 79.1800013,39.920625 78.92,39.920625 C78.7533325,39.920625 78.6300004,39.8765629 78.55,39.7884375 C78.4699996,39.7003121 78.4133335,39.587709 78.38,39.450625 L78.2,38.804375 C78.1066662,38.7717359 78.0133338,38.7505209 77.92,38.7407292 C77.8266662,38.7309375 77.7400004,38.7260417 77.66,38.7260417 C77.2266645,38.7260417 76.871668,38.8924983 76.595,39.2254167 C76.3183319,39.558335 76.18,40.0413857 76.18,40.6745833 C76.18,41.3012531 76.3283318,41.7794081 76.625,42.1090625 C76.9216681,42.4387169 77.3066643,42.6035417 77.78,42.6035417 C78.0666681,42.6035417 78.3299988,42.5382645 78.57,42.4077083 C78.8100012,42.2771521 79.0066659,42.0878485 79.16,41.8397917 L79.41,41.9670833 Z M85.11,42.7308333 L85.11,43.0833333 L82.79,43.0833333 L82.79,42.7308333 L83.53,42.59375 C83.5366667,42.352221 83.5416666,42.0878487 83.545,41.800625 C83.5483333,41.5134013 83.55,41.2555567 83.55,41.0270833 L83.55,40.1654167 C83.55,39.7215256 83.4866673,39.4114592 83.36,39.2352083 C83.2333327,39.0589575 83.0233348,38.9708333 82.73,38.9708333 C82.4899988,38.9708333 82.2600011,39.0214231 82.04,39.1226042 C81.8199989,39.2237852 81.576668,39.38861 81.31,39.6170833 L81.31,41.0270833 C81.31,41.2425011 81.3116666,41.4954499 81.315,41.7859375 C81.3183333,42.0764251 81.3233333,42.3456932 81.33,42.59375 L82.02,42.7308333 L82.02,43.0833333 L79.7,43.0833333 L79.7,42.7308333 L80.45,42.59375 C80.4566667,42.3456932 80.4616666,42.0764251 80.465,41.7859375 C80.4683333,41.4954499 80.47,41.2425011 80.47,41.0270833 L80.47,36.8264583 L79.65,36.7285417 L79.65,36.3858333 L81.18,35.9452083 L81.32,36.0235417 L81.28,37.4139583 L81.28,39.18625 C81.5266679,38.912082 81.8133317,38.6917717 82.14,38.5253125 C82.4666683,38.3588533 82.7899984,38.275625 83.11,38.275625 C83.5433355,38.275625 83.8649989,38.4159708 84.075,38.6966667 C84.285001,38.9773625 84.39,39.4408301 84.39,40.0870833 L84.39,41.0270833 C84.39,41.2555567 84.3916666,41.5117694 84.395,41.7957292 C84.3983333,42.0796889 84.4033333,42.3456932 84.41,42.59375 L85.11,42.7308333 Z M89.26,42.12375 C89.4666677,42.3130565 89.669999,42.4517704 89.87,42.5398958 C90.070001,42.6280213 90.2633324,42.6720833 90.45,42.6720833 C90.6300009,42.6720833 90.7999992,42.6329171 90.96,42.5545833 C91.1200008,42.4762496 91.2599994,42.3587508 91.38,42.2020833 C91.5000006,42.0454159 91.5949996,41.8495845 91.665,41.6145833 C91.7350003,41.3795822 91.77,41.1054182 91.77,40.7920833 C91.77,40.1588857 91.6533345,39.6742031 91.42,39.3380208 C91.1866655,39.0018386 90.8800019,38.83375 90.5,38.83375 C90.3466659,38.83375 90.170001,38.8729163 89.97,38.95125 C89.769999,39.0295837 89.5333347,39.1797211 89.26,39.4016667 L89.26,42.12375 Z M89.23,39.0295833 C89.4633345,38.7684709 89.708332,38.5775353 89.965,38.4567708 C90.2216679,38.3360063 90.4899986,38.275625 90.77,38.275625 C91.036668,38.275625 91.2849988,38.3311106 91.515,38.4420833 C91.7450011,38.5530561 91.9449991,38.714617 92.115,38.9267708 C92.2850008,39.1389247 92.4199995,39.3951374 92.52,39.6954167 C92.6200005,39.9956959 92.67,40.335137 92.67,40.71375 C92.67,41.092363 92.6183338,41.4366998 92.515,41.7467708 C92.4116661,42.0568418 92.2683342,42.3212142 92.085,42.5398958 C91.9016657,42.7585775 91.6850012,42.928298 91.435,43.0490625 C91.1849987,43.169827 90.9133348,43.2302083 90.62,43.2302083 C90.3866655,43.2302083 90.1600011,43.1845143 89.94,43.093125 C89.7199989,43.0017357 89.5066677,42.8418067 89.3,42.6133333 L89.22,42.6133333 L89.16,43.18125 L87.65,43.0833333 L87.65,42.7308333 L88.4,42.59375 C88.4066667,42.3456932 88.4116666,42.0764251 88.415,41.7859375 C88.4183333,41.4954499 88.42,41.2425011 88.42,41.0270833 L88.42,36.8264583 L87.6,36.7285417 L87.6,36.3858333 L89.13,35.9452083 L89.27,36.0235417 L89.23,37.4139583 L89.23,39.0295833 Z M95.55,42.7308333 L95.55,43.0833333 L93.09,43.0833333 L93.09,42.7308333 L93.88,42.59375 C93.8866667,42.3261098 93.8916666,42.0633693 93.895,41.8055208 C93.8983333,41.5476723 93.9,41.2881958 93.9,41.0270833 L93.9,36.8264583 L93.08,36.7285417 L93.08,36.3858333 L94.64,35.9452083 L94.78,36.0235417 L94.74,37.4139583 L94.74,41.0270833 C94.74,41.2881958 94.7416666,41.5493043 94.745,41.8104167 C94.7483333,42.0715291 94.7533333,42.3326376 94.76,42.59375 L95.55,42.7308333 Z M98.35,38.7260417 C97.9099978,38.7260417 97.5733345,38.900658 97.34,39.2498958 C97.1066655,39.5991337 96.99,40.1066633 96.99,40.7725 C96.99,41.4318089 97.1066655,41.9328108 97.34,42.2755208 C97.5733345,42.6182309 97.9099978,42.7895833 98.35,42.7895833 C98.7833355,42.7895833 99.1166655,42.6182309 99.35,42.2755208 C99.5833345,41.9328108 99.7,41.4318089 99.7,40.7725 C99.7,40.1066633 99.5833345,39.5991337 99.35,39.2498958 C99.1166655,38.900658 98.7833355,38.7260417 98.35,38.7260417 Z M98.35,38.275625 C98.6366681,38.275625 98.9183319,38.3294786 99.195,38.4371875 C99.471668,38.5448964 99.7166656,38.7048253 99.93,38.9169792 C100.143334,39.129133 100.316666,39.3902415 100.45,39.7003125 C100.583334,40.0103835 100.65,40.3677758 100.65,40.7725 C100.65,41.1772242 100.585001,41.5329846 100.455,41.8397917 C100.324999,42.1465988 100.151668,42.4028115 99.935,42.6084375 C99.7183322,42.8140635 99.471668,42.9690967 99.195,43.0735417 C98.9183319,43.1779866 98.6366681,43.2302083 98.35,43.2302083 C98.0566652,43.2302083 97.771668,43.1779866 97.495,43.0735417 C97.2183319,42.9690967 96.9733344,42.8140635 96.76,42.6084375 C96.5466656,42.4028115 96.3750006,42.1465988 96.245,41.8397917 C96.1149993,41.5329846 96.05,41.1772242 96.05,40.7725 C96.05,40.3677758 96.1149993,40.0103835 96.245,39.7003125 C96.3750006,39.3902415 96.5483322,39.129133 96.765,38.9169792 C96.9816677,38.7048253 97.2266653,38.5448964 97.5,38.4371875 C97.7733347,38.3294786 98.0566652,38.275625 98.35,38.275625 Z M105.47,41.9670833 C105.336666,42.3783354 105.111668,42.6916656 104.795,42.9070833 C104.478332,43.1225011 104.080002,43.2302083 103.6,43.2302083 C103.259998,43.2302083 102.951668,43.1730908 102.675,43.0588542 C102.398332,42.9446175 102.161668,42.7797927 101.965,42.564375 C101.768332,42.3489573 101.618334,42.0894807 101.515,41.7859375 C101.411666,41.4823943 101.36,41.1445852 101.36,40.7725 C101.36,40.3873592 101.423333,40.0397585 101.55,39.7296875 C101.676667,39.4196165 101.848332,39.1568761 102.065,38.9414583 C102.281668,38.7260406 102.528332,38.5612158 102.805,38.4469792 C103.081668,38.3327425 103.369998,38.275625 103.67,38.275625 C103.896668,38.275625 104.111666,38.3082636 104.315,38.3735417 C104.518334,38.4388198 104.698333,38.5285758 104.855,38.6428125 C105.011667,38.7570492 105.139999,38.8908673 105.24,39.0442708 C105.34,39.1976744 105.406666,39.365763 105.44,39.5485417 C105.393333,39.7965985 105.240001,39.920625 104.98,39.920625 C104.813332,39.920625 104.69,39.8765629 104.61,39.7884375 C104.53,39.7003121 104.473333,39.587709 104.44,39.450625 L104.26,38.804375 C104.166666,38.7717359 104.073334,38.7505209 103.98,38.7407292 C103.886666,38.7309375 103.8,38.7260417 103.72,38.7260417 C103.286664,38.7260417 102.931668,38.8924983 102.655,39.2254167 C102.378332,39.558335 102.24,40.0413857 102.24,40.6745833 C102.24,41.3012531 102.388332,41.7794081 102.685,42.1090625 C102.981668,42.4387169 103.366664,42.6035417 103.84,42.6035417 C104.126668,42.6035417 104.389999,42.5382645 104.63,42.4077083 C104.870001,42.2771521 105.066666,42.0878485 105.22,41.8397917 L105.47,41.9670833 Z M110.94,42.7308333 L110.94,43.0833333 L109.58,43.0833333 L108.04,40.655 L107.37,41.3208333 C107.37,41.5297233 107.371667,41.7418739 107.375,41.9572917 C107.378333,42.1727094 107.383333,42.3848601 107.39,42.59375 L108.18,42.7308333 L108.18,43.0833333 L105.72,43.0833333 L105.72,42.7308333 L106.51,42.59375 C106.516667,42.3326376 106.521667,42.0698972 106.525,41.8055208 C106.528333,41.5411445 106.53,41.2816679 106.53,41.0270833 L106.53,36.8264583 L105.71,36.7285417 L105.71,36.3858333 L107.27,35.9452083 L107.41,36.0235417 L107.37,37.4139583 L107.37,40.7529167 L109.13,38.9610417 L108.4,38.8533333 L108.4,38.451875 L110.68,38.451875 L110.68,38.8533333 L109.72,38.980625 L108.63,40.0675 L110.28,42.6133333 L110.94,42.7308333 Z M115.13,41.9670833 C114.996666,42.3783354 114.771668,42.6916656 114.455,42.9070833 C114.138332,43.1225011 113.740002,43.2302083 113.26,43.2302083 C112.919998,43.2302083 112.611668,43.1730908 112.335,43.0588542 C112.058332,42.9446175 111.821668,42.7797927 111.625,42.564375 C111.428332,42.3489573 111.278334,42.0894807 111.175,41.7859375 C111.071666,41.4823943 111.02,41.1445852 111.02,40.7725 C111.02,40.3873592 111.083333,40.0397585 111.21,39.7296875 C111.336667,39.4196165 111.508332,39.1568761 111.725,38.9414583 C111.941668,38.7260406 112.188332,38.5612158 112.465,38.4469792 C112.741668,38.3327425 113.029998,38.275625 113.33,38.275625 C113.556668,38.275625 113.771666,38.3082636 113.975,38.3735417 C114.178334,38.4388198 114.358333,38.5285758 114.515,38.6428125 C114.671667,38.7570492 114.799999,38.8908673 114.9,39.0442708 C115,39.1976744 115.066666,39.365763 115.1,39.5485417 C115.053333,39.7965985 114.900001,39.920625 114.64,39.920625 C114.473332,39.920625 114.35,39.8765629 114.27,39.7884375 C114.19,39.7003121 114.133333,39.587709 114.1,39.450625 L113.92,38.804375 C113.826666,38.7717359 113.733334,38.7505209 113.64,38.7407292 C113.546666,38.7309375 113.46,38.7260417 113.38,38.7260417 C112.946664,38.7260417 112.591668,38.8924983 112.315,39.2254167 C112.038332,39.558335 111.9,40.0413857 111.9,40.6745833 C111.9,41.3012531 112.048332,41.7794081 112.345,42.1090625 C112.641668,42.4387169 113.026664,42.6035417 113.5,42.6035417 C113.786668,42.6035417 114.049999,42.5382645 114.29,42.4077083 C114.530001,42.2771521 114.726666,42.0878485 114.88,41.8397917 L115.13,41.9670833 Z M120.83,42.7308333 L120.83,43.0833333 L118.51,43.0833333 L118.51,42.7308333 L119.25,42.59375 C119.256667,42.352221 119.261667,42.0878487 119.265,41.800625 C119.268333,41.5134013 119.27,41.2555567 119.27,41.0270833 L119.27,40.1654167 C119.27,39.7215256 119.206667,39.4114592 119.08,39.2352083 C118.953333,39.0589575 118.743335,38.9708333 118.45,38.9708333 C118.209999,38.9708333 117.980001,39.0214231 117.76,39.1226042 C117.539999,39.2237852 117.296668,39.38861 117.03,39.6170833 L117.03,41.0270833 C117.03,41.2425011 117.031667,41.4954499 117.035,41.7859375 C117.038333,42.0764251 117.043333,42.3456932 117.05,42.59375 L117.74,42.7308333 L117.74,43.0833333 L115.42,43.0833333 L115.42,42.7308333 L116.17,42.59375 C116.176667,42.3456932 116.181667,42.0764251 116.185,41.7859375 C116.188333,41.4954499 116.19,41.2425011 116.19,41.0270833 L116.19,36.8264583 L115.37,36.7285417 L115.37,36.3858333 L116.9,35.9452083 L117.04,36.0235417 L117,37.4139583 L117,39.18625 C117.246668,38.912082 117.533332,38.6917717 117.86,38.5253125 C118.186668,38.3588533 118.509998,38.275625 118.83,38.275625 C119.263335,38.275625 119.584999,38.4159708 119.795,38.6966667 C120.005001,38.9773625 120.11,39.4408301 120.11,40.0870833 L120.11,41.0270833 C120.11,41.2555567 120.111667,41.5117694 120.115,41.7957292 C120.118333,42.0796889 120.123333,42.3456932 120.13,42.59375 L120.83,42.7308333 Z M124.18,40.5472917 C124.006666,40.5929863 123.838334,40.6419442 123.675,40.6941667 C123.511666,40.7463892 123.376667,40.7920831 123.27,40.83125 C123.049999,40.9161115 122.875001,41.0026037 122.745,41.0907292 C122.614999,41.1788546 122.516667,41.2653468 122.45,41.3502083 C122.383333,41.4350699 122.34,41.5199301 122.32,41.6047917 C122.3,41.6896532 122.29,41.7679858 122.29,41.8397917 C122.29,41.9703479 122.308333,42.0747913 122.345,42.153125 C122.381667,42.2314587 122.426666,42.2999997 122.48,42.35875 C122.633334,42.5088896 122.836665,42.5839583 123.09,42.5839583 C123.17,42.5839583 123.246666,42.5757987 123.32,42.5594792 C123.393334,42.5431596 123.47,42.5137849 123.55,42.4713542 C123.63,42.4289234 123.719999,42.3734378 123.82,42.3048958 C123.92,42.2363538 124.039999,42.1531255 124.18,42.0552083 L124.18,40.5472917 Z M125.98,42.6622917 C125.866666,42.8711816 125.743334,43.0098955 125.61,43.0784375 C125.476666,43.1469795 125.330001,43.18125 125.17,43.18125 C124.889999,43.18125 124.670001,43.1143409 124.51,42.9805208 C124.349999,42.8467007 124.246667,42.6688206 124.2,42.446875 C124.066666,42.5774312 123.943334,42.6916662 123.83,42.7895833 C123.716666,42.8875005 123.603334,42.9690969 123.49,43.034375 C123.376666,43.0996531 123.260001,43.1486109 123.14,43.18125 C123.019999,43.2138891 122.886667,43.2302083 122.74,43.2302083 C122.559999,43.2302083 122.388334,43.2040975 122.225,43.151875 C122.061666,43.0996525 121.918334,43.02132 121.795,42.916875 C121.671666,42.81243 121.575,42.6835077 121.505,42.5301042 C121.435,42.3767006 121.4,42.1988205 121.4,41.9964583 C121.4,41.8593743 121.423333,41.7255562 121.47,41.595 C121.516667,41.4644438 121.599999,41.3387853 121.72,41.2180208 C121.840001,41.0972563 122.008332,40.9764937 122.225,40.8557292 C122.441668,40.7349647 122.719998,40.6158339 123.06,40.4983333 C123.213334,40.4461109 123.388332,40.3922572 123.585,40.3367708 C123.781668,40.2812844 123.979999,40.2274308 124.18,40.1752083 L124.18,39.9108333 C124.18,39.6758322 124.161667,39.4816327 124.125,39.3282292 C124.088333,39.1748256 124.033334,39.0540629 123.96,38.9659375 C123.886666,38.8778121 123.791667,38.8157988 123.675,38.7798958 C123.558333,38.7439929 123.416667,38.7260417 123.25,38.7260417 C123.176666,38.7260417 123.098334,38.7293055 123.015,38.7358333 C122.931666,38.7423611 122.84,38.7554166 122.74,38.775 L122.54,39.4604167 C122.446666,39.7737516 122.266668,39.9304167 122,39.9304167 C121.859999,39.9304167 121.75,39.8928823 121.67,39.8178125 C121.59,39.7427427 121.543333,39.6399312 121.53,39.509375 C121.623334,39.1372898 121.843332,38.838647 122.19,38.6134375 C122.536668,38.388228 122.966664,38.275625 123.48,38.275625 C124.006669,38.275625 124.396665,38.4061793 124.65,38.6672917 C124.903335,38.9284041 125.03,39.3722885 125.03,39.9989583 L125.03,42.094375 C125.03,42.4795158 125.139999,42.6720833 125.36,42.6720833 C125.44,42.6720833 125.51,42.6541321 125.57,42.6182292 C125.63,42.5823262 125.683333,42.5447919 125.73,42.505625 L125.78,42.446875 L125.98,42.6622917 Z M127.37,37.2279167 C127.176666,37.2279167 127.016667,37.1691673 126.89,37.0516667 C126.763333,36.9341661 126.7,36.7807648 126.7,36.5914583 C126.7,36.4021518 126.763333,36.2503825 126.89,36.1361458 C127.016667,36.0219092 127.176666,35.9647917 127.37,35.9647917 C127.563334,35.9647917 127.723333,36.0219092 127.85,36.1361458 C127.976667,36.2503825 128.04,36.4021518 128.04,36.5914583 C128.04,36.7807648 127.976667,36.9341661 127.85,37.0516667 C127.723333,37.1691673 127.563334,37.2279167 127.37,37.2279167 Z M128.51,42.7308333 L128.51,43.0833333 L126.19,43.0833333 L126.19,42.7308333 L126.94,42.59375 C126.946667,42.3456932 126.951667,42.0764251 126.955,41.7859375 C126.958333,41.4954499 126.96,41.2425011 126.96,41.0270833 L126.96,40.5375 C126.96,40.2698598 126.956667,40.0462856 126.95,39.8667708 C126.943333,39.687256 126.936667,39.4995843 126.93,39.30375 L126.14,39.215625 L126.14,38.8729167 L127.68,38.275625 L127.83,38.3735417 L127.8,39.7052083 L127.8,41.0270833 C127.8,41.2425011 127.801667,41.4954499 127.805,41.7859375 C127.808333,42.0764251 127.813333,42.3456932 127.82,42.59375 L128.51,42.7308333 Z M134.39,42.7308333 L134.39,43.0833333 L132.07,43.0833333 L132.07,42.7308333 L132.81,42.59375 C132.816667,42.352221 132.821667,42.0878487 132.825,41.800625 C132.828333,41.5134013 132.83,41.2555567 132.83,41.0270833 L132.83,40.1654167 C132.83,39.7215256 132.766667,39.4114592 132.64,39.2352083 C132.513333,39.0589575 132.303335,38.9708333 132.01,38.9708333 C131.776665,38.9708333 131.551668,39.0197912 131.335,39.1177083 C131.118332,39.2156255 130.883335,39.3722906 130.63,39.5877083 L130.63,41.0270833 C130.63,41.2425011 130.631667,41.4954499 130.635,41.7859375 C130.638333,42.0764251 130.643333,42.3456932 130.65,42.59375 L131.35,42.7308333 L131.35,43.0833333 L129.03,43.0833333 L129.03,42.7308333 L129.77,42.59375 C129.776667,42.3456932 129.781667,42.078057 129.785,41.7908333 C129.788333,41.5036097 129.79,41.2490289 129.79,41.0270833 L129.79,40.5277083 C129.79,40.2600681 129.786667,40.0381259 129.78,39.861875 C129.773333,39.6856241 129.766667,39.4995843 129.76,39.30375 L128.97,39.215625 L128.97,38.8729167 L130.36,38.275625 L130.51,38.3735417 L130.59,39.1666667 C130.836668,38.8990264 131.118332,38.6836119 131.435,38.5204167 C131.751668,38.3572214 132.069998,38.275625 132.39,38.275625 C132.823335,38.275625 133.144999,38.4159708 133.355,38.6966667 C133.565001,38.9773625 133.67,39.4408301 133.67,40.0870833 L133.67,41.0270833 C133.67,41.2555567 133.671667,41.5117694 133.675,41.7957292 C133.678333,42.0796889 133.683333,42.3456932 133.69,42.59375 L134.39,42.7308333 Z M139.2,40.3710417 C139.706669,40.5538204 140.061666,40.7643391 140.265,41.0026042 C140.468334,41.2408692 140.57,41.5134012 140.57,41.8202083 C140.57,42.002987 140.53,42.1792353 140.45,42.3489583 C140.37,42.5186814 140.248334,42.6688188 140.085,42.799375 C139.921666,42.9299312 139.718334,43.0343746 139.475,43.1127083 C139.231665,43.1910421 138.950002,43.2302083 138.63,43.2302083 C138.343332,43.2302083 138.085001,43.1992017 137.855,43.1371875 C137.624999,43.0751733 137.383335,42.9788895 137.13,42.8483333 L137.1,41.7810417 L137.65,41.7810417 L137.84,42.623125 C138.073334,42.72757 138.343332,42.7797917 138.65,42.7797917 C139.030002,42.7797917 139.313332,42.7112507 139.5,42.5741667 C139.686668,42.4370826 139.78,42.2543067 139.78,42.0258333 C139.78,41.8169434 139.701667,41.6504867 139.545,41.5264583 C139.388332,41.4024299 139.150002,41.2816673 138.83,41.1641667 L138.37,40.9977083 C138.003331,40.8671521 137.710001,40.6957997 137.49,40.4836458 C137.269999,40.271492 137.16,40.0087516 137.16,39.6954167 C137.16,39.5061102 137.201666,39.3265981 137.285,39.156875 C137.368334,38.9871519 137.484999,38.8370145 137.635,38.7064583 C137.785001,38.5759021 137.968332,38.4714587 138.185,38.393125 C138.401668,38.3147913 138.643332,38.275625 138.91,38.275625 C139.183335,38.275625 139.429999,38.3098955 139.65,38.3784375 C139.870001,38.4469795 140.089999,38.5465271 140.31,38.6770833 L140.27,39.6758333 L139.75,39.6758333 L139.6,38.8925 C139.359999,38.7815272 139.126668,38.7260417 138.9,38.7260417 C138.593332,38.7260417 138.361667,38.7896869 138.205,38.9169792 C138.048332,39.0442715 137.97,39.2188878 137.97,39.4408333 C137.97,39.6366676 138.038333,39.7917008 138.175,39.9059375 C138.311667,40.0201742 138.553332,40.1393049 138.9,40.2633333 L139.2,40.3710417 Z M144,42.6622917 C143.873333,42.8254869 143.708334,42.9527773 143.505,43.0441667 C143.301666,43.135556 143.073335,43.18125 142.82,43.18125 C142.466665,43.18125 142.188334,43.091494 141.985,42.9119792 C141.781666,42.7324644 141.68,42.4501408 141.68,42.065 C141.68,41.9409716 141.681667,41.818577 141.685,41.6978125 C141.688333,41.577048 141.69,41.4220148 141.69,41.2327083 L141.69,38.9708333 L140.86,38.9708333 L140.86,38.54 L141.75,38.4322917 L142,37.100625 L142.61,37.100625 L142.56,38.451875 L143.9,38.451875 L143.9,38.9708333 L142.54,38.9708333 L142.54,41.9475 C142.54,42.2020846 142.588333,42.3864925 142.685,42.5007292 C142.781667,42.6149658 142.916666,42.6720833 143.09,42.6720833 C143.290001,42.6720833 143.513332,42.5806954 143.76,42.3979167 L144,42.6622917 Z M147.07,40.5472917 C146.896666,40.5929863 146.728334,40.6419442 146.565,40.6941667 C146.401666,40.7463892 146.266667,40.7920831 146.16,40.83125 C145.939999,40.9161115 145.765001,41.0026037 145.635,41.0907292 C145.504999,41.1788546 145.406667,41.2653468 145.34,41.3502083 C145.273333,41.4350699 145.23,41.5199301 145.21,41.6047917 C145.19,41.6896532 145.18,41.7679858 145.18,41.8397917 C145.18,41.9703479 145.198333,42.0747913 145.235,42.153125 C145.271667,42.2314587 145.316666,42.2999997 145.37,42.35875 C145.523334,42.5088896 145.726665,42.5839583 145.98,42.5839583 C146.06,42.5839583 146.136666,42.5757987 146.21,42.5594792 C146.283334,42.5431596 146.36,42.5137849 146.44,42.4713542 C146.52,42.4289234 146.609999,42.3734378 146.71,42.3048958 C146.81,42.2363538 146.929999,42.1531255 147.07,42.0552083 L147.07,40.5472917 Z M148.87,42.6622917 C148.756666,42.8711816 148.633334,43.0098955 148.5,43.0784375 C148.366666,43.1469795 148.220001,43.18125 148.06,43.18125 C147.779999,43.18125 147.560001,43.1143409 147.4,42.9805208 C147.239999,42.8467007 147.136667,42.6688206 147.09,42.446875 C146.956666,42.5774312 146.833334,42.6916662 146.72,42.7895833 C146.606666,42.8875005 146.493334,42.9690969 146.38,43.034375 C146.266666,43.0996531 146.150001,43.1486109 146.03,43.18125 C145.909999,43.2138891 145.776667,43.2302083 145.63,43.2302083 C145.449999,43.2302083 145.278334,43.2040975 145.115,43.151875 C144.951666,43.0996525 144.808334,43.02132 144.685,42.916875 C144.561666,42.81243 144.465,42.6835077 144.395,42.5301042 C144.325,42.3767006 144.29,42.1988205 144.29,41.9964583 C144.29,41.8593743 144.313333,41.7255562 144.36,41.595 C144.406667,41.4644438 144.489999,41.3387853 144.61,41.2180208 C144.730001,41.0972563 144.898332,40.9764937 145.115,40.8557292 C145.331668,40.7349647 145.609998,40.6158339 145.95,40.4983333 C146.103334,40.4461109 146.278332,40.3922572 146.475,40.3367708 C146.671668,40.2812844 146.869999,40.2274308 147.07,40.1752083 L147.07,39.9108333 C147.07,39.6758322 147.051667,39.4816327 147.015,39.3282292 C146.978333,39.1748256 146.923334,39.0540629 146.85,38.9659375 C146.776666,38.8778121 146.681667,38.8157988 146.565,38.7798958 C146.448333,38.7439929 146.306667,38.7260417 146.14,38.7260417 C146.066666,38.7260417 145.988334,38.7293055 145.905,38.7358333 C145.821666,38.7423611 145.73,38.7554166 145.63,38.775 L145.43,39.4604167 C145.336666,39.7737516 145.156668,39.9304167 144.89,39.9304167 C144.749999,39.9304167 144.64,39.8928823 144.56,39.8178125 C144.48,39.7427427 144.433333,39.6399312 144.42,39.509375 C144.513334,39.1372898 144.733332,38.838647 145.08,38.6134375 C145.426668,38.388228 145.856664,38.275625 146.37,38.275625 C146.896669,38.275625 147.286665,38.4061793 147.54,38.6672917 C147.793335,38.9284041 147.92,39.3722885 147.92,39.9989583 L147.92,42.094375 C147.92,42.4795158 148.029999,42.6720833 148.25,42.6720833 C148.33,42.6720833 148.4,42.6541321 148.46,42.6182292 C148.52,42.5823262 148.573333,42.5447919 148.62,42.505625 L148.67,42.446875 L148.87,42.6622917 Z M150.68,39.5191667 C150.853334,39.127498 151.068332,38.8223275 151.325,38.6036458 C151.581668,38.3849642 151.846665,38.275625 152.12,38.275625 C152.266667,38.275625 152.408333,38.3131593 152.545,38.3882292 C152.681667,38.463299 152.766666,38.5856936 152.8,38.7554167 C152.8,38.9186119 152.743334,39.0475342 152.63,39.1421875 C152.516666,39.2368408 152.373334,39.2841667 152.2,39.2841667 C151.993332,39.2841667 151.803334,39.2025703 151.63,39.039375 L151.56,38.9708333 C151.353332,39.120973 151.180001,39.2988531 151.04,39.5044792 C150.899999,39.7101052 150.783334,39.9597902 150.69,40.2535417 L150.69,41.0270833 C150.69,41.2425011 150.691667,41.493818 150.695,41.7810417 C150.698333,42.0682653 150.703333,42.3359015 150.71,42.5839583 L151.53,42.7308333 L151.53,43.0833333 L149.11,43.0833333 L149.11,42.7308333 L149.83,42.6035417 C149.836667,42.3554849 149.841667,42.0862167 149.845,41.7957292 C149.848333,41.5052416 149.85,41.2490289 149.85,41.0270833 L149.85,40.5277083 C149.85,40.2600681 149.846667,40.0381259 149.84,39.861875 C149.833333,39.6856241 149.826667,39.4995843 149.82,39.30375 L149.03,39.215625 L149.03,38.8729167 L150.42,38.275625 L150.57,38.3735417 L150.68,39.5191667 Z M156.12,42.6622917 C155.993333,42.8254869 155.828334,42.9527773 155.625,43.0441667 C155.421666,43.135556 155.193335,43.18125 154.94,43.18125 C154.586665,43.18125 154.308334,43.091494 154.105,42.9119792 C153.901666,42.7324644 153.8,42.4501408 153.8,42.065 C153.8,41.9409716 153.801667,41.818577 153.805,41.6978125 C153.808333,41.577048 153.81,41.4220148 153.81,41.2327083 L153.81,38.9708333 L152.98,38.9708333 L152.98,38.54 L153.87,38.4322917 L154.12,37.100625 L154.73,37.100625 L154.68,38.451875 L156.02,38.451875 L156.02,38.9708333 L154.66,38.9708333 L154.66,41.9475 C154.66,42.2020846 154.708333,42.3864925 154.805,42.5007292 C154.901667,42.6149658 155.036666,42.6720833 155.21,42.6720833 C155.410001,42.6720833 155.633332,42.5806954 155.88,42.3979167 L156.12,42.6622917 Z M161.45,42.7308333 L161.45,43.0833333 L160.06,43.18125 L159.95,42.3097917 C159.676665,42.6361822 159.390001,42.8711798 159.09,43.0147917 C158.789998,43.1584035 158.486668,43.2302083 158.18,43.2302083 C157.979999,43.2302083 157.798334,43.1992017 157.635,43.1371875 C157.471666,43.0751733 157.333334,42.9739938 157.22,42.8336458 C157.106666,42.6932979 157.021667,42.5121539 156.965,42.2902083 C156.908333,42.0682628 156.88,41.7940989 156.88,41.4677083 L156.91,39.0002083 L156.2,38.8533333 L156.2,38.510625 L157.67,38.3735417 L157.77,38.4714583 L157.72,39.8422917 L157.72,41.36 C157.72,41.7973633 157.784999,42.1025339 157.915,42.2755208 C158.045001,42.4485078 158.246665,42.535 158.52,42.535 C158.986669,42.535 159.453331,42.3228493 159.92,41.8985417 L159.95,39.0002083 L159.24,38.8533333 L159.24,38.510625 L160.69,38.3735417 L160.79,38.4714583 L160.76,39.8422917 L160.76,42.5839583 L161.45,42.7308333 Z M163.51,42.1727083 C163.876668,42.5056267 164.246665,42.6720833 164.62,42.6720833 C164.806668,42.6720833 164.981666,42.6329171 165.145,42.5545833 C165.308334,42.4762496 165.451666,42.3587508 165.575,42.2020833 C165.698334,42.0454159 165.795,41.8495845 165.865,41.6145833 C165.935,41.3795822 165.97,41.1054182 165.97,40.7920833 C165.97,40.1588857 165.853334,39.6742031 165.62,39.3380208 C165.386665,39.0018386 165.086668,38.83375 164.72,38.83375 C164.566666,38.83375 164.390001,38.8712843 164.19,38.9463542 C163.989999,39.021424 163.763335,39.1634017 163.51,39.3722917 L163.51,42.1727083 Z M163.45,39.01 C163.910002,38.5204142 164.413331,38.275625 164.96,38.275625 C165.226668,38.275625 165.476665,38.3311106 165.71,38.4420833 C165.943334,38.5530561 166.144999,38.714617 166.315,38.9267708 C166.485001,39.1389247 166.619999,39.3951374 166.72,39.6954167 C166.82,39.9956959 166.87,40.335137 166.87,40.71375 C166.87,41.092363 166.818334,41.4366998 166.715,41.7467708 C166.611666,42.0568418 166.468334,42.3212142 166.285,42.5398958 C166.101666,42.7585775 165.883335,42.928298 165.63,43.0490625 C165.376665,43.169827 165.103335,43.2302083 164.81,43.2302083 C164.576665,43.2302083 164.350001,43.1845143 164.13,43.093125 C163.909999,43.0017357 163.693334,42.835279 163.48,42.59375 L163.48,43.3575 C163.48,43.6120846 163.481667,43.8715612 163.485,44.1359375 C163.488333,44.4003138 163.493333,44.6630543 163.5,44.9241667 L164.41,45.0710417 L164.41,45.41375 L161.84,45.41375 L161.84,45.0710417 L162.64,44.9339583 C162.646667,44.6663181 162.651667,44.4019458 162.655,44.1408333 C162.658333,43.8797209 162.66,43.6186124 162.66,43.3575 L162.66,40.5277083 C162.66,40.2600681 162.656667,40.0381259 162.65,39.861875 C162.643333,39.6856241 162.636667,39.4995843 162.63,39.30375 L161.85,39.215625 L161.85,38.8729167 L163.24,38.275625 L163.39,38.3735417 L163.45,39.01 Z M169.7,40.3710417 C170.206669,40.5538204 170.561666,40.7643391 170.765,41.0026042 C170.968334,41.2408692 171.07,41.5134012 171.07,41.8202083 C171.07,42.002987 171.03,42.1792353 170.95,42.3489583 C170.87,42.5186814 170.748334,42.6688188 170.585,42.799375 C170.421666,42.9299312 170.218334,43.0343746 169.975,43.1127083 C169.731665,43.1910421 169.450002,43.2302083 169.13,43.2302083 C168.843332,43.2302083 168.585001,43.1992017 168.355,43.1371875 C168.124999,43.0751733 167.883335,42.9788895 167.63,42.8483333 L167.6,41.7810417 L168.15,41.7810417 L168.34,42.623125 C168.573334,42.72757 168.843332,42.7797917 169.15,42.7797917 C169.530002,42.7797917 169.813332,42.7112507 170,42.5741667 C170.186668,42.4370826 170.28,42.2543067 170.28,42.0258333 C170.28,41.8169434 170.201667,41.6504867 170.045,41.5264583 C169.888332,41.4024299 169.650002,41.2816673 169.33,41.1641667 L168.87,40.9977083 C168.503331,40.8671521 168.210001,40.6957997 167.99,40.4836458 C167.769999,40.271492 167.66,40.0087516 167.66,39.6954167 C167.66,39.5061102 167.701666,39.3265981 167.785,39.156875 C167.868334,38.9871519 167.984999,38.8370145 168.135,38.7064583 C168.285001,38.5759021 168.468332,38.4714587 168.685,38.393125 C168.901668,38.3147913 169.143332,38.275625 169.41,38.275625 C169.683335,38.275625 169.929999,38.3098955 170.15,38.3784375 C170.370001,38.4469795 170.589999,38.5465271 170.81,38.6770833 L170.77,39.6758333 L170.25,39.6758333 L170.1,38.8925 C169.859999,38.7815272 169.626668,38.7260417 169.4,38.7260417 C169.093332,38.7260417 168.861667,38.7896869 168.705,38.9169792 C168.548332,39.0442715 168.47,39.2188878 168.47,39.4408333 C168.47,39.6366676 168.538333,39.7917008 168.675,39.9059375 C168.811667,40.0201742 169.053332,40.1393049 169.4,40.2633333 L169.7,40.3710417 Z" id="We-launch-blockchain" fill="#A99260"></path>
                    <path d="M32.017264,40.6911663 C30.9973107,39.3437928 29.0469362,39.0528186 27.6550135,40.041517 C26.2646053,41.0288304 25.9625745,42.9129445 26.9791413,44.2558443 C27.9990504,45.6031593 29.9580395,45.8952368 31.3504908,44.9064727 C32.7384554,43.9208946 33.0356258,42.0364372 32.017264,40.6911663 Z M32.8206358,40.1080943 C34.170418,41.8911766 33.7757559,44.3938617 31.9375629,45.699142 C30.1019013,47.0026248 27.5225675,46.6180564 26.1757695,44.8389163 C24.8271124,43.0573203 25.2282086,40.5552214 27.0678811,39.2488905 C28.9030131,37.9453755 31.4738035,38.3289089 32.8206358,40.1080943 Z" id="Shape" fill="#A99260" fill-rule="nonzero" transform="translate(29.499824, 42.473823) rotate(-90.000000) translate(-29.499824, -42.473823) "></path>
                    <path d="M16.7593654,41.2306128 C16.7593654,39.5639468 15.3673619,38.2157586 13.6410357,38.2157586 C11.9129909,38.2157586 10.5161346,39.5651288 10.5161346,41.2306128 C10.5161346,42.8975887 11.9145243,44.2518316 13.6410357,44.2518316 C15.3658315,44.2518316 16.7593654,42.898773 16.7593654,41.2306128 Z M17.7593654,41.2306128 C17.7593654,43.4414064 15.9162398,45.2309982 13.6410357,45.2309982 C11.3646925,45.2309982 9.51613462,43.4407988 9.51613462,41.2306128 C9.51613462,39.0213617 11.3637128,37.236592 13.6410357,37.236592 C15.917215,37.236592 17.7593654,39.020758 17.7593654,41.2306128 Z" id="Shape" fill="#A99260" fill-rule="nonzero" transform="translate(13.637750, 41.233795) rotate(-90.000000) translate(-13.637750, -41.233795) "></path>
                    <path d="M32.6163654,4.93593882 C32.6163654,3.2689631 31.2245473,1.92108465 29.4980357,1.92108465 C27.7699909,1.92108465 26.3731346,3.27045485 26.3731346,4.93593882 C26.3731346,6.60291468 27.7715243,7.95715757 29.4980357,7.95715757 C31.2228315,7.95715757 32.6163654,6.60409898 32.6163654,4.93593882 Z M33.6163654,4.93593882 C33.6163654,7.14673237 31.7732398,8.93632423 29.4980357,8.93632423 C27.2216925,8.93632423 25.3731346,7.14612482 25.3731346,4.93593882 C25.3731346,2.72668771 27.2207128,0.941917983 29.4980357,0.941917983 C31.774379,0.941917983 33.6163654,2.7257529 33.6163654,4.93593882 Z" id="Shape" fill="#A99260" fill-rule="nonzero" transform="translate(29.494750, 4.939121) rotate(-90.000000) translate(-29.494750, -4.939121) "></path>
                    <path d="M8.17736538,23.7440519 C8.17736538,22.0773859 6.78536192,20.7291977 5.05903571,20.7291977 C3.33099095,20.7291977 1.93413462,22.0785679 1.93413462,23.7440519 C1.93413462,25.4110278 3.33252428,26.7652707 5.05903571,26.7652707 C6.78383149,26.7652707 8.17736538,25.4122121 8.17736538,23.7440519 Z M9.17736538,23.7440519 C9.17736538,25.9548455 7.33423977,27.7444373 5.05903571,27.7444373 C2.7826925,27.7444373 0.934134615,25.9542379 0.934134615,23.7440519 C0.934134615,21.5348008 2.78171276,19.7500311 5.05903571,19.7500311 C7.335215,19.7500311 9.17736538,21.5341971 9.17736538,23.7440519 Z" id="Shape" fill="#A99260" fill-rule="nonzero" transform="translate(5.055750, 23.747234) rotate(-90.000000) translate(-5.055750, -23.747234) "></path>
                    <path d="M35.2403297,23.7420963 C35.2403297,20.6738226 32.6791893,18.1931588 29.5060659,18.1931588 C26.3296779,18.1931588 23.7596703,20.6760109 23.7596703,23.7420963 C23.7596703,26.8105089 26.3320755,29.3018046 29.5060659,29.3018046 C32.6767964,29.3018046 35.2403297,26.8127012 35.2403297,23.7420963 Z M36.2403297,23.7420963 C36.2403297,27.3553321 33.2272072,30.2809713 29.5060659,30.2809713 C25.7822347,30.2809713 22.7596703,27.3537101 22.7596703,23.7420963 C22.7596703,20.1322628 25.7803809,17.2139921 29.5060659,17.2139921 C33.2290548,17.2139921 36.2403297,20.1306462 36.2403297,23.7420963 Z" id="Shape" fill="#A99260" fill-rule="nonzero" transform="translate(29.500000, 23.747482) rotate(-90.000000) translate(-29.500000, -23.747482) "></path>
                    <polygon id="Shape" fill="#A99260" fill-rule="nonzero" transform="translate(29.497250, 34.394391) rotate(-90.000000) translate(-29.497250, -34.394391) " points="34.1300631 33.9021153 24.8638433 33.9075007 24.8644369 34.8866672 34.1306567 34.8812818"></polygon>
                    <polygon id="Shape" fill="#A99260" fill-rule="nonzero" transform="translate(15.982750, 23.742780) rotate(-90.000000) translate(-15.982750, -23.742780) " points="16.4840137 30.9344297 16.4814863 16.5509609 15.4814863 16.5511294 15.4840137 30.9345981"></polygon>
                    <polygon id="Shape" fill="#A99260" fill-rule="nonzero" transform="translate(29.493000, 13.061223) rotate(-90.000000) translate(-29.493000, -13.061223) " points="24.8198638 13.5522746 34.1664572 13.5493371 34.1661362 12.5701705 24.8195428 12.573108"></polygon>
                    <polygon id="Shape" fill="#A99260" fill-rule="nonzero" transform="translate(21.236750, 14.135293) rotate(-90.000000) translate(-21.236750, -14.135293) " points="16.8569281 19.0656317 26.3197852 9.90112126 25.6165719 9.2049544 16.1537148 18.3694648"></polygon>
                    <path d="M16.7593654,7.16426391 C16.7593654,5.49759788 15.3673619,4.14940974 13.6410357,4.14940974 C11.9129909,4.14940974 10.5161346,5.49877994 10.5161346,7.16426391 C10.5161346,8.83123977 11.9145243,10.1854827 13.6410357,10.1854827 C15.3658315,10.1854827 16.7593654,8.83242408 16.7593654,7.16426391 Z M17.7593654,7.16426391 C17.7593654,9.37505746 15.9162398,11.1646493 13.6410357,11.1646493 C11.3646925,11.1646493 9.51613462,9.37444991 9.51613462,7.16426391 C9.51613462,4.9550128 11.3637128,3.17024307 13.6410357,3.17024307 C15.917215,3.17024307 17.7593654,4.9544091 17.7593654,7.16426391 Z" id="Shape" fill="#A99260" fill-rule="nonzero" transform="translate(13.637750, 7.167446) rotate(-90.000000) translate(-13.637750, -7.167446) "></path>
                    <polygon id="Shape" fill="#A99260" fill-rule="nonzero" transform="translate(20.994750, 33.583641) rotate(-90.000000) translate(-20.994750, -33.583641) " points="26.3181574 38.0508639 16.3745749 28.4202701 15.6713426 29.1164186 25.6149251 38.7470124"></polygon>
                </g>
            </g>
        </g>
    </g>
</svg>