<svg xmlns="http://www.w3.org/2000/svg" width="157.333" height="29.375" viewBox="0 0 157.333 29.375"><g fill-rule="evenodd" clip-rule="evenodd" fill="#809CD0"><path d="M27.236 9.334c.44 0 .79.14 1.06.39.24.28.38.63.38 1.05 0 .56-.2 1.05-.65 1.5-.45.46-.93.7-1.52.7-.41 0-.79-.14-1.06-.42-.28-.28-.41-.63-.41-1.05 0-.56.24-1.05.68-1.5.45-.46.97-.67 1.52-.67zm-5.4 19.47l2.71-13.06 2.96-.94-2.96 14h-2.71zM35.386 28.804l1.85-9.07c.04-.24.07-.49.07-.728 0-1.33-.75-1.96-2.23-1.93-.86.04-1.76.32-2.75.84l-2.24 10.89h-2.72l2.41-11.48c1.55-.98 2.85-1.61 3.92-1.93 1-.24 1.89-.38 2.68-.38.522 0 1 .07 1.45.17 1.65.35 2.47 1.3 2.47 2.77 0 .24-.03.49-.06.73l-2.14 10.12h-2.71zM44.7 29.194c-1.51 0-2.89-.56-4.09-1.72l1.438-1.75c.86.88 1.89 1.3 3.1 1.3.72 0 1.37-.18 1.96-.49.58-.35.93-.84 1.062-1.44.07-.49-.06-.87-.41-1.15-.17-.14-.55-.318-1.13-.56-.21-.14-.59-.28-1.07-.53-1-.42-1.65-.77-1.99-1.02-.62-.52-.93-1.15-.93-1.92 0-.25.03-.53.1-.84.27-1.3.96-2.35 2.1-3.12 1.03-.7 2.2-1.05 3.47-1.05 1.17 0 2.41.46 3.75 1.33l-1.44 1.82c-.97-.66-1.9-.98-2.72-.98-.62 0-1.17.18-1.648.46-.48.31-.79.73-.9 1.26-.1.49.14.87.66 1.15.31.18.99.49 2.06.95 1 .42 1.69.8 2.1 1.16.52.52.79 1.15.79 1.92 0 .28 0 .6-.07.88-.31 1.4-1.13 2.48-2.44 3.29-1.142.7-2.372 1.05-3.753 1.05zM53.57 25.444l1.72-8.12h-1.41l.42-2h1.44l.72-3.54 2.93-.98-.97 4.52h2.27l-.44 2h-2.24l-1.72 8.09c-.07.24-.1.45-.1.632 0 .45.17.77.48.91.31.17.83.28 1.55.31l-.38 1.72h-.79c-2.37 0-3.54-.88-3.54-2.66 0-.28 0-.562.06-.882zM66.2 9.334c.44 0 .79.14 1.03.39.27.28.41.63.41 1.05 0 .56-.24 1.05-.65 1.5-.45.46-.96.7-1.51.7-.45 0-.8-.14-1.07-.42-.28-.28-.41-.63-.41-1.05 0-.56.24-1.05.68-1.5.45-.46.97-.67 1.52-.67zm-5.4 19.47l2.71-13.06 2.96-.94-2.96 14H60.8zM74.35 28.804l1.79-9.07c.06-.24.1-.49.1-.728 0-1.33-.76-1.96-2.24-1.93-.82.04-1.75.32-2.71.84l-2.24 10.89H66.3l2.44-11.48c1.55-.98 2.86-1.61 3.92-1.93 1-.24 1.89-.38 2.65-.38.52 0 1 .07 1.44.17 1.66.35 2.48 1.3 2.48 2.77 0 .24-.03.49-.102.73l-2.1 10.12H74.35zM84.28 29.085c-1.37 0-2.4-.52-3.16-1.54-.65-.94-1-2.1-1-3.53 0-1.54.42-3.05 1.21-4.59.82-1.51 1.89-2.66 3.158-3.47 1-.63 2.06-.94 3.27-.94 1.34 0 2.54.42 3.642 1.22l-1.23 1.65c-1.102-.6-2.102-.84-3-.81-1.17.11-2.2.91-3.09 2.45-.79 1.37-1.21 2.7-1.21 4.028 0 .98.21 1.75.59 2.38.45.67 1.07 1.02 1.89 1.02.83.03 2.13-.35 3.82-1.09l.45 1.682c-1.86 1.02-3.62 1.54-5.34 1.54zM92.52 25.444l1.72-8.12h-1.41l.42-2h1.44l.72-3.54 2.93-.98-.97 4.52h2.27l-.44 2h-2.24l-1.72 8.09c-.07.24-.07.45-.07.632 0 .45.14.77.45.91.31.17.82.28 1.55.31l-.35 1.72H96c-2.38 0-3.55-.88-3.55-2.66 0-.28 0-.562.07-.882zM107.15 17.185c-2.17.14-3.54 1.68-4.2 4.65-.17.74-.24 1.41-.24 2.04 0 2.13.79 3.18 2.37 3.18 2.1-.03 3.55-1.78 4.3-5.18.14-.6.21-1.16.21-1.65 0-1.96-.83-2.97-2.44-3.04zm-2.55 11.83c-1.58-.03-2.82-.56-3.64-1.57-.76-.91-1.142-2.14-1.142-3.68 0-.66.07-1.33.21-1.96.41-1.86 1.27-3.43 2.61-4.76 1.45-1.37 3.1-2.07 4.96-2.03 1.54 0 2.75.49 3.61 1.47.79.94 1.2 2.13 1.2 3.6 0 2.25-.76 4.28-2.2 6.06-1.58 1.93-3.438 2.87-5.608 2.87zM121.17 17.185c-2.13.14-3.54 1.68-4.19 4.65-.14.74-.21 1.41-.21 2.04 0 2.13.79 3.18 2.34 3.18 2.13-.03 3.58-1.78 4.3-5.18.14-.6.2-1.16.2-1.65 0-1.96-.792-2.97-2.44-3.04zm-2.51 11.83c-1.62-.03-2.82-.56-3.68-1.57-.72-.91-1.102-2.14-1.102-3.68 0-.66.07-1.33.21-1.96.38-1.86 1.27-3.43 2.61-4.76 1.45-1.37 3.1-2.07 4.95-2.03 1.55 0 2.72.49 3.58 1.47.83.94 1.2 2.13 1.2 3.6 0 2.25-.72 4.28-2.2 6.06-1.54 1.93-3.398 2.87-5.568 2.87zM127.768 25.375l3.54-16.98 2.79-.84-3.72 17.86c-.03.24-.03.45-.03.63 0 .42.13.73.48.91.27.17.75.24 1.44.28l-.38 1.71h-.82c-2.27 0-3.41-.87-3.41-2.62-.002-.32.04-.6.11-.95zM138.054 29.194c-1.51 0-2.88-.56-4.09-1.72l1.48-1.75c.86.88 1.86 1.3 3.06 1.3.72 0 1.38-.18 1.96-.49.59-.35.93-.84 1.07-1.44.07-.49-.07-.87-.41-1.15-.18-.14-.55-.318-1.1-.56-.25-.14-.62-.28-1.11-.53-.96-.42-1.65-.77-1.99-1.02-.62-.52-.89-1.15-.89-1.92 0-.25.03-.53.06-.84.28-1.3 1-2.35 2.14-3.12 1.03-.7 2.16-1.05 3.44-1.05 1.17 0 2.4.46 3.75 1.33l-1.45 1.82c-.96-.66-1.86-.98-2.72-.98-.58 0-1.13.18-1.65.46-.48.31-.79.73-.89 1.26-.1.49.14.87.69 1.15.27.18.96.49 2.03.95.99.42 1.68.8 2.09 1.16.55.52.83 1.15.83 1.92 0 .28-.04.6-.1.88-.31 1.4-1.14 2.48-2.45 3.29-1.13.7-2.37 1.05-3.75 1.05zM150.65 6.194h-2c-.278 0-.5.224-.5.5s.222.5.5.5h.5v3.5c0 .276.222.5.5.5.274 0 .5-.224.5-.5v-3.5h.5c.274 0 .5-.224.5-.5s-.225-.5-.5-.5zm4 3.328c.25 0 .378-.173.378-.173l1.12-1.307v2.65c0 .276.224.5.5.5s.5-.224.5-.5v-4c0-.21-.13-.396-.325-.47-.197-.072-.418-.015-.555.145l-1.62 1.888-1.62-1.888c-.137-.16-.357-.217-.553-.144-.197.072-.326.26-.326.47v4c0 .275.222.5.5.5.274 0 .5-.225.5-.5v-2.65l1.118 1.306s.163.172.38.172z"/></g><path fill-rule="evenodd" clip-rule="evenodd" fill="#F00" d="M21.068 7.603l-2.532-4.3-5.44 3.206V.193h-4.99V6.51l-5.44-3.206-2.533 4.3 5.553 3.27-5.553 3.272 2.533 4.298 5.44-3.205v6.314h4.99V15.24l5.44 3.204 2.532-4.298-5.552-3.272"/></svg>