<?xml version="1.0" encoding="UTF-8"?>
<svg width="174px" height="175px" viewBox="0 0 174 175" version="1.1" xmlns="http://www.w3.org/2000/svg" xmlns:xlink="http://www.w3.org/1999/xlink">
    <!-- Generator: Sketch 45.2 (43514) - http://www.bohemiancoding.com/sketch -->
    <title>flaticon1499834490-svg</title>
    <desc>Created with Sketch.</desc>
    <defs>
        <linearGradient x1="50%" y1="0%" x2="50%" y2="100%" id="linearGradient-1">
            <stop stop-color="#00DEB3" offset="0%"></stop>
            <stop stop-color="#00B4F6" offset="100%"></stop>
        </linearGradient>
    </defs>
    <g id="Page-1" stroke="none" stroke-width="1" fill="none" fill-rule="evenodd">
        <g id="LANDING" transform="translate(-145.000000, -4424.000000)" fill-rule="nonzero" fill="url(#linearGradient-1)">
            <g id="watch" transform="translate(-423.000000, 4185.000000)">
                <g id="flaticon1499834490-svg" transform="translate(551.000000, 231.208928)">
                    <path d="M181.33311,55.1687657 C175.241869,43.355039 166.358711,32.9231106 155.645349,25.0004855 C154.072978,23.8381701 151.856909,24.1703445 150.694003,25.7421253 C149.531098,27.3139062 149.863862,29.5305656 151.435643,30.693471 C161.281104,37.9741676 169.443272,47.5594347 175.040676,58.4138087 C180.905354,69.7873896 183.878994,82.0896428 183.878994,94.9801337 C183.878994,139.036608 148.036018,174.879584 103.979544,174.879584 C59.9230694,174.879584 24.0800939,139.036608 24.0800939,94.9795437 C24.0800939,50.9224793 59.9230694,15.0800939 103.979544,15.0800939 C105.93424,15.0800939 107.519591,13.4947429 107.519591,11.540047 C107.519591,9.58535103 105.93424,8 103.979544,8 C56.0189876,8 17,47.0189876 17,94.9795437 C17,142.9401 56.0189876,181.959087 103.979544,181.959087 C151.9401,181.959087 190.959087,142.9401 190.959087,94.9795437 C190.959087,81.1474003 187.630853,67.3813377 181.33311,55.1687657 Z" id="Shape"></path>
                    <path d="M81.7232685,54.592328 C80.6164138,55.2218664 79.9325948,56.397162 79.9325948,57.6698088 L79.9325948,135.358499 C79.9325948,137.313785 81.5179458,138.898546 83.4726417,138.898546 C85.4273377,138.898546 87.0126887,137.313785 87.0126887,135.358499 L87.0126887,63.8973414 L139.424854,95.0987253 L100.883183,119.930385 C99.2400109,120.989449 98.7656446,123.180148 99.8247086,124.82332 C100.884363,126.467081 103.074472,126.941448 104.718234,125.881794 L148.063158,97.9549532 C149.093312,97.2911944 149.70692,96.1418592 149.68509,94.9164129 C149.66326,93.6909666 149.009531,92.5640517 147.956367,91.9368734 L85.2833757,54.6277285 C84.1883212,53.9769499 82.8301232,53.9627897 81.7232685,54.592328 Z" id="Shape"></path>
                </g>
            </g>
        </g>
    </g>
</svg>