<?xml version="1.0" encoding="utf-8"?>
<!-- Generator: Adobe Illustrator 16.0.0, SVG Export Plug-In . SVG Version: 6.00 Build 0)  -->
<!DOCTYPE svg PUBLIC "-//W3C//DTD SVG 1.1//EN" "http://www.w3.org/Graphics/SVG/1.1/DTD/svg11.dtd">
<svg version="1.1" id="Layer_1" xmlns="http://www.w3.org/2000/svg" xmlns:xlink="http://www.w3.org/1999/xlink" x="0px" y="0px"
	 width="38px" height="38px" viewBox="0 0 38 38" enable-background="new 0 0 38 38" xml:space="preserve">
<g>
	<path fill-rule="evenodd" clip-rule="evenodd" fill="none" d="M18.987,31.206c-1.081,0-2.141-0.076-3.169-0.221
		c-1.029,0.726-6.977,4.904-7.538,4.982c0,0-0.23,0.09-0.426-0.027c-0.196-0.114-0.16-0.416-0.16-0.416
		c0.059-0.401,1.541-5.522,1.814-6.466c-5.022-2.488-8.362-6.896-8.362-11.918c0-7.768,7.987-14.067,17.841-14.067
		c9.853,0,17.84,6.299,17.84,14.067C36.827,24.909,28.84,31.206,18.987,31.206z M11.757,12.938h-5.27
		c-0.557,0-1.01,0.453-1.01,1.008c0,0.555,0.452,1.008,1.01,1.008h1.605v6.114c0,0.543,0.461,0.983,1.029,0.983
		c0.567,0,1.03-0.44,1.03-0.983v-6.114h1.605c0.558,0,1.01-0.453,1.01-1.008C12.768,13.39,12.315,12.938,11.757,12.938z
		 M19.045,20.433l-2.46-6.478c-0.173-0.495-0.7-1.002-1.373-1.017c-0.67,0.016-1.197,0.522-1.371,1.017l-2.462,6.48
		c-0.312,0.971-0.04,1.329,0.244,1.461c0.205,0.095,0.428,0.143,0.654,0.143c0.43,0,0.757-0.175,0.856-0.455l0.51-1.334h3.138
		l0.511,1.333c0.099,0.281,0.427,0.456,0.856,0.456c0.226,0,0.449-0.048,0.654-0.143C19.086,21.764,19.359,21.405,19.045,20.433z
		 M24.005,20.014h-2.189v-6.047c0-0.567-0.471-1.029-1.05-1.029s-1.049,0.462-1.049,1.029v6.991c0,0.52,0.442,0.944,0.986,0.944
		h3.303c0.544,0,0.985-0.425,0.985-0.944S24.549,20.014,24.005,20.014z M31.676,14.662c0.161-0.161,0.242-0.384,0.227-0.627
		c-0.015-0.241-0.121-0.471-0.303-0.652c-0.193-0.193-0.451-0.304-0.709-0.304c-0.22,0-0.421,0.081-0.57,0.229l-2.871,2.872v-2.213
		c0-0.567-0.461-1.029-1.029-1.029s-1.029,0.462-1.029,1.029v7.042c0,0.566,0.461,1.029,1.029,1.029
		c0.568-0.002,1.029-0.462,1.029-1.03v-2.246l0.357-0.357l2.413,3.199c0.194,0.258,0.501,0.411,0.823,0.41
		c0.223,0,0.441-0.074,0.619-0.208c0.218-0.165,0.361-0.408,0.399-0.68c0.039-0.271-0.032-0.545-0.197-0.763l-2.534-3.356
		L31.676,14.662z M15.212,15.505l1.028,2.919h-2.057L15.212,15.505z"/>
</g>
</svg>
