<?xml version="1.0" encoding="UTF-8"?>
<svg width="20px" height="18px" viewBox="0 0 20 18" version="1.1" xmlns="http://www.w3.org/2000/svg" xmlns:xlink="http://www.w3.org/1999/xlink">
    <!-- Generator: Sketch 45.1 (43504) - http://www.bohemiancoding.com/sketch -->
    <title>flaticon1499434596-svg</title>
    <desc>Created with Sketch.</desc>
    <defs></defs>
    <g id="Page-1" stroke="none" stroke-width="1" fill="none" fill-rule="evenodd" opacity="0.800000012">
        <g id="LANDING" transform="translate(-1064.000000, -586.000000)" fill-rule="nonzero">
            <g id="header" transform="translate(-1.000000, 0.000000)">
                <g id="social" transform="translate(1058.000000, 580.000000)">
                    <g id="flaticon1499434596-svg" transform="translate(0.015212, 0.765184)">
                        <path d="M25.8742352,22.4186114 L19.917507,19.5550276 L19.8726368,6.57402405 C19.8716048,6.27099046 20.1879569,6.07131069 20.4610606,6.20262852 L26.1083171,8.9182341 C26.2504962,8.98659603 26.3409246,9.13044607 26.3409246,9.28820439 L26.3409246,22.1251613 C26.3408755,22.3650424 26.0903789,22.522555 25.8742352,22.4186114 Z" id="Shape" fill="#E8E8E8"></path>
                        <path d="M19.917507,19.5550276 L13.4705485,16.4552977 L19.6770853,6.23678492 C19.7867298,6.05627205 20.0155039,5.98840157 20.205846,6.07991123 L25.9320308,8.83350657 C26.1509266,8.93877708 26.2310836,9.21001327 26.1045329,9.41731066 L19.917507,19.5550276 Z" id="Shape" fill="#FFFFFF"></path>
                        <path d="M19.917507,19.5550276 L13.4705485,16.4552977 L7.56129527,6.83262975 C7.39665652,6.5645389 7.68312794,6.24710556 7.96665061,6.38343627 L13.4705485,9.03009015 L19.917507,19.5550276 Z" id="Shape" fill="#E3E3E3"></path>
                        <path d="M13.0038591,22.4185623 L7.18449369,19.620195 C7.07170386,19.565938 7,19.4518703 7,19.3267449 L7,6.42009911 C7,6.18783561 7.24263328,6.03523761 7.4519948,6.13593755 L13.4705485,9.03009015 L13.4705485,22.1251121 C13.4705485,22.3649933 13.2200028,22.5225059 13.0038591,22.4185623 Z" id="Shape" fill="#FFFFFF"></path>
                    </g>
                </g>
            </g>
        </g>
    </g>
</svg>