<?xml version="1.0" encoding="utf-8"?>
<!-- Generator: Adobe Illustrator 16.0.0, SVG Export Plug-In . SVG Version: 6.00 Build 0)  -->
<!DOCTYPE svg PUBLIC "-//W3C//DTD SVG 1.1//EN" "http://www.w3.org/Graphics/SVG/1.1/DTD/svg11.dtd">
<svg version="1.1" id="Layer_1" xmlns="http://www.w3.org/2000/svg" xmlns:xlink="http://www.w3.org/1999/xlink" x="0px" y="0px"
	 width="38px" height="38px" viewBox="0 0 38 38" enable-background="new 0 0 38 38" xml:space="preserve">
<g>
	<path fill-rule="evenodd" clip-rule="evenodd" fill="#FFFFFF" d="M32.862,31.476c0.206,0.725,0.522,1.883,0.71,2.575
		c0.105,0.368-0.101,0.45-0.451,0.28c-0.795-0.395-2.184-1.067-3.038-1.485c-1.255,0.426-2.624,0.657-4.058,0.657
		c-6.076,0-11.004-4.18-11.004-9.347c0-5.159,4.928-9.34,11.004-9.34c6.081,0,11.004,4.181,11.004,9.34
		C37.029,27.123,35.402,29.771,32.862,31.476z M22.603,19.725c-0.843,0-1.523,0.679-1.523,1.528c0,0.836,0.681,1.517,1.523,1.517
		c0.838,0,1.523-0.681,1.523-1.517C24.126,20.404,23.44,19.725,22.603,19.725z M29.996,19.725c-0.836,0-1.52,0.679-1.52,1.528
		c0,0.836,0.684,1.517,1.52,1.517c0.847,0,1.531-0.681,1.531-1.517C31.527,20.404,30.843,19.725,29.996,19.725z M14.149,24.156
		c0,0.673,0.078,1.328,0.221,1.959c0.125,0.525,0.072,0.971-0.38,0.971c-1.694,0-3.313-0.28-4.794-0.779
		c-0.825,0.424-2.425,1.248-3.472,1.785c-0.607,0.309-0.867,0.093-0.698-0.429c0.295-0.917,0.73-2.271,0.945-2.936
		C2.946,22.709,1,19.579,1,16.052C1,9.958,6.815,5.019,13.99,5.019c5.964,0,10.993,3.414,12.511,8.066
		c0.248,0.744,0.164,0.988-0.476,0.988C19.466,14.073,14.149,18.59,14.149,24.156z M9.292,10.347c-1.01,0-1.833,0.822-1.833,1.832
		c0,1.011,0.823,1.833,1.833,1.833c1.013,0,1.832-0.823,1.832-1.833C11.124,11.169,10.304,10.347,9.292,10.347z M18.323,10.347
		c-1.013,0-1.832,0.822-1.832,1.832c0,1.011,0.819,1.833,1.832,1.833c1.009,0,1.831-0.823,1.831-1.833
		C20.153,11.169,19.332,10.347,18.323,10.347z"/>
</g>
</svg>
