<?xml version="1.0" encoding="UTF-8"?>
<svg width="21px" height="17px" viewBox="0 0 21 17" version="1.1" xmlns="http://www.w3.org/2000/svg" xmlns:xlink="http://www.w3.org/1999/xlink">
    <!-- Generator: Sketch 45.1 (43504) - http://www.bohemiancoding.com/sketch -->
    <title>flaticon1499434885-svg</title>
    <desc>Created with Sketch.</desc>
    <defs></defs>
    <g id="Page-1" stroke="none" stroke-width="1" fill="none" fill-rule="evenodd" opacity="0.800000012">
        <g id="LANDING" transform="translate(-1208.000000, -587.000000)" fill-rule="nonzero">
            <g id="header" transform="translate(-1.000000, 0.000000)">
                <g id="social" transform="translate(1058.000000, 580.000000)">
                    <g id="flaticon1499434885-svg" transform="translate(143.000000, 0.622008)">
                        <path d="M28.6300412,8.35812708 C27.8886317,8.68665132 27.09311,8.90945269 26.2572675,9.00892171 C27.1107195,8.4978511 27.7640157,7.68722142 28.0736467,6.7242613 C27.273089,7.19754553 26.389421,7.54121065 25.4478556,7.72750933 C24.6938726,6.92316641 23.6214044,6.42216778 22.4318577,6.42216778 C20.1497317,6.42216778 18.2993513,8.27254818 18.2993513,10.5534234 C18.2993513,10.8769116 18.335854,11.1928623 18.4063579,11.4949888 C14.9724716,11.3225144 11.9275414,9.67732584 9.88961151,7.17740158 C9.53337288,7.78665752 9.33071546,8.49656741 9.33071546,9.25436858 C9.33071546,10.6881114 10.0608022,11.953165 11.1685224,12.6932909 C10.491297,12.6706454 9.85435959,12.4843467 9.29674722,12.1746827 L9.29674722,12.2262934 C9.29674722,14.2277206 10.7216688,15.898089 12.6110535,16.2782568 C12.2648868,16.3714062 11.8998599,16.4230168 11.5222265,16.4230168 C11.2553849,16.4230168 10.9973316,16.3965861 10.7443143,16.3462262 C11.27046,17.9889132 12.7961014,19.183463 14.6036923,19.2162134 C13.1900935,20.3239335 11.4076825,20.9822657 9.47172316,20.9822657 C9.13816294,20.9822657 8.80960579,20.9621217 8.48611755,20.925619 C10.3151032,22.1000578 12.4864703,22.7848206 14.820207,22.7848206 C22.4218515,22.7848206 26.5770363,16.4884847 26.5770363,11.0279913 L26.5631791,10.4930244 C27.3750596,9.9139515 28.0774319,9.18639918 28.6300412,8.35812708 Z" id="Shape"></path>
                    </g>
                </g>
            </g>
        </g>
    </g>
</svg>