<?xml version="1.0" encoding="UTF-8"?>
<svg width="20px" height="17px" viewBox="0 0 20 17" version="1.1" xmlns="http://www.w3.org/2000/svg" xmlns:xlink="http://www.w3.org/1999/xlink">
    <!-- Generator: Sketch 45.1 (43504) - http://www.bohemiancoding.com/sketch -->
    <title>flaticon1499434809-svg</title>
    <desc>Created with Sketch.</desc>
    <defs></defs>
    <g id="Page-1" stroke="none" stroke-width="1" fill="none" fill-rule="evenodd" opacity="0.800000012">
        <g id="LANDING" transform="translate(-1160.000000, -587.000000)" fill-rule="nonzero" fill="#FFFFFF">
            <g id="header" transform="translate(-1.000000, 0.000000)">
                <g id="social" transform="translate(1058.000000, 580.000000)">
                    <g id="flaticon1499434809-svg" transform="translate(103.694152, 6.945992)">
                        <path d="M0.330083599,7.82663782 L4.6360581,9.4337631 L6.30273422,14.7937751 C6.40937758,15.1370645 6.82916119,15.2639527 7.10779186,15.036152 L9.50801478,13.0794458 C9.75961087,12.8744439 10.1179749,12.8642281 10.3809081,13.0550898 L14.7100551,16.1981409 C15.0081207,16.4147914 15.430396,16.2514626 15.505146,15.8912921 L18.6764776,0.636620944 C18.7580797,0.243186709 18.3714976,-0.0850281398 17.9968754,0.0598623021 L0.325037973,6.87712578 C-0.111066061,7.04531331 -0.107266269,7.66274842 0.330083599,7.82663782 Z M6.03413251,8.5782492 L14.4496136,3.39514559 C14.6008578,3.3022687 14.7564624,3.50677228 14.6265842,3.62724438 L7.68137363,10.0831538 C7.43725255,10.3103939 7.27977919,10.6145019 7.23517834,10.9445854 L6.99859455,12.697847 C6.96726184,12.9319391 6.63842407,12.9551739 6.5738276,12.7286191 L5.66393307,9.53149874 C5.55971909,9.16684326 5.7115862,8.77733341 6.03413251,8.5782492 Z" id="XMLID_497_"></path>
                    </g>
                </g>
            </g>
        </g>
    </g>
</svg>