<?xml version="1.0" encoding="UTF-8"?>
<svg width="19px" height="19px" viewBox="0 0 19 19" version="1.1" xmlns="http://www.w3.org/2000/svg" xmlns:xlink="http://www.w3.org/1999/xlink">
    <!-- Generator: Sketch 45.1 (43504) - http://www.bohemiancoding.com/sketch -->
    <title>Shape</title>
    <desc>Created with Sketch.</desc>
    <defs></defs>
    <g id="Page-1" stroke="none" stroke-width="1" fill="none" fill-rule="evenodd" opacity="0.800000012">
        <g id="LANDING" transform="translate(-1113.000000, -586.000000)" fill-rule="nonzero" fill="#FFFFFF">
            <g id="header" transform="translate(-1.000000, 0.000000)">
                <g id="social" transform="translate(1058.000000, 580.000000)">
                    <path d="M66.3302668,15.89983 C66.1343335,15.776011 65.8173025,15.6766837 65.381895,15.5923235 L64.3777367,15.408636 L64.0661483,17.0781513 C64.0307714,17.3162647 64.013083,17.4564115 64.017165,17.5026735 C64.0239682,17.5557388 64.0498205,17.5965582 64.086558,17.6224106 C64.1273775,17.6509842 64.2389506,17.686361 64.4294413,17.7176559 L64.991389,17.8265078 C65.3152233,17.8850156 65.5941562,17.906786 65.8200238,17.8850156 C66.0486126,17.8618846 66.2540705,17.7707212 66.44184,17.6088041 C66.6268881,17.4468869 66.7466251,17.2319045 66.7983298,16.9584143 C66.8350673,16.7298254 66.8228214,16.5298101 66.7466251,16.3502045 C66.6677076,16.1760416 66.5316427,16.019567 66.3302668,15.89983 Z M66.7996904,12.837011 C66.6200849,12.7431263 66.2867261,12.6465203 65.7900895,12.5526356 L64.9464876,12.396161 L64.5940798,14.2765768 L65.4376816,14.4371332 C65.8812529,14.5187721 66.2186937,14.5432638 66.44184,14.5106082 C66.6677076,14.4738707 66.8459525,14.3908712 66.9820173,14.2643309 C67.1140001,14.1337087 67.2010816,13.9704309 67.2364585,13.7772189 C67.2759173,13.5731217 67.2609501,13.3935161 67.1861145,13.227517 C67.1126395,13.0655999 66.9847386,12.9363383 66.7996904,12.837011 Z M74.2968617,15.1773258 C74.2968617,20.1178393 70.2938349,24.1181448 65.3560427,24.1181448 C60.4182506,24.1181448 56.4125025,20.1178393 56.4125025,15.1773258 C56.4125025,10.2395337 60.41689,6.23786749 65.3546821,6.23786749 C70.2924742,6.23786749 74.2968617,10.2395337 74.2968617,15.1773258 Z M69.0352353,12.81388 C68.8828427,12.4832425 68.6297622,12.2043096 68.2759937,11.9757207 C68.1399288,11.8845573 67.9698478,11.8070004 67.783439,11.7321647 L68.0392409,10.3715166 L66.731658,10.1279605 L66.4949052,11.3974453 L65.6553853,11.2409707 L65.8934988,9.97012536 L64.5859159,9.7224874 L64.3450812,10.9987754 L62.3530923,10.6232365 L62.1544376,11.6872633 L62.4578622,11.7498531 C62.6619594,11.7825087 62.7980242,11.8287707 62.8633353,11.8804754 C62.9272858,11.93218 62.9721872,11.9893272 62.9830724,12.0600809 C63.0034821,12.1267527 62.9939575,12.272342 62.9504168,12.5036522 L62.1435525,16.8073823 C62.1040937,17.0332499 62.0619136,17.1747573 62.0210941,17.2319045 C61.9734714,17.2904124 61.9176849,17.3298712 61.8401279,17.3543629 C61.7612103,17.3761332 61.6224242,17.3679693 61.418327,17.3271499 L61.1067386,17.2713633 L60.9094446,18.3367508 L62.9027941,18.7068471 L62.6687626,19.9790531 L63.9736242,20.2280518 L64.210377,18.9558457 L64.9505696,19.0959925 C64.9845858,19.1041564 65.018602,19.1068777 65.0498969,19.1123203 L64.8131441,20.3858869 L66.120727,20.6280823 L66.3765288,19.2538277 C66.6023964,19.2483851 66.8037724,19.229336 66.9806566,19.1980411 C67.4650474,19.1027957 67.8637173,18.8973379 68.1766663,18.6007166 C68.4868941,18.3054559 68.6814668,17.9489661 68.7576631,17.5407717 C68.8216136,17.2006096 68.7984826,16.8740541 68.6909913,16.5679082 C68.5794182,16.2563198 68.3970913,15.9991573 68.1521747,15.7923388 C67.9820937,15.6494707 67.7249312,15.4902749 67.3806872,15.335161 C67.7439802,15.2807351 68.0378802,15.192293 68.274633,15.0535068 C68.5127464,14.9119994 68.7100404,14.7419184 68.8597117,14.5350999 C69.0107437,14.3255601 69.1155136,14.0928893 69.1631363,13.8384481 C69.2270867,13.4874008 69.1849066,13.1445175 69.0352353,12.81388 Z" id="Shape"></path>
                </g>
            </g>
        </g>
    </g>
</svg>