<?xml version="1.0" encoding="UTF-8"?>
<svg width="48px" height="47px" viewBox="0 0 48 47" version="1.1" xmlns="http://www.w3.org/2000/svg" xmlns:xlink="http://www.w3.org/1999/xlink">
    <!-- Generator: Sketch 45.2 (43514) - http://www.bohemiancoding.com/sketch -->
    <title>1</title>
    <desc>Created with Sketch.</desc>
    <defs>
        <linearGradient x1="50%" y1="0%" x2="50%" y2="100%" id="linearGradient-1">
            <stop stop-color="#00DEB3" offset="0%"></stop>
            <stop stop-color="#00B4F6" offset="100%"></stop>
        </linearGradient>
    </defs>
    <g id="Page-1" stroke="none" stroke-width="1" fill="none" fill-rule="evenodd">
        <g id="LANDING" transform="translate(-181.000000, -5132.000000)" fill-rule="nonzero" fill="url(#linearGradient-1)">
            <g id="innovations" transform="translate(145.000000, 4938.000000)">
                <g id="1" transform="translate(15.000000, 173.000000)">
                    <g id="Group-12" transform="translate(6.000000, 5.000000)">
                        <path d="M35.9854956,56.6224727 L35.9854956,44.6689178 C35.9854956,44.2569354 35.6516735,43.9231134 35.2396911,43.9231134 L30.2676615,43.9231134 C29.8556791,43.9231134 29.521857,44.2569354 29.521857,44.6689178 C29.521857,45.0809002 29.8556791,45.4147223 30.2676615,45.4147223 L34.4938867,45.4147223 L34.4938867,56.6224727 C33.0703946,56.9601729 32.0078718,58.2411666 32.0078718,59.7664859 C32.0078718,61.5485608 33.4576162,62.9983052 35.2396911,62.9983052 C37.021766,62.9983052 38.4715104,61.5485608 38.4715104,59.7664859 C38.4715104,58.2411666 37.4089877,56.9601729 35.9854956,56.6224727 L35.9854956,56.6224727 Z M35.2396911,61.5066963 C34.2801888,61.5066963 33.4994807,60.7259882 33.4994807,59.7664859 C33.4994807,58.8069836 34.2801888,58.0262755 35.2396911,58.0262755 C36.1991934,58.0262755 36.9799015,58.8069836 36.9799015,59.7664859 C36.9799015,60.7259882 36.1991934,61.5066963 35.2396911,61.5066963 Z" id="Shape"></path>
                        <path d="M43.940743,56.6224727 L43.940743,44.6689178 C43.940743,44.2569354 43.606921,43.9231134 43.1949386,43.9231134 L38.2230084,43.9231134 C37.811026,43.9231134 37.4772039,44.2569354 37.4772039,44.6689178 C37.4772039,45.0809002 37.811026,45.4147223 38.2230084,45.4147223 L42.4491341,45.4147223 L42.4491341,56.6224727 C41.025642,56.9601729 39.9631193,58.2411666 39.9631193,59.7664859 C39.9631193,61.5485608 41.4128637,62.9983052 43.1949386,62.9983052 C44.9770135,62.9983052 46.4267579,61.5485608 46.4267579,59.7664859 C46.4267579,58.2411666 45.3642351,56.9601729 43.940743,56.6224727 L43.940743,56.6224727 Z M43.1949386,61.5066963 C42.2354363,61.5066963 41.4547282,60.7259882 41.4547282,59.7664859 C41.4547282,58.8069836 42.2354363,58.0262755 43.1949386,58.0262755 C44.1544409,58.0262755 44.935149,58.8069836 44.935149,59.7664859 C44.935149,60.7259882 44.1544409,61.5066963 43.1949386,61.5066963 Z" id="Shape"></path>
                        <path d="M56.6194187,51.562637 C55.0940994,51.562637 53.8131057,52.6251597 53.4754054,54.0486518 L51.8959905,54.0486518 L51.8959905,44.6689178 C51.8959905,44.2569354 51.5621684,43.9231134 51.1501861,43.9231134 L46.1781564,43.9231134 C45.766174,43.9231134 45.4323519,44.2569354 45.4323519,44.6689178 C45.4323519,45.0809002 45.766174,45.4147223 46.1781564,45.4147223 L50.4043816,45.4147223 L50.4043816,54.7944562 C50.4043816,55.2064386 50.7382037,55.5402607 51.1501861,55.5402607 L53.4754054,55.5402607 C53.8131057,56.9637528 55.0940994,58.0262755 56.6194187,58.0262755 C58.4014936,58.0262755 59.851238,56.5765311 59.851238,54.7944562 C59.851238,53.0123814 58.4014936,51.562637 56.6194187,51.562637 Z M56.6194187,56.5346666 C55.6599164,56.5346666 54.8792083,55.7539585 54.8792083,54.7944562 C54.8792083,53.834954 55.6599164,53.0542459 56.6194187,53.0542459 C57.578921,53.0542459 58.3596291,53.834954 58.3596291,54.7944562 C58.3596291,55.7539585 57.578921,56.5346666 56.6194187,56.5346666 Z" id="Shape"></path>
                        <path d="M60.8099447,32.3265503 C59.8047992,31.0785708 58.4395793,30.1539722 56.9205248,29.682226 C56.749487,26.1517866 55.284727,22.857817 52.7599304,20.3541017 C50.0983035,17.7147495 46.5681624,16.2612263 42.8196498,16.2612263 C37.897241,16.2612263 33.3423646,18.8279869 30.7807749,23.0020058 C30.157879,22.8056107 29.5104213,22.7064684 28.8482464,22.7064684 C25.801685,22.7064684 23.1818231,24.8569707 22.550077,27.7883799 C18.6374874,28.80337 15.8487754,32.3694092 15.8487754,36.4577103 C15.8487754,41.3966262 19.866772,45.4147223 24.805688,45.4147223 L26.5386392,45.4147223 L26.5386392,54.0486518 L24.9592243,54.0486518 C24.621524,52.6251597 23.3405303,51.562637 21.815211,51.562637 C20.0331361,51.562637 18.5833917,53.0123814 18.5833917,54.7944562 C18.5833917,56.5765311 20.0331361,58.0262755 21.815211,58.0262755 C23.3405303,58.0262755 24.621524,56.9637528 24.9592243,55.5402607 L27.2844437,55.5402607 C27.696426,55.5402607 28.0302481,55.2064386 28.0302481,54.7944562 L28.0302481,44.6689178 C28.0302481,44.2569354 27.696426,43.9231134 27.2844437,43.9231134 L24.805688,43.9231134 C20.6893446,43.9231134 17.3403843,40.5741531 17.3403843,36.4577103 C17.3403843,32.905394 19.8656782,29.826216 23.3449057,29.1361977 C23.6586407,29.0740473 23.8978948,28.8186839 23.9393615,28.5014684 C24.2604552,26.0481695 26.3707835,24.1981767 28.8482464,24.1981767 C29.5298123,24.1981767 30.1907939,24.3347087 30.8127948,24.6038943 C31.1654111,24.7565357 31.5760013,24.6163244 31.7617564,24.2803147 C33.9876346,20.253965 38.2247983,17.7528352 42.8196498,17.7528352 C49.7192359,17.7528352 55.3829743,23.3650634 55.4452242,30.2636552 C55.4483068,30.6083163 55.6871631,30.9058425 56.0228746,30.9835056 C59.0088767,31.6745183 61.0943448,34.2999488 61.0943448,37.36789 C61.0943448,40.9824562 58.153787,43.9231134 54.5392209,43.9231134 L54.1334039,43.9231134 C53.7214215,43.9231134 53.3875994,44.2569354 53.3875994,44.6689178 C53.3875994,45.0809002 53.7214215,45.4147223 54.1334039,45.4147223 L54.5391215,45.4147223 C58.9760613,45.4147223 62.5858543,41.8049293 62.5858543,37.36789 C62.5858543,35.5386803 61.9551026,33.7482524 60.8099447,32.3265503 Z M21.815211,56.5346666 C20.8557087,56.5346666 20.0750006,55.7539585 20.0750006,54.7944562 C20.0750006,53.834954 20.8557087,53.0542459 21.815211,53.0542459 C22.7747133,53.0542459 23.5554214,53.834954 23.5554214,54.7944562 C23.5554214,55.7539585 22.7747133,56.5346666 21.815211,56.5346666 Z" id="Shape"></path>
                        <path d="M52.2134049,31.0385957 L52.2202663,31.0385957 C52.6321492,31.034817 52.9629881,30.6979122 52.9593088,30.2860293 C52.9481714,29.0575402 52.716276,27.8554029 52.270086,26.7130293 C52.1201296,26.3293875 51.6877619,26.1397543 51.3040207,26.2896113 C50.9202794,26.4394683 50.7307456,26.8719354 50.8806026,27.2556766 C51.2606646,28.2286034 51.4581536,29.2527421 51.4676004,30.2995532 C51.4714786,30.7092485 51.8046046,31.0385957 52.2134049,31.0385957 L52.2134049,31.0385957 Z" id="Shape"></path>
                        <path d="M49.4873405,24.8882944 C49.6348109,25.0668897 49.847912,25.1591706 50.0627037,25.1591706 C50.2300622,25.1591706 50.3983157,25.1031856 50.5372342,24.9883317 C50.854748,24.7260074 50.8995958,24.2559517 50.6372715,23.9383385 C48.6951967,21.5872645 45.8457265,20.2388501 42.8197492,20.2388501 C42.4077669,20.2388501 42.0739448,20.5726721 42.0739448,20.9846545 C42.0739448,21.3966369 42.4077669,21.730459 42.8197492,21.730459 C45.3992382,21.730459 47.8294669,22.8813844 49.4873405,24.8882944 L49.4873405,24.8882944 Z" id="Shape"></path>
                    </g>
                </g>
            </g>
        </g>
    </g>
</svg>