<?xml version="1.0" encoding="UTF-8"?>
<svg width="46px" height="34px" viewBox="0 0 46 34" version="1.1" xmlns="http://www.w3.org/2000/svg" xmlns:xlink="http://www.w3.org/1999/xlink">
    <!-- Generator: Sketch 45.2 (43514) - http://www.bohemiancoding.com/sketch -->
    <title>Group 15</title>
    <desc>Created with Sketch.</desc>
    <defs>
        <linearGradient x1="50%" y1="0%" x2="50%" y2="100%" id="linearGradient-1">
            <stop stop-color="#00DEB3" offset="0%"></stop>
            <stop stop-color="#00B4F6" offset="100%"></stop>
        </linearGradient>
    </defs>
    <g id="Page-1" stroke="none" stroke-width="1" fill="none" fill-rule="evenodd">
        <g id="LANDING" transform="translate(-182.000000, -5467.000000)" fill-rule="nonzero" fill="url(#linearGradient-1)">
            <g id="innovations" transform="translate(145.000000, 4938.000000)">
                <g id="4" transform="translate(15.000000, 502.000000)">
                    <g id="Group-15" transform="translate(13.000000, 22.000000)">
                        <path d="M51.6704383,5.35776543 L12.5035695,5.35776543 C10.7376197,5.35776543 9.30055423,6.79483086 9.30055423,8.56078071 L9.30055423,35.5748763 C9.30055423,37.3408262 10.7376197,38.7778916 12.5035695,38.7778916 L51.6704383,38.7778916 C53.4363882,38.7778916 54.8734536,37.3408262 54.8734536,35.5748763 L54.8734536,8.56078071 C54.8734536,6.79483086 53.4363882,5.35776543 51.6704383,5.35776543 Z M53.3543569,35.5748763 C53.3543569,36.5030444 52.5993659,37.258795 51.6704383,37.258795 L12.5035695,37.258795 C11.5746419,37.258795 10.8196509,36.5030444 10.8196509,35.5748763 L10.8196509,8.56078071 C10.8196509,7.63261266 11.5746419,6.87686207 12.5035695,6.87686207 L51.6704383,6.87686207 C52.5993659,6.87686207 53.3543569,7.63261266 53.3543569,8.56078071 L53.3543569,35.5748763 Z" id="Shape"></path>
                        <path d="M21.4533274,27.3846668 L14.6173925,27.3846668 C14.1973623,27.3846668 13.8578442,27.7249444 13.8578442,28.1442151 C13.8578442,28.5634858 14.1973623,28.9037634 14.6173925,28.9037634 L21.4533274,28.9037634 C21.8733576,28.9037634 22.2128757,28.5634858 22.2128757,28.1442151 C22.2128757,27.7249444 21.8733576,27.3846668 21.4533274,27.3846668 Z" id="Shape"></path>
                        <path d="M31.3274556,27.3846668 L24.4915207,27.3846668 C24.0714905,27.3846668 23.7319724,27.7249444 23.7319724,28.1442151 C23.7319724,28.5634858 24.0714905,28.9037634 24.4915207,28.9037634 L31.3274556,28.9037634 C31.7474858,28.9037634 32.0870039,28.5634858 32.0870039,28.1442151 C32.0870039,27.7249444 31.7474858,27.3846668 31.3274556,27.3846668 Z" id="Shape"></path>
                        <path d="M45.7588737,24.3464735 C44.7896901,24.3464735 43.8835489,24.6115559 43.1004546,25.0657658 C42.3173603,24.6115559 41.4112191,24.3464735 40.4420355,24.3464735 C37.5109385,24.3464735 35.1251972,26.7314552 35.1251972,29.6633117 C35.1251972,32.5951683 37.5109385,34.98015 40.4420355,34.98015 C41.4112191,34.98015 42.3173603,34.7150676 43.1004546,34.2608577 C43.8835489,34.7150676 44.7896901,34.98015 45.7588737,34.98015 C48.6899707,34.98015 51.075712,32.5951683 51.075712,29.6633117 C51.075712,26.7314552 48.6899707,24.3464735 45.7588737,24.3464735 Z M44.2397771,29.6633117 C44.2397771,30.7221221 43.8022772,31.679153 43.1004546,32.3688229 C42.3986319,31.679153 41.9611321,30.7221221 41.9611321,29.6633117 C41.9611321,28.6045014 42.3986319,27.6474705 43.1004546,26.9578006 C43.8022772,27.6474705 44.2397771,28.6045014 44.2397771,29.6633117 Z M36.6442938,29.6633117 C36.6442938,27.569237 38.3479607,25.8655701 40.4420355,25.8655701 C40.9213104,25.8655701 41.3762799,25.9643114 41.7993483,26.1276143 C40.9585283,27.0679351 40.4420355,28.3052393 40.4420355,29.6633117 C40.4420355,31.0213842 40.9585283,32.2586884 41.7993483,33.1990092 C41.3762799,33.3623121 40.9213104,33.4610534 40.4420355,33.4610534 C38.3479607,33.4610534 36.6442938,31.7573865 36.6442938,29.6633117 Z M45.7588737,33.4610534 C45.2795987,33.4610534 44.8246293,33.3623121 44.4015609,33.1990092 C45.2423809,32.2586884 45.7588737,31.0213842 45.7588737,29.6633117 C45.7588737,28.3052393 45.2423809,27.0679351 44.4015609,26.1276143 C44.8246293,25.9643114 45.2795987,25.8655701 45.7588737,25.8655701 C47.8529484,25.8655701 49.5566153,27.569237 49.5566153,29.6633117 C49.5566153,31.7573865 47.8529484,33.4610534 45.7588737,33.4610534 Z" id="Shape"></path>
                        <path d="M15.5706256,22.0678285 L20.1279156,22.0678285 L21.2596426,22.0678285 L25.8169325,22.0678285 C26.7610511,22.0678285 27.529714,21.2991656 27.529714,20.3550471 L27.529714,14.2786605 L27.529714,13.1469335 C27.529714,12.2028149 26.7610511,11.434152 25.8169325,11.434152 L20.1279156,11.434152 L15.5706256,11.434152 C14.6265071,11.434152 13.8578442,12.2028149 13.8578442,13.1469335 L13.8578442,20.3550471 C13.8578442,21.2991656 14.6265071,22.0678285 15.5706256,22.0678285 Z M18.4151341,17.5105386 L15.3769408,17.5105386 L15.3769408,15.9914419 L18.4151341,15.9914419 L18.4151341,17.5105386 Z M15.3769408,20.3550471 L15.3769408,19.0296352 L18.4151341,19.0296352 L18.4151341,20.3550471 C18.4151341,20.4211278 18.4272869,20.4841703 18.4348824,20.5487319 L15.5706256,20.5487319 C15.4635293,20.5487319 15.3769408,20.4621434 15.3769408,20.3550471 Z M26.0106173,17.5105386 L22.972424,17.5105386 L22.972424,16.1851268 C22.972424,16.0780305 23.0590125,15.9914419 23.1661089,15.9914419 L25.8169325,15.9914419 C25.8830132,15.9914419 25.9460557,15.9792892 26.0106173,15.9716937 L26.0106173,17.5105386 L26.0106173,17.5105386 Z M25.8169325,20.5487319 L22.9526758,20.5487319 C22.9602713,20.4841703 22.972424,20.4211278 22.972424,20.3550471 L22.972424,19.0296352 L26.0106173,19.0296352 L26.0106173,20.3550471 C26.0106173,20.4621434 25.9240288,20.5487319 25.8169325,20.5487319 Z M25.8169325,12.9532487 C25.9240288,12.9532487 26.0106173,13.0398372 26.0106173,13.1469335 L26.0106173,14.2786605 C26.0106173,14.3857568 25.9240288,14.4723453 25.8169325,14.4723453 L23.1661089,14.4723453 C22.2219903,14.4723453 21.4533274,15.2410082 21.4533274,16.1851268 L21.4533274,20.3550471 C21.4533274,20.4621434 21.3667389,20.5487319 21.2596426,20.5487319 L20.1279156,20.5487319 C20.0208193,20.5487319 19.9342307,20.4621434 19.9342307,20.3550471 L19.9342307,13.1469335 C19.9342307,13.0398372 20.0208193,12.9532487 20.1279156,12.9532487 L25.8169325,12.9532487 Z M15.5706256,12.9532487 L18.4348824,12.9532487 C18.4272869,13.0178103 18.4151341,13.0808528 18.4151341,13.1469335 L18.4151341,14.4723453 L15.3769408,14.4723453 L15.3769408,13.1469335 C15.3769408,13.0398372 15.4635293,12.9532487 15.5706256,12.9532487 Z" id="Shape"></path>
                        <path d="M15.3769408,31.1824084 L14.6173925,31.1824084 C14.1973623,31.1824084 13.8578442,31.522686 13.8578442,31.9419567 C13.8578442,32.3612274 14.1973623,32.701505 14.6173925,32.701505 L15.3769408,32.701505 C15.796971,32.701505 16.1364891,32.3612274 16.1364891,31.9419567 C16.1364891,31.522686 15.796971,31.1824084 15.3769408,31.1824084 Z" id="Shape"></path>
                        <path d="M19.9342307,31.1824084 L18.4151341,31.1824084 C17.9951039,31.1824084 17.6555858,31.522686 17.6555858,31.9419567 C17.6555858,32.3612274 17.9951039,32.701505 18.4151341,32.701505 L19.9342307,32.701505 C20.354261,32.701505 20.6937791,32.3612274 20.6937791,31.9419567 C20.6937791,31.522686 20.354261,31.1824084 19.9342307,31.1824084 Z" id="Shape"></path>
                        <path d="M23.7319724,31.1824084 L22.972424,31.1824084 C22.5523938,31.1824084 22.2128757,31.522686 22.2128757,31.9419567 C22.2128757,32.3612274 22.5523938,32.701505 22.972424,32.701505 L23.7319724,32.701505 C24.1520026,32.701505 24.4915207,32.3612274 24.4915207,31.9419567 C24.4915207,31.522686 24.1520026,31.1824084 23.7319724,31.1824084 Z" id="Shape"></path>
                        <path d="M28.2892623,31.1824084 L26.7701656,31.1824084 C26.3501354,31.1824084 26.0106173,31.522686 26.0106173,31.9419567 C26.0106173,32.3612274 26.3501354,32.701505 26.7701656,32.701505 L28.2892623,32.701505 C28.7092925,32.701505 29.0488106,32.3612274 29.0488106,31.9419567 C29.0488106,31.522686 28.7092925,31.1824084 28.2892623,31.1824084 Z" id="Shape"></path>
                        <path d="M30.7881763,31.4026774 C30.650698,31.5469916 30.5679073,31.7444742 30.5679073,31.9419567 C30.5679073,32.1394393 30.650698,32.3369218 30.7881763,32.481236 C30.9317309,32.6179547 31.129973,32.701505 31.3274556,32.701505 C31.5249381,32.701505 31.7224207,32.6179547 31.8667349,32.481236 C32.0034536,32.3369218 32.0870039,32.1394393 32.0870039,31.9419567 C32.0870039,31.7444742 32.0034536,31.5469916 31.8667349,31.4026774 C31.5781065,31.1216445 31.0608541,31.1216445 30.7881763,31.4026774 Z" id="Shape"></path>
                    </g>
                </g>
            </g>
        </g>
    </g>
</svg>