<?xml version="1.0" encoding="UTF-8"?>
<svg width="46px" height="41px" viewBox="0 0 46 41" version="1.1" xmlns="http://www.w3.org/2000/svg" xmlns:xlink="http://www.w3.org/1999/xlink">
    <!-- Generator: Sketch 45.2 (43514) - http://www.bohemiancoding.com/sketch -->
    <title>Shape</title>
    <desc>Created with Sketch.</desc>
    <defs>
        <linearGradient x1="50%" y1="0%" x2="50%" y2="100%" id="linearGradient-1">
            <stop stop-color="#00DEB3" offset="0%"></stop>
            <stop stop-color="#00B4F6" offset="100%"></stop>
        </linearGradient>
    </defs>
    <g id="Page-1" stroke="none" stroke-width="1" fill="none" fill-rule="evenodd">
        <g id="LANDING" transform="translate(-973.000000, -5464.000000)" fill-rule="nonzero" fill="url(#linearGradient-1)">
            <g id="innovations" transform="translate(145.000000, 4938.000000)">
                <g id="6" transform="translate(806.000000, 502.000000)">
                    <g id="Group-17" transform="translate(18.000000, 18.000000)">
                        <path d="M47.2124909,29.6471396 C46.3049936,28.7901613 45.3847566,28.4295872 45.2061389,28.3647472 L42.1737675,27.1012444 L40.0499478,25.6997149 L40.0499478,24.9867378 C41.6361572,24.1571715 42.7913296,22.6131344 43.0846035,20.7838186 C44.4171636,20.6066067 45.4489817,19.4633832 45.4489817,18.0830277 C45.4489817,17.3746193 45.1771454,16.7286786 44.7326658,16.2435203 L44.7326658,13.6307643 C44.7326658,9.42679084 41.3124841,6.00660905 37.1085106,6.00660905 L36.5323302,6.00660905 C33.0712939,6.00660905 30.0519256,8.33083555 29.1649873,11.6661454 C28.4994541,11.4860341 27.8001829,11.3880711 27.0784199,11.3880711 L26.4714009,11.3880711 C25.7111555,11.3880711 24.9763014,11.4970165 24.2791388,11.6961054 C23.4025679,8.34445372 20.3750287,6.00652119 16.9034493,6.00652119 L16.3272689,6.00652119 C12.1232955,6.00652119 8.70311368,9.42670298 8.70311368,13.6306764 L8.70311368,16.2435203 C8.25854627,16.7286786 7.98671,17.3746193 7.98671,18.0830277 C7.98671,19.4633832 9.0185281,20.6066946 10.3510881,20.7838186 C10.6442742,22.6131344 11.7995344,24.1571715 13.3857439,24.9867378 L13.3857439,25.6997149 L11.262012,27.1011566 L8.22955275,28.3646593 C8.05093505,28.4294115 7.13078596,28.7900734 6.22320073,29.6470517 C5.31201328,30.5074566 4.22589821,32.0544809 4.22589821,34.5380839 L4.22589821,38.8549564 C4.22589821,39.2472476 4.54394841,39.5662642 4.93615175,39.5662642 L13.8551754,39.5662642 C13.7228595,40.117932 13.6443134,40.7315404 13.6443134,41.4131518 L13.6443134,45.9617968 C13.6443134,46.3541759 13.9623636,46.6731925 14.354567,46.6731925 L22.7935281,46.6731925 L24.6604476,46.6731925 L28.9166973,46.6731925 L28.9186302,46.6731925 L30.6421635,46.6731925 L31.0426256,46.6731925 C31.4350047,46.6731925 31.7528792,46.355318 31.7528792,45.962939 C31.7528792,45.5705599 31.4350047,45.2526854 31.0426256,45.2526854 L30.6421635,45.2526854 L29.5216077,45.2526854 L28.6640143,39.9361513 L28.9992849,39.0432386 L29.5059687,39.4162008 C29.6291473,39.5069593 29.7769264,39.5544911 29.926902,39.5544911 C29.9837469,39.5544911 30.0407675,39.5476381 30.0969974,39.5338442 C30.3016214,39.4833252 30.4734739,39.3445077 30.5655503,39.1549076 L32.4945863,35.1899989 L35.068245,36.2624958 C35.0837082,36.2689096 35.0993471,36.2747961 35.1152496,36.2801555 C35.1478454,36.2910501 38.3708712,37.4203918 38.3708712,41.4131518 L38.3708712,45.2526854 L35.4243382,45.2526854 L35.4243382,41.2061556 C35.4243382,40.8137766 35.1064637,40.4959021 34.7140846,40.4959021 C34.3217056,40.4959021 34.0038311,40.8137766 34.0038311,41.2061556 L34.0038311,45.2526854 L33.2525473,45.2526854 C32.8601683,45.2526854 32.5422938,45.5705599 32.5422938,45.962939 C32.5422938,46.355318 32.8601683,46.6731925 33.2525473,46.6731925 L39.0812126,46.6731925 C39.4735916,46.6731925 39.7914661,46.3462685 39.7914661,45.9539773 L39.7914661,41.4129761 C39.7914661,40.7313647 39.71292,40.1177562 39.5806041,39.5660885 L48.4997156,39.5660885 C48.8920947,39.5660885 49.2099692,39.2396038 49.2099692,38.8474005 L49.2099692,34.5379082 C49.2097934,32.0544809 48.1236784,30.5074566 47.2124909,29.6471396 Z M41.7377224,19.866481 C41.7377224,22.26776 39.7840859,24.2213087 37.3828948,24.2213087 L36.2839523,24.2213087 C36.1305502,24.2213087 35.9774995,24.2119956 35.8255031,24.196181 C35.8271725,24.1558536 35.8284904,24.1152627 35.8284904,24.074496 C35.8284904,23.3327889 35.541718,22.657064 35.0736044,22.1514345 L35.0736044,19.3830799 C35.0736044,18.1194893 34.7777825,16.9239017 34.253439,15.8605422 C35.8111821,15.4837142 37.6388286,14.7627418 39.0532734,13.3802778 C39.4924813,14.3175594 40.3128224,15.5383626 41.7376346,16.0787843 L41.7376346,19.866481 L41.7377224,19.866481 Z M38.6293529,25.5049312 L38.6293529,26.9567161 L36.8042543,28.8512234 L35.0362642,27.1289201 C35.0365278,27.1211006 35.0374943,27.1134569 35.0374943,27.1056374 L35.0374943,26.0363913 L35.0374943,26.0356005 L35.0374943,26.0355127 C35.1733245,25.8941473 35.2947459,25.7389001 35.3990347,25.5718798 C35.6911665,25.6168637 35.9870762,25.6418157 36.2839523,25.6418157 L37.3828948,25.6418157 C37.8108568,25.6419036 38.2276607,25.5937568 38.6293529,25.5049312 Z M34.4079833,24.0745839 C34.4079833,24.4329614 34.272768,24.7594461 34.0521537,25.0089661 C33.9198377,25.064581 33.8082566,25.159381 33.7310284,25.2785181 C33.6326261,25.3389652 33.5271073,25.3890449 33.4148232,25.4240129 L33.4148232,22.7253306 C33.9895979,22.9045633 34.4079833,23.4416464 34.4079833,24.0745839 Z M44.0284746,18.0829399 C44.0284746,18.649983 43.6642105,19.132242 43.1582295,19.3118261 L43.1582295,16.8539658 C43.6643862,17.03355 44.0284746,17.5158968 44.0284746,18.0829399 Z M30.5232901,12.0825978 C31.227042,9.34139172 33.6979933,7.42702826 36.5322423,7.42702826 L37.1084228,7.42702826 C40.5291317,7.42702826 43.3120709,10.2099675 43.3120709,13.6306764 L43.3120709,15.4222128 C43.2547867,15.409561 43.197239,15.3980515 43.1386369,15.3890899 C43.0773112,15.1301689 42.8740051,14.9214155 42.6055075,14.8603534 C40.6171666,14.4080544 40.0056668,11.8704179 40.0000438,11.846696 C39.9384545,11.5745083 39.7230238,11.3636462 39.4496061,11.3077678 C39.1761883,11.2519772 38.8953026,11.3612741 38.7317966,11.5874236 C37.4000273,13.4286003 35.1796504,14.231721 33.4665723,14.5818398 C32.6911272,13.5529211 31.6733666,12.7168532 30.4987774,12.158596 C30.5082662,12.1337319 30.5166128,12.1086042 30.5232901,12.0825978 Z M26.4714887,12.8083146 L27.078332,12.8083146 L27.078332,12.8084903 C30.703665,12.8084903 33.6531852,15.7579227 33.6531852,19.3832556 L33.6531852,21.3189688 C33.5705097,21.2992884 33.4866042,21.2828587 33.4012929,21.2705584 C33.3994479,21.2612454 33.3969878,21.2522837 33.3948792,21.2430585 C33.3920677,21.2311097 33.3891684,21.2191608 33.3857418,21.2074756 C33.3823153,21.1957903 33.3782738,21.1845443 33.3743202,21.1732105 C33.3708058,21.1632824 33.3673793,21.1533543 33.3634256,21.1435141 C33.3585934,21.1314774 33.353234,21.1197921 33.3476988,21.1081947 C33.3435694,21.0992331 33.3394401,21.0902714 33.3347835,21.0814855 C33.3288091,21.0700638 33.3224832,21.0590814 33.3159817,21.048099 C33.310798,21.0393131 33.30579,21.030615 33.300167,21.0220927 C33.2936654,21.0120768 33.2866367,21.0024123 33.279608,20.9926599 C33.2731064,20.9836983 33.266517,20.9746488 33.2596639,20.9659507 C33.2528109,20.9574284 33.2457822,20.9492575 33.2384899,20.9409987 C33.2304068,20.9317735 33.2223238,20.9226361 33.2138015,20.9138502 C33.2068606,20.9067336 33.1996561,20.9000563 33.1924517,20.8932033 C33.182875,20.8842417 33.1733862,20.87528 33.1633703,20.8667577 C33.156078,20.8606076 33.1485221,20.8548088 33.1409662,20.8488344 C33.1306867,20.8407514 33.1201436,20.8326683 33.109249,20.8252003 C33.1009024,20.8193137 33.0922044,20.8140422 33.0835063,20.8085071 C33.0730511,20.8018298 33.062508,20.7952403 33.0516134,20.7890902 C33.0414218,20.7832915 33.0307029,20.7781078 33.020072,20.7728362 C33.0103196,20.768004 33.000743,20.7630839 32.990727,20.7586909 C32.9778117,20.7529801 32.9646328,20.74806 32.9512783,20.7431398 C32.9429316,20.7399769 32.9346729,20.7367261 32.9261505,20.7339146 C32.9111266,20.7289945 32.8957513,20.724953 32.880288,20.7209993 C32.8743136,20.7195057 32.8684271,20.7173092 32.8623648,20.7159914 C30.7433773,20.2338202 30.0942737,17.5372466 30.0883872,17.5119431 C30.0267979,17.2397554 29.8113672,17.0288934 29.5380373,16.973015 C29.2645317,16.9169608 28.9837338,17.0264334 28.8202279,17.2525829 C26.3517367,20.6652088 20.9577108,20.6983317 20.8760896,20.6983317 C20.874596,20.6984195 20.8738053,20.6983317 20.8726631,20.6983317 C20.8482382,20.6983317 20.824077,20.6995617 20.8001793,20.7020218 C20.7945563,20.7025489 20.7892847,20.7037789 20.7836617,20.7044818 C20.7655628,20.7067661 20.7473759,20.7091383 20.7298041,20.7127406 C20.7232146,20.7140585 20.7168009,20.7161671 20.7102993,20.7177485 C20.6940454,20.7215265 20.6776157,20.7253044 20.6618011,20.7301367 C20.6532787,20.7327725 20.6451957,20.7362868 20.6369369,20.7391862 C20.6234945,20.7439306 20.6098763,20.7484114 20.5967853,20.7538587 C20.5862422,20.7583395 20.5763141,20.763611 20.5661224,20.768619 C20.5556672,20.773627 20.5450362,20.7781957 20.5348446,20.7836429 C20.5243893,20.7893538 20.514637,20.7958553 20.5045332,20.8020055 C20.4951322,20.8078042 20.4854677,20.8129879 20.4764182,20.819138 C20.4664901,20.8259032 20.4571771,20.8333712 20.4476883,20.8405757 C20.4390781,20.8469894 20.4300286,20.8530517 20.4218577,20.8599047 C20.4127203,20.8673727 20.4044616,20.8756315 20.3956756,20.8834509 C20.3875926,20.8908311 20.3790703,20.8978598 20.3713387,20.9055036 C20.3632556,20.9135866 20.3559633,20.9222847 20.3483196,20.9307192 C20.3406758,20.9390658 20.3326806,20.947061 20.3254762,20.9558469 C20.3183596,20.9644571 20.3120337,20.9736823 20.3053564,20.9825561 C20.2984155,20.9918692 20.2910354,21.0007429 20.2845338,21.0104074 C20.2783837,21.0194569 20.2731121,21.0291214 20.2673134,21.0385224 C20.2611633,21.0486262 20.2546617,21.0583785 20.2489508,21.0687459 C20.2436793,21.0784983 20.2391985,21.08869 20.2343662,21.0987938 C20.2292704,21.1094247 20.2236474,21.1197921 20.2189909,21.1306866 C20.2145979,21.1409662 20.2112592,21.151685 20.2073056,21.1622281 C20.2031762,21.1733862 20.1986075,21.1843686 20.1950053,21.1958781 C20.1915788,21.2066848 20.1892066,21.2178429 20.1863951,21.2288253 C20.1834079,21.2405106 20.1798935,21.2519323 20.1774335,21.2637933 C20.1769942,21.2659898 20.1766427,21.2682741 20.1762034,21.2703827 C20.0814913,21.2840009 19.9882727,21.3022756 19.8968113,21.325119 L19.8968113,19.3830799 C19.8968113,15.7577469 22.8462436,12.8083146 26.4714887,12.8083146 Z M26.7588761,35.475102 L24.85611,33.6218885 C24.8569007,33.6085339 24.8581308,33.5954429 24.8581308,33.5820004 L24.8581308,32.4550308 L24.8581308,32.4532736 L24.8581308,31.8471332 C25.2930337,31.9468534 25.7449812,32.0013261 26.2097562,32.0013261 L27.3676523,32.0013261 C27.8184577,32.0013261 28.2574021,31.950192 28.6802683,31.8562706 C28.6932714,31.8558313 28.7061867,31.8549527 28.7191899,31.8543377 L28.7191899,33.4401957 L26.7588761,35.475102 Z M27.8103746,38.168337 L27.4407511,39.1528868 L26.1172405,39.1528868 L25.6994702,38.1556852 L26.7463122,37.3851603 L27.8103746,38.168337 Z M17.2154373,32.3565407 L16.0085158,32.3565407 L15.6761446,31.4712717 L16.6425076,30.7602274 L17.5916502,31.4587957 L17.2154373,32.3565407 Z M17.3092709,35.1789287 C16.89932,35.3871549 16.3163744,35.7401731 15.7368553,36.2874478 C15.7287722,36.2950037 15.7207771,36.3029989 15.712694,36.3106427 L16.1214149,33.7771356 L17.0831213,33.7771356 L17.3092709,35.1789287 Z M16.6314374,28.8513112 L14.8063388,26.9568039 L14.8063388,25.505019 C15.2080309,25.5937568 15.6248348,25.6419915 16.0528847,25.6419915 L17.1518272,25.6419915 C17.4924572,25.6419915 17.8322965,25.6120315 18.1658978,25.553078 C18.2359215,25.6670313 18.3134133,25.7756253 18.3982853,25.8781569 L18.3982853,26.0348098 L18.3982853,26.0370942 L18.3982853,27.1058131 C18.3982853,27.1136326 18.3992517,27.1212763 18.3994274,27.1290958 L16.6314374,28.8513112 Z M19.6041524,27.9385423 C19.769064,27.7780236 19.8383849,27.5568821 19.8129936,27.34479 L20.4367937,27.7564103 C20.504621,27.973071 20.5854515,28.183933 20.6762978,28.3893477 L19.3953111,31.0225749 L17.7110508,29.782882 L19.6041524,27.9385423 Z M19.1690738,24.0746717 C19.1690738,23.4415585 19.587547,22.9043876 20.1623217,22.7252427 L20.1623217,25.4240129 C19.587547,25.244868 19.1690738,24.707697 19.1690738,24.0746717 Z M18.7687874,32.3249993 L19.2399761,32.6716915 C19.3631547,32.7624501 19.5110217,32.8099819 19.6609973,32.8099819 C19.7177543,32.8099819 19.7748627,32.8031289 19.8310048,32.789335 C20.0357166,32.738816 20.2074813,32.5999985 20.2995577,32.4103984 L21.5612154,29.8169714 C22.077388,30.4369935 22.7154213,30.951409 23.4375358,31.3255133 L23.4375358,32.0648483 L21.1605776,33.5674158 C21.129739,33.5755867 21.0989883,33.5852512 21.0688526,33.5977272 L18.6554491,34.6034511 L18.4215679,33.1539505 L18.7687874,32.3249993 Z M23.4588856,33.7527108 C23.4004593,33.9894034 23.46486,34.249818 23.6520879,34.4322136 L25.6790869,36.4067606 L23.8314085,37.7667327 L22.262683,34.5421254 L23.4588856,33.7527108 Z M27.3677401,30.5807311 L26.2098441,30.5807311 C23.6586774,30.5807311 21.5830045,28.505234 21.5830045,25.9539794 L21.5830045,22.0881759 C23.1066582,21.977649 26.7110807,21.4634972 29.1398596,19.0551016 C29.5961123,20.0474709 30.4650394,21.3661492 31.9945797,21.9356524 L31.9945797,25.9538915 L31.9944919,25.9538915 C31.994404,28.505234 29.9189068,30.5807311 27.3677401,30.5807311 Z M10.2773743,19.3118261 C9.77130547,19.132242 9.40721707,18.649983 9.40721707,18.0829399 C9.40721707,17.5158968 9.77121761,17.0336378 10.2773743,16.8539658 L10.2773743,19.3118261 Z M11.0065175,14.8424301 L11.0033546,14.8424301 C11.0007188,14.8424301 10.9981709,14.8427815 10.9955351,14.8427815 C10.9928994,14.8427815 10.9903515,14.8424301 10.9877157,14.8424301 C10.6519179,14.8424301 10.3712957,15.0756962 10.2972305,15.389002 C10.2386284,15.3979636 10.1809049,15.4094732 10.1236207,15.4221249 L10.1236207,13.6305886 C10.1236207,10.2098796 12.90656,7.4269404 16.3272689,7.4269404 L16.9034493,7.4269404 C19.7376983,7.4269404 22.2087375,9.34139172 22.9124016,12.08251 C22.923384,12.1251217 22.9384079,12.165449 22.9562433,12.2041071 C22.0208946,12.663962 21.1883411,13.3012924 20.5018974,14.071993 C19.6833135,13.2187048 19.3982105,12.0287402 19.3955747,12.0174063 C19.3338976,11.7452186 19.1185547,11.5343566 18.845137,11.4784782 C18.571895,11.4226876 18.2908335,11.5318966 18.1273276,11.7580461 C15.917933,14.8122944 11.0775078,14.8423422 11.0066054,14.8423422 L11.0065175,14.8424301 Z M11.6979692,19.866481 L11.6979692,16.2323622 C13.0952815,16.1258769 16.2690183,15.6512616 18.4518794,13.5419387 C18.707286,14.0761224 19.090967,14.6997468 19.6461491,15.2232996 C18.9043541,16.4359319 18.4760406,17.8603926 18.4760406,19.3830799 L18.4760406,22.1811309 C18.0240931,22.6833339 17.7485667,23.3471978 17.7485667,24.0744081 C17.7485667,24.1093761 17.7499725,24.1439048 17.7512025,24.1786091 C17.55308,24.2058455 17.3527611,24.2212208 17.1517394,24.2212208 L16.0527969,24.2212208 C13.6516057,24.2213965 11.6979692,22.26776 11.6979692,19.866481 Z M13.40191,27.391004 C13.4285313,27.5165547 13.4887148,27.6367461 13.5843935,27.7360269 L15.563597,29.7905258 L13.8894405,31.0224871 L12.4334383,28.0300037 L13.40191,27.391004 Z M13.9776511,38.1456693 L9.79098592,38.1456693 L9.79098592,34.3416308 C9.79098592,33.9492517 9.47293573,33.6313773 9.08073239,33.6313773 C8.68852905,33.6313773 8.37047886,33.9492517 8.37047886,34.3416308 L8.37047886,38.1456693 L5.64640528,38.1456693 L5.64640528,34.5380839 C5.64640528,30.807935 8.58959963,29.7431697 8.71154816,29.7008216 C8.72736281,29.6954621 8.7430896,29.6896634 8.75855281,29.6831619 L11.1694963,28.678668 L12.9851061,32.410662 C13.0773582,32.600262 13.249035,32.7390795 13.453659,32.7895986 C13.5098889,32.8033924 13.5669095,32.8102455 13.6236665,32.8102455 C13.77373,32.8102455 13.9215091,32.7627136 14.0446877,32.6719551 L14.4870586,32.346349 L14.7850769,33.1400688 L13.9776511,38.1456693 Z M24.0554494,45.2527733 L22.7934403,45.2527733 L19.4319484,45.2527733 L19.4319484,45.2526854 L19.4319484,41.2061556 C19.4319484,40.8137766 19.1138982,40.4959021 18.7216949,40.4959021 C18.3294037,40.4959021 18.0114413,40.8138644 18.0114413,41.2061556 L18.0114413,45.2526854 L15.0648205,45.2526854 L15.0648205,41.4131518 C15.0648205,37.4541298 18.1905862,36.3251394 18.3205299,36.2801555 C18.3363446,36.2747961 18.3520713,36.2689974 18.3675346,36.2624958 L20.9886372,35.1702306 L22.9270741,39.1549076 C23.0193262,39.3445077 23.191003,39.4833252 23.395627,39.5338442 C23.4518569,39.5475502 23.5088775,39.5544911 23.5656345,39.5544911 C23.715698,39.5544911 23.863565,39.5069593 23.9866557,39.4162008 L24.5220694,39.0221524 L24.9108463,39.9504724 L24.0554494,45.2527733 Z M25.4944947,45.2526854 L26.2494686,40.5733939 L27.327852,40.5733939 L28.082738,45.2526854 L25.4944947,45.2526854 Z M29.661128,37.7666448 L29.1014651,37.3546732 C29.0999715,37.3534432 29.0983022,37.3523888 29.0967207,37.3511588 L27.8253107,36.4153708 L29.9409595,34.219243 C30.0507835,34.1052018 30.1141299,33.9639242 30.1330196,33.8181659 L31.2298535,34.5418618 L29.661128,37.7666448 Z M34.7804183,34.6036268 L32.3975019,33.6104668 L30.1420691,32.1222203 C30.1412784,32.121781 30.1405755,32.1213417 30.1398727,32.1209024 L30.1398727,31.3256891 C30.8206934,30.9729345 31.4258673,30.4950685 31.9255224,29.9218752 L33.1363097,32.4105741 C33.2285618,32.6001742 33.4002386,32.7389917 33.6048626,32.7895107 C33.6610925,32.8033046 33.7181131,32.8101576 33.774958,32.8101576 C33.9249336,32.8101576 34.0728006,32.7626258 34.1958913,32.6718673 L34.66708,32.325175 L35.0143873,33.1542141 L34.7804183,34.6036268 Z M34.0404684,31.0223992 L32.8327562,28.5400262 C32.969553,28.2521996 33.0832427,27.9516333 33.1736498,27.641139 L33.622698,27.34479 C33.5972189,27.5568821 33.6667155,27.7779358 33.8315393,27.9385423 L35.7247287,29.782882 L34.0404684,31.0223992 Z M37.6988364,36.2874478 C37.1192294,35.7401731 36.5363717,35.3870671 36.1264208,35.1788408 L36.3526582,33.7771356 L37.3143647,33.7771356 L37.7229977,36.3106427 C37.7149146,36.3029111 37.7068316,36.2950037 37.6988364,36.2874478 Z M37.4271758,32.3565407 L36.2203423,32.3565407 L35.8441293,31.4587078 L36.7932719,30.7602274 L37.7596349,31.4713596 L37.4271758,32.3565407 Z M37.8719189,29.7904379 L39.8511225,27.7359391 C39.9468011,27.6366582 40.0070725,27.5166426 40.0336938,27.3909161 L41.0019019,28.0299159 L39.5460754,31.0223992 L37.8719189,29.7904379 Z M45.0652128,38.1456693 L45.0652128,34.3416308 C45.0652128,33.9492517 44.7472505,33.6313773 44.3549593,33.6313773 C43.9625802,33.6313773 43.6447057,33.9493396 43.6447057,34.3416308 L43.6447057,38.1456693 L39.4578648,38.1456693 L38.6504391,33.1400688 L38.9483695,32.346349 L39.3908283,32.6719551 C39.5140068,32.7627136 39.661786,32.8102455 39.8117616,32.8102455 C39.8686065,32.8102455 39.9256271,32.8033924 39.9818569,32.7895986 C40.1864809,32.7391674 40.3583335,32.600262 40.4504099,32.410662 L42.2660196,28.678668 L44.6769631,29.6831619 C44.6924263,29.6895756 44.7081531,29.6954621 44.7239678,29.7008216 C44.7545428,29.7110132 47.7891107,30.774197 47.7891107,34.5380839 L47.7891107,38.1456693 L45.0652128,38.1456693 L45.0652128,38.1456693 Z" id="Shape"></path>
                    </g>
                </g>
            </g>
        </g>
    </g>
</svg>