<?xml version="1.0" encoding="UTF-8"?>
<svg width="47px" height="46px" viewBox="0 0 47 46" version="1.1" xmlns="http://www.w3.org/2000/svg" xmlns:xlink="http://www.w3.org/1999/xlink">
    <!-- Generator: Sketch 45.2 (43514) - http://www.bohemiancoding.com/sketch -->
    <title>Group 16</title>
    <desc>Created with Sketch.</desc>
    <defs>
        <linearGradient x1="50%" y1="0%" x2="50%" y2="100%" id="linearGradient-1">
            <stop stop-color="#00DEB3" offset="0%"></stop>
            <stop stop-color="#00B4F6" offset="100%"></stop>
        </linearGradient>
    </defs>
    <g id="Page-1" stroke="none" stroke-width="1" fill="none" fill-rule="evenodd">
        <g id="LANDING" transform="translate(-577.000000, -5461.000000)" fill-rule="nonzero" fill="url(#linearGradient-1)">
            <g id="innovations" transform="translate(145.000000, 4938.000000)">
                <g id="5" transform="translate(411.000000, 502.000000)">
                    <g id="Group-16" transform="translate(11.000000, 15.000000)">
                        <path d="M33.5582709,6.56653304 C21.0877925,6.56653304 10.942163,16.7121625 10.942163,29.182641 C10.942163,41.6531194 21.0877925,51.7987489 33.5582709,51.7987489 C46.0287493,51.7987489 56.1743788,41.6531194 56.1743788,29.182641 C56.1743788,16.7121625 46.0287493,6.56653304 33.5582709,6.56653304 Z M53.3460378,22.6281694 L51.9554797,22.6281694 C51.5268463,22.6281694 51.0975943,22.7295277 50.7143298,22.9211084 L50.2044448,23.1761025 C49.882944,23.3367498 49.4977204,23.3127248 49.1985948,23.1135139 L47.2766014,21.8321507 C47.1311115,21.7352261 46.9600499,21.6833612 46.7852764,21.6833612 L46.5506984,21.6833612 L47.206692,20.6992676 C47.2396876,20.6498773 47.2946459,20.6204906 47.354038,20.6204906 L48.7337693,20.6204906 L48.7337693,21.0055079 C48.7337693,21.4946676 49.130232,21.8912334 49.6194948,21.8912334 C50.0556553,21.8912334 50.4173695,21.5757131 50.4908878,21.1606903 L50.8139353,21.3222656 C51.1321365,21.4813663 51.4881796,21.5654019 51.8438103,21.5654019 L52.9614329,21.5654019 C53.0992926,21.914949 53.2269443,22.2696516 53.3460378,22.6281694 Z M46.7262968,14.457223 C46.7262968,14.4417564 46.7325866,14.4264959 46.7435164,14.415463 L47.411574,13.7474053 C47.4338461,13.7251333 47.4546745,13.7018302 47.4741625,13.6777021 C47.8646448,14.0285897 48.242135,14.3935003 48.6051896,14.7724341 L48.0484921,15.3291316 C47.7025539,15.6750698 47.7025539,16.2358918 48.0484921,16.5817268 C48.2214096,16.7546444 48.4481512,16.8411547 48.6747897,16.8411547 C48.9014282,16.8411547 49.1281698,16.7547475 49.3010873,16.5817268 L49.777255,16.1055592 C50.6961823,17.2429792 51.4982845,18.4782517 52.1647955,19.7937448 L51.8437071,19.7937448 C51.7616306,19.7937448 51.679451,19.7742567 51.6059327,19.7376523 L50.2399151,19.0545404 C49.9707948,18.9199802 49.6695037,18.8489366 49.3685221,18.8489366 L47.3538317,18.8489366 C46.7008283,18.8489366 46.0946374,19.1733245 45.7324076,19.7166176 L44.4216577,21.6833612 L43.5965616,21.6833612 C43.2383532,21.6833612 42.947064,21.3919688 42.947064,21.0338635 L42.947064,19.4709035 C42.947064,19.4455381 42.9632524,19.4229568 42.9874836,19.4149141 L44.7157309,18.8388317 C45.1465296,18.6951977 45.5439203,18.4495868 45.8651118,18.1284984 C46.420572,17.5730382 46.7262968,16.8347618 46.7262968,16.0493636 L46.7262968,14.457223 L46.7262968,14.457223 Z M19.642173,13.6777021 C19.6616611,13.7017271 19.6822833,13.7249271 19.7047616,13.7473022 L20.6495698,14.6921104 C20.8155788,14.8583257 21.04098,14.9515383 21.2758674,14.9515383 C21.5107548,14.9515383 21.7361559,14.8582226 21.902165,14.6921104 L23.2381772,13.355892 C23.4276956,13.1663736 23.6799057,13.0619219 23.948098,13.0619219 L25.1140798,13.0619219 L25.1140798,13.1210046 C25.1140798,13.4279667 25.2730773,13.7130693 25.534155,13.8744384 C25.7952326,14.0359106 26.1213734,14.0505524 26.3959586,13.9132082 L27.9419053,13.1400802 C28.0442948,13.088937 28.1588513,13.0619219 28.2734079,13.0619219 L31.4332516,13.0619219 C31.0877258,13.2872199 30.8475798,13.6465626 30.7734428,14.074371 C30.6691973,14.6765406 30.9202732,15.2612844 31.4288178,15.6003141 L32.646149,16.4119026 C32.6625436,16.4229355 32.6723392,16.4411862 32.6723392,16.4609836 L32.6723392,16.9002374 C32.6723392,16.9328206 32.6458396,16.9593202 32.6132565,16.9593202 L32.2064827,16.9593202 C31.6228731,16.9593202 31.0742183,17.1865773 30.661464,17.5992285 L24.7051407,23.5555518 C24.6941078,23.5665847 24.6789504,23.5727714 24.6633806,23.5727714 L23.1653807,23.5727714 C21.6350038,23.5727714 20.3900388,24.8177364 20.3900388,26.3481132 L20.3900388,26.7794275 L19.4081105,26.5830006 C19.1740481,26.5361881 18.9787554,26.3868831 18.8719322,26.1735459 L18.288735,25.0073579 C18.1387082,24.7072011 17.8320554,24.5175796 17.4965315,24.5175796 L16.9689113,24.5175796 C16.5361535,24.5175796 16.1534046,24.2416539 16.0166791,23.8311681 L14.7833656,20.1312278 C15.973063,17.6735717 17.6320196,15.4839016 19.642173,13.6777021 Z M33.5582709,50.0271948 C22.0645652,50.0271948 12.7136139,40.6762436 12.7136139,29.182641 C12.7136139,26.9060481 13.081721,24.7141096 13.759368,22.6616805 L14.335966,24.3914745 C14.7122189,25.5204394 15.760757,26.2808847 16.9490108,26.2891336 L17.2873188,26.9658526 C17.6401654,27.6717521 18.2864666,28.1652424 19.0604195,28.3202186 L22.4382403,28.9957003 C22.6281712,29.0336452 22.8008825,29.126136 22.9378142,29.2630677 C23.2126056,29.5379623 23.53555,29.7474843 23.8874686,29.8837973 L23.2698323,31.7369123 C23.2397239,31.8272378 23.2243603,31.9216877 23.2243603,32.0170656 L23.2243603,33.906682 C23.2243603,34.7754972 23.639383,35.6056457 24.3344558,36.1269761 L26.6019749,37.8275896 C26.85336,38.0160769 27.00349,38.3163368 27.00349,38.6305168 L27.00349,43.7272018 C27.00349,44.277094 27.1646528,44.8094572 27.4696559,45.2667555 L28.831549,47.3096983 C29.1279938,47.7542109 29.6237526,48.0196192 30.158075,48.0196192 L30.4874122,48.0196192 C31.1059765,48.0196192 31.6093655,47.5162301 31.6093655,46.8976659 L31.6093655,45.2778916 C31.6093655,44.8835942 31.7628982,44.5128062 32.0417109,44.2339935 L33.7900649,42.4856394 C34.1447676,42.1309368 34.4159501,41.6919923 34.5747414,41.2160309 L35.1279332,39.5565587 C35.1359758,39.5323276 35.1585572,39.5161391 35.1839226,39.5161391 L35.6549347,39.5161391 C36.4965285,39.5161391 37.2268654,38.945934 37.4308194,38.1294993 L38.0670157,35.5848172 C38.2219918,34.9647063 38.0375259,34.2986078 37.5853831,33.8466712 L36.3507292,32.6120174 C36.0051004,32.2663885 35.5453274,32.075839 35.056374,32.075839 L33.9249344,32.075839 L30.68188,28.8327845 C30.3362512,28.4871557 29.8764782,28.2966062 29.3875247,28.2966062 L25.0754131,28.2966062 C25.0615962,28.2962968 25.0478824,28.2962968 25.0340655,28.2966062 L24.8818733,28.2966062 C24.6207957,28.2966062 24.3750816,28.1949385 24.1905125,28.0101632 C23.8054952,27.6250427 23.3196351,27.3650993 22.785622,27.2583792 L22.1614897,27.1335115 L22.1614897,26.3482163 C22.1614897,25.7947153 22.6117765,25.3443254 23.1653807,25.3443254 L24.1692716,25.3443254 L24.1692716,25.4034081 C24.1692716,25.8925678 24.5658374,26.2891336 25.0549971,26.2891336 C25.5441568,26.2891336 25.9407225,25.8925678 25.9407225,25.4034081 L25.9407225,24.8238199 C25.9462906,24.818355 25.9523741,24.8136119 25.9579421,24.8082501 L31.9142654,18.8519268 C31.9923206,18.7738716 32.0961537,18.7308742 32.2065858,18.7308742 L32.6133596,18.7308742 C33.6227154,18.7308742 34.4438933,17.9096964 34.4438933,16.9003405 L34.4438933,16.4610867 C34.4438933,15.8475749 34.1390965,15.2781947 33.628799,14.9380307 L32.8811395,14.4394879 L34.3160353,14.0806608 C34.9475916,13.9229007 35.3887015,13.3580573 35.3887015,12.7064975 C35.3887015,11.9257392 34.7534332,11.2904709 33.9726749,11.2904709 L28.2734079,11.2904709 C27.8852972,11.2904709 27.496671,11.3821368 27.1495986,11.5557761 L26.5643393,11.8484058 C26.2936723,11.5086543 25.8764842,11.2904709 25.4092873,11.2904709 L23.9479949,11.2904709 C23.2067283,11.2904709 22.5096964,11.5790793 21.9854789,12.1033999 L21.2756612,12.8132176 L21.0108715,12.5485311 C24.5040738,9.90713068 28.851037,8.33798397 33.5580647,8.33798397 C38.2650923,8.33798397 42.6120556,9.90702756 46.1050516,12.548428 L45.4907149,13.1627647 C45.1448799,13.5085997 44.9545365,13.9681665 44.9545365,14.4571199 L44.9545365,16.0491573 C44.9545365,16.3613781 44.8328653,16.6549358 44.6122072,16.875697 C44.4845555,17.0033487 44.3266922,17.1008919 44.1553214,17.1581186 L42.427074,17.7342011 C41.6784865,17.9837302 41.1753037,18.681587 41.1753037,19.4709035 L41.1753037,21.0337604 C41.1753037,21.4800258 41.298831,21.8972139 41.5103121,22.2565565 C41.1509695,22.4984555 40.8358615,22.8098514 40.587879,23.1820829 L39.7518532,24.4359155 C39.4468502,24.8933169 39.2856873,25.4256802 39.2856873,25.9754692 L39.2856873,27.6655654 C39.2856873,28.2153545 39.4468502,28.7477178 39.7518532,29.2051192 L40.7631681,30.7219885 C41.2791367,31.4959414 42.1423839,31.9578797 43.0723441,31.9578797 L45.4230739,31.9578797 C45.8559349,31.9578797 46.2385807,32.2335991 46.3753062,32.6442912 L46.586478,33.2774972 C46.7573333,33.7901663 46.8440498,34.3241793 46.8440498,34.8647915 L46.8440498,35.5334678 C46.8440498,36.4168218 46.9670615,37.2955357 47.2098885,38.1452753 L48.7287169,43.4615872 C44.9250467,47.5007635 39.5315045,50.0271948 33.5582709,50.0271948 Z M27.6650516,36.4103258 L25.3975326,34.7097122 C25.1461474,34.5211218 24.9960175,34.2208619 24.9960175,33.906682 L24.9960175,32.1608026 L25.6935649,30.0684695 L29.387731,30.0684695 C29.4033008,30.0684695 29.4185612,30.0747593 29.429491,30.0856891 L32.9319733,33.5881714 C33.0979824,33.7543867 33.3233835,33.8475992 33.5582709,33.8475992 L35.0564771,33.8475992 C35.0720469,33.8475992 35.0873073,33.853889 35.0982371,33.8648188 L36.332891,35.0994727 C36.3475328,35.1141145 36.3534101,35.1356647 36.3484608,35.1555652 L35.7122645,37.7001441 C35.7056654,37.7264375 35.682156,37.7447913 35.6550378,37.7447913 L35.1840257,37.7447913 C34.3949154,37.7447913 33.6970586,38.2477679 33.4473232,38.9965616 L32.8941315,40.6560338 C32.8220567,40.8723611 32.6986326,41.0718814 32.5374697,41.2330442 L30.7891157,42.9813982 C30.175707,43.5948069 29.8379146,44.4104168 29.8379146,45.2778916 L29.8379146,45.6256857 L28.9435278,44.2842086 C28.8331988,44.1188182 28.775044,43.9262064 28.775044,43.727408 L28.775044,38.6308261 C28.7751472,37.7615984 28.3602276,36.9314499 27.6650516,36.4103258 Z M48.9135953,37.6586934 C48.7161373,36.9673326 48.6159132,36.2522562 48.6159132,35.5334678 L48.6159132,34.8647915 C48.6159132,34.1335267 48.4986757,33.4110263 48.2675003,32.7172939 L48.0563285,32.0840879 C47.6780134,30.9491426 46.6199891,30.1864288 45.4234864,30.1864288 L43.0727566,30.1864288 C42.7364077,30.1864288 42.4241869,30.0192855 42.2375556,29.7394416 L41.2262407,28.2224692 C41.1159116,28.0569757 41.0575507,27.864467 41.0575507,27.6656685 L41.0575507,25.9755724 C41.0575507,25.7766708 41.1159116,25.5841621 41.2262407,25.4187717 L42.0622665,24.164836 C42.3586082,23.7203235 42.8544701,23.4549152 43.3887925,23.4549152 L46.5172903,23.4549152 L48.2160478,24.5873859 C49.0425875,25.1384123 50.108242,25.2048159 50.9967515,24.7605096 L51.5066365,24.5055155 C51.6453211,24.4362248 51.8005035,24.3996203 51.9555828,24.3996203 L53.8483957,24.3996203 C54.2105223,25.9360808 54.403031,27.5372951 54.403031,29.182641 C54.4031341,33.9393682 52.8003731,38.3280915 50.1084483,41.8397507 L48.9135953,37.6586934 Z" id="Shape"></path>
                        <path d="M29.6264335,14.6144677 C29.4077346,14.1768636 28.8756806,13.9994092 28.4380765,14.2183143 L26.5484601,15.1631225 C26.1108561,15.3818214 25.9335048,15.9138754 26.1523068,16.3514795 C26.3074892,16.6618443 26.6202256,16.8412578 26.9452321,16.8412578 C27.0783487,16.8412578 27.2134245,16.8111493 27.3406637,16.7476328 L29.2302801,15.8028246 C29.6678842,15.5841257 29.8452355,15.0520717 29.6264335,14.6144677 Z" id="Shape"></path>
                        <path d="M43.0062498,13.1800873 C42.5170901,13.1800873 42.1205244,13.5766531 42.1205244,14.0658128 L42.1205244,15.010621 C42.1205244,15.4997807 42.516987,15.8963465 43.0062498,15.8963465 C43.4954095,15.8963465 43.8919753,15.4997807 43.8919753,15.010621 L43.8919753,14.0658128 C43.8919753,13.5766531 43.4954095,13.1800873 43.0062498,13.1800873 Z" id="Shape"></path>
                    </g>
                </g>
            </g>
        </g>
    </g>
</svg>