<?xml version="1.0" encoding="UTF-8"?>
<svg width="47px" height="41px" viewBox="0 0 47 41" version="1.1" xmlns="http://www.w3.org/2000/svg" xmlns:xlink="http://www.w3.org/1999/xlink">
    <!-- Generator: Sketch 45.2 (43514) - http://www.bohemiancoding.com/sketch -->
    <title>Shape</title>
    <desc>Created with Sketch.</desc>
    <defs>
        <linearGradient x1="50%" y1="0%" x2="50%" y2="100%" id="linearGradient-1">
            <stop stop-color="#00DEB3" offset="0%"></stop>
            <stop stop-color="#00B4F6" offset="100%"></stop>
        </linearGradient>
    </defs>
    <g id="Page-1" stroke="none" stroke-width="1" fill="none" fill-rule="evenodd">
        <g id="LANDING" transform="translate(-182.000000, -5792.000000)" fill-rule="nonzero" fill="url(#linearGradient-1)">
            <g id="innovations" transform="translate(145.000000, 4938.000000)">
                <g id="7" transform="translate(16.000000, 830.000000)">
                    <g id="Group-18" transform="translate(12.000000, 21.000000)">
                        <path d="M53.3282347,10.9440002 L51.7809031,10.9440002 L51.7809031,8.61133955 L44.0053675,8.61133955 L44.0053675,10.9440002 L40.8951532,10.9440002 L40.8951532,6.43885489 C40.8951532,5.06414019 39.7770312,3.94601817 38.4023165,3.94601817 L26.2818116,3.94601817 C24.9070969,3.94601817 23.7889748,5.06414019 23.7889748,6.43885489 L23.7889748,10.9440002 L20.6787606,10.9440002 L20.6787606,8.61133955 L12.9032249,8.61133955 L12.9032249,10.9440002 L11.3558933,10.9440002 C10.065932,10.9440002 9.01545712,11.9944751 9.01545712,13.2844365 L9.01545712,41.2608137 C9.01545712,42.5507751 10.065932,43.6012499 11.3558933,43.6012499 L53.3282347,43.6012499 C54.6181961,43.6012499 55.668671,42.5507751 55.668671,41.2608137 L55.668671,13.2844365 C55.668671,11.9944751 54.6181961,10.9440002 53.3282347,10.9440002 Z M45.5604746,10.1664467 L50.225796,10.1664467 L50.225796,10.9440002 L45.5604746,10.9440002 L45.5604746,10.1664467 Z M25.344082,6.43885489 C25.344082,5.92178177 25.7647384,5.50112529 26.2818116,5.50112529 L38.4023165,5.50112529 C38.9193896,5.50112529 39.3400461,5.92178177 39.3400461,6.43885489 L39.3400461,10.9440002 L25.344082,10.9440002 L25.344082,6.43885489 Z M23.7889748,12.4991074 L40.8951532,12.4991074 L44.0053675,12.4991074 L47.8931353,12.4991074 L47.8931353,42.0461428 L16.7909928,42.0461428 L16.7909928,12.4991074 L20.6787606,12.4991074 L23.7889748,12.4991074 Z M14.4583321,10.1664467 L19.1236535,10.1664467 L19.1236535,10.9440002 L14.4583321,10.9440002 L14.4583321,10.1664467 Z M10.5705642,41.2608137 L10.5705642,13.2844365 C10.5705642,12.8513391 10.922796,12.4991074 11.3558933,12.4991074 L12.9032249,12.4991074 L15.2358856,12.4991074 L15.2358856,42.0461428 L11.3558933,42.0461428 C10.922796,42.0461428 10.5705642,41.693911 10.5705642,41.2608137 Z M54.1135638,41.2608137 C54.1135638,41.693911 53.7613321,42.0461428 53.3282347,42.0461428 L49.4482424,42.0461428 L49.4482424,12.4991074 L51.7809031,12.4991074 L53.3282347,12.4991074 C53.7613321,12.4991074 54.1135638,12.8513391 54.1135638,13.2844365 L54.1135638,41.2608137 Z" id="Shape"></path>
                    </g>
                </g>
            </g>
        </g>
    </g>
</svg>