<?xml version="1.0" encoding="UTF-8"?>
<svg width="47px" height="47px" viewBox="0 0 47 47" version="1.1" xmlns="http://www.w3.org/2000/svg" xmlns:xlink="http://www.w3.org/1999/xlink">
    <!-- Generator: Sketch 45.2 (43514) - http://www.bohemiancoding.com/sketch -->
    <title>Group 20</title>
    <desc>Created with Sketch.</desc>
    <defs>
        <linearGradient x1="50%" y1="0%" x2="50%" y2="100%" id="linearGradient-1">
            <stop stop-color="#00DEB3" offset="0%"></stop>
            <stop stop-color="#00B4F6" offset="100%"></stop>
        </linearGradient>
    </defs>
    <g id="Page-1" stroke="none" stroke-width="1" fill="none" fill-rule="evenodd">
        <g id="LANDING" transform="translate(-972.000000, -5790.000000)" fill-rule="nonzero" fill="url(#linearGradient-1)">
            <g id="innovations" transform="translate(145.000000, 4938.000000)">
                <g id="9" transform="translate(806.000000, 830.000000)">
                    <g id="Group-20" transform="translate(18.000000, 17.000000)">
                        <path d="M43.1319882,11.7921516 C38.7875932,7.44766673 33.011449,5.05515865 26.8675515,5.05515865 C20.7236541,5.05515865 14.9475099,7.44766673 10.6031149,11.7921516 C6.25871985,16.1365466 3.86612192,21.9126908 3.86612192,28.0565883 C3.86612192,34.2004858 6.25871985,39.9766299 10.6031149,44.321025 C14.9475099,48.6655098 20.7236541,51.0580179 26.8675515,51.0580179 C33.011449,51.0580179 38.7875932,48.6655098 43.1319882,44.321025 C47.4763832,39.9766299 49.8689812,34.2004858 49.8689812,28.0565883 C49.8689812,21.9126908 47.4763832,16.1365466 43.1319882,11.7921516 Z M42.1134562,43.302403 C38.0410351,47.3746444 32.6266243,49.6174635 26.8675515,49.6174635 C21.1084788,49.6174635 15.694068,47.3746444 11.6216469,43.302403 C7.54940554,39.2300718 5.3066763,33.8156611 5.3066763,28.0565883 C5.3066763,22.2975155 7.54940554,16.8831047 11.6216469,12.8107735 C15.694068,8.73853212 21.1084788,6.49571303 26.8675515,6.49571303 C32.6266243,6.49571303 38.0410351,8.73853212 42.1134562,12.8107735 C46.1856976,16.8830149 48.4284268,22.2974256 48.4284268,28.0565883 C48.4284268,33.8157509 46.1856976,39.2300718 42.1134562,43.302403 Z" id="Shape"></path>
                        <path d="M26.8675515,8.8967568 C16.3027074,8.8967568 7.70772007,17.4917441 7.70772007,28.0565883 C7.70772007,38.6214324 16.3027074,47.2164198 26.8675515,47.2164198 C37.4323957,47.2164198 46.027383,38.6214324 46.027383,28.0565883 C46.027383,17.4917441 37.4323957,8.8967568 26.8675515,8.8967568 Z M26.8675515,45.7758654 C17.0970654,45.7758654 9.14827445,37.8269846 9.14827445,28.0565883 C9.14827445,18.2861919 17.0970654,10.3373112 26.8675515,10.3373112 C36.6380377,10.3373112 44.5868286,18.2861919 44.5868286,28.0565883 C44.5868286,37.8269846 36.6380377,45.7758654 26.8675515,45.7758654 Z" id="Shape"></path>
                        <path d="M32.0346969,26.9965458 C33.0706598,26.1595993 33.7343768,24.8791564 33.7343768,23.4467783 C33.7343768,20.9314462 31.6878785,18.8849479 29.1725464,18.8849479 L28.3561753,18.8849479 L28.3561753,17.3002752 C28.3561753,16.9024223 28.0337061,16.5799531 27.6358532,16.5799531 C27.2380004,16.5799531 26.9155311,16.9023325 26.9155311,17.3002752 L26.9155311,18.8849479 L25.2828788,18.8849479 L25.2828788,17.3002752 C25.2828788,16.9024223 24.9604096,16.5799531 24.5625567,16.5799531 C24.1647039,16.5799531 23.8422346,16.9023325 23.8422346,17.3002752 L23.8422346,18.8849479 L20.7209586,18.8849479 C20.3231956,18.8849479 20.0006365,19.2073273 20.0006365,19.60527 C20.0006365,20.0031229 20.3231057,20.3255921 20.7209586,20.3255921 L21.5373296,20.3255921 L21.5373296,35.7879438 L20.7209586,35.7879438 C20.3231956,35.7879438 20.0006365,36.1103232 20.0006365,36.5082659 C20.0006365,36.9061188 20.3231057,37.228588 20.7209586,37.228588 L23.8422346,37.228588 L23.8422346,38.8132608 C23.8422346,39.2111136 24.1647039,39.5335829 24.5625567,39.5335829 C24.9604096,39.5335829 25.2828788,39.2112035 25.2828788,38.8132608 L25.2828788,37.228588 L26.9155311,37.228588 L26.9155311,38.8132608 C26.9155311,39.2111136 27.2380004,39.5335829 27.6358532,39.5335829 C28.0337061,39.5335829 28.3561753,39.2112035 28.3561753,38.8132608 L28.3561753,37.228588 L29.940848,37.228588 C32.8799096,37.228588 35.27107,34.8375175 35.27107,31.8983661 C35.2709801,29.7019093 33.9359088,27.811659 32.0346969,26.9965458 Z M22.9779739,20.3254124 L29.1725464,20.3254124 C30.8936104,20.3254124 32.2938224,21.7255346 32.2938224,23.4466885 C32.2938224,25.1678423 30.8936104,26.5679645 29.1725464,26.5679645 L22.9779739,26.5679645 L22.9779739,20.3254124 Z M29.940848,35.7877641 L22.9779739,35.7877641 L22.9779739,28.0086087 L29.940848,28.0086087 C32.0856415,28.0086087 33.8304257,29.7534828 33.8304257,31.8981864 C33.8304257,34.04289 32.0855516,35.7877641 29.940848,35.7877641 Z" id="Shape"></path>
                    </g>
                </g>
            </g>
        </g>
    </g>
</svg>