<?xml version="1.0" encoding="UTF-8"?>
<svg width="55px" height="52px" viewBox="0 0 55 52" version="1.1" xmlns="http://www.w3.org/2000/svg" xmlns:xlink="http://www.w3.org/1999/xlink">
    <!-- Generator: Sketch 45.2 (43514) - http://www.bohemiancoding.com/sketch -->
    <title> </title>
    <desc>Created with Sketch.</desc>
    <defs>
        <linearGradient x1="50%" y1="0%" x2="50%" y2="100%" id="linearGradient-1">
            <stop stop-color="#00DEB3" offset="0%"></stop>
            <stop stop-color="#00B4F6" offset="100%"></stop>
        </linearGradient>
    </defs>
    <g id="Page-1" stroke="none" stroke-width="1" fill="none" fill-rule="evenodd">
        <g id="LANDING" transform="translate(-573.000000, -5130.000000)" fill-rule="nonzero" fill="url(#linearGradient-1)">
            <g id="innovations" transform="translate(145.000000, 4938.000000)">
                <g id="2" transform="translate(411.000000, 173.000000)">
                    <g id="Group-13" transform="translate(11.000000, 11.000000)">
                        <path d="M34.0476667,20.2050703 C31.6155523,20.2050703 29.6367969,22.1836143 29.6367969,24.615623 C29.6367969,27.0477375 31.6155523,29.0263871 34.0476667,29.0263871 C36.4797811,29.0263871 38.4585365,27.0477375 38.4585365,24.615623 C38.4584308,22.1836143 36.4797811,20.2050703 34.0476667,20.2050703 Z M34.0476667,27.3126286 C32.5604291,27.3126286 31.3504498,26.1026492 31.3504498,24.6155173 C31.3504498,23.1284911 32.5604291,21.9185118 34.0476667,21.9185118 C35.5349043,21.9185118 36.7448836,23.1283854 36.7448836,24.6155173 C36.7448836,26.1027549 35.5349043,27.3126286 34.0476667,27.3126286 Z" id="Shape"></path>
                        <path d="M51.5781497,45.1565202 L51.5781497,32.5067557 C51.5781497,32.2786492 51.4871397,32.0598445 51.3253088,31.8989649 L43.0922277,23.717044 L43.0922277,21.9106898 C43.0922277,18.9639087 42.2587616,16.0988358 40.6819937,13.6250745 C39.1479298,11.2183287 36.9837718,9.28481411 34.4237571,8.03361073 C34.1863487,7.91754911 33.908879,7.91754911 33.6713649,8.03361073 C31.1113502,9.28481411 28.9472979,11.2183287 27.4133397,13.6250745 C25.8365718,16.0987301 25.0031057,18.9640144 25.0031057,21.9106898 L25.0031057,23.717044 L16.7698132,31.8989649 C16.6079823,32.0598445 16.5169723,32.2785435 16.5169723,32.5067557 L16.5169723,45.1565202 C16.5169723,45.6296457 16.9005675,46.0133467 17.3737987,46.0133467 L25.0031057,46.0133467 L25.0031057,46.0471715 C25.0031057,47.7152665 26.3602232,49.0723841 28.0284239,49.0723841 L29.3002393,49.0723841 C28.7948745,50.1292001 28.531569,51.2838969 28.531569,52.4777037 C28.531569,55.8030063 30.6307198,58.8006304 33.7547644,59.9367235 C33.8493684,59.9710769 33.9484118,59.9883065 34.0476667,59.9883065 C34.1467102,59.9883065 34.2458593,59.9711826 34.3404633,59.9367235 C37.4646136,58.8005247 39.5637644,55.8029006 39.5637644,52.4777037 C39.5637644,51.2838969 39.3005646,50.1292001 38.7951998,49.0723841 L40.0671209,49.0723841 C41.7353216,49.0723841 43.0923334,47.7152665 43.0923334,46.0471715 L43.0923334,46.0133467 L50.7213233,46.0133467 C51.1946602,46.013241 51.5781497,45.6296457 51.5781497,45.1565202 Z M25.0031057,42.7471319 L25.0031057,44.2999052 L18.2305195,44.2999052 L18.2305195,44.2997995 L18.2305195,32.8631854 L25.0031057,26.1329859 L25.0031057,42.7471319 Z M28.0284239,47.3587312 C27.3051001,47.3588369 26.7166529,46.7703897 26.7166529,46.0470658 L26.7166529,45.1565202 L26.7166529,43.6037469 L33.1908403,43.6037469 L33.1908403,47.3587312 L28.0284239,47.3587312 Z M34.0476667,58.2113376 C31.7608935,57.2452146 30.2451162,54.9797933 30.2451162,52.477598 C30.2451162,51.2737494 30.5861132,50.1196869 31.2352338,49.1154051 L33.1908403,49.1154051 L33.1908403,50.6983037 C33.1908403,51.1714292 33.5744355,51.5551301 34.0476667,51.5551301 C34.5210036,51.5551301 34.9044931,51.1715349 34.9044931,50.6983037 L34.9044931,49.1154051 L36.8602053,49.1154051 C37.5092202,50.1196869 37.8502172,51.2736437 37.8502172,52.477598 C37.8501115,54.9797933 36.3345456,57.2452146 34.0476667,58.2113376 Z M41.3787862,46.0470658 L41.3786805,46.0470658 C41.3786805,46.7703897 40.7902334,47.3587312 40.0670152,47.3587312 L34.9044931,47.3587312 L34.9044931,43.6037469 L41.3787862,43.6037469 L41.3787862,46.0470658 L41.3787862,46.0470658 Z M49.8646025,44.2996938 L43.0922277,44.2996938 L43.0922277,42.7470262 L43.0922277,37.46506 C43.0922277,36.9919345 42.7087382,36.6082336 42.2354013,36.6082336 C41.7620644,36.6082336 41.3785748,36.9918288 41.3785748,37.46506 L41.3785748,41.8903054 L34.9042817,41.8903054 L34.9042817,39.6148424 C34.9042817,39.141717 34.5207922,38.758016 34.0474553,38.758016 C33.5743298,38.758016 33.1906289,39.1416113 33.1906289,39.6148424 L33.1906289,41.8903054 L26.7164415,41.8903054 L26.7164415,24.0735794 L26.7164415,21.9106898 C26.7164415,16.7651859 29.5146045,12.1491471 34.0474553,9.76396465 C38.5804118,12.1490414 41.3785748,16.7650802 41.3785748,21.9106898 L41.3785748,34.5519981 C41.3785748,35.0251236 41.7620644,35.4088245 42.2354013,35.4088245 C42.7086325,35.4088245 43.0922277,35.0252293 43.0922277,34.5519981 L43.0922277,26.1328802 L49.8646025,32.8630797 L49.8646025,44.2996938 Z" id="Shape"></path>
                        <path d="M53.619164,50.4698801 C52.6576919,50.4698801 51.707847,50.6618362 50.8280831,51.0290476 C50.3479812,49.5044969 48.9212055,48.3958865 47.2402148,48.3958865 C45.1666441,48.3958865 43.4796283,50.0829023 43.4796283,52.1565787 C43.4796283,52.6297042 43.8631178,53.0134052 44.3364547,53.0134052 C44.8097916,53.0134052 45.1932812,52.6298099 45.1932812,52.1565787 C45.1932812,51.0277791 46.1115209,50.1094337 47.2403205,50.1094337 C48.3691201,50.1094337 49.2874656,51.0277791 49.2874656,52.1565787 C49.2874656,52.6402745 49.1158043,53.1095947 48.8040869,53.4779688 C48.4983946,53.839155 48.5434239,54.3797189 48.9046102,54.6854112 C49.0655955,54.8215563 49.2620969,54.8881491 49.457647,54.8881491 C49.7009747,54.8881491 49.9426112,54.7850889 50.1121584,54.5848879 C50.5270416,54.0947443 50.8060969,53.5073541 50.9291349,52.8837079 C51.7473798,52.4264379 52.6754499,52.1834272 53.6192697,52.1834272 C56.664143,52.1834272 59.1413925,54.6606768 59.1413925,57.70555 C59.1413925,58.1786755 59.524882,58.5623765 59.9982189,58.5623765 C60.4715558,58.5623765 60.8550454,58.1787812 60.8550454,57.70555 C60.854834,53.7157999 57.6089141,50.4698801 53.619164,50.4698801 Z" id="Shape"></path>
                        <path d="M23.1431602,54.0942158 C22.7998377,54.0942158 22.4663455,54.1355455 22.1459605,54.2114401 C22.26847,54.002043 22.3020835,53.7425427 22.2157243,53.4956211 C21.5513826,51.5983626 19.7527447,50.3234818 17.7398473,50.3234818 C16.2554637,50.3234818 14.856065,51.0236567 13.9617141,52.2020309 C13.4861575,52.0764561 12.9899888,52.0101804 12.4827213,52.0101804 C9.31343595,52.0101804 6.73502891,54.5884818 6.73502891,57.7577672 C6.73502891,58.2308927 7.11862417,58.6145936 7.59185536,58.6145936 C8.06508654,58.6145936 8.4486818,58.2309984 8.4486818,57.7577672 C8.4486818,55.5333586 10.2584185,53.7237276 12.482827,53.7237276 C13.8786318,53.7237276 15.1562608,54.4300334 15.9006196,55.6131642 C16.1525092,56.0135662 16.6814457,56.134173 17.0820591,55.8821777 C17.4825668,55.6301823 17.6029623,55.1012458 17.3509669,54.7007381 C16.8929569,53.972869 16.2927767,53.3723717 15.5988382,52.9242978 C16.1623396,52.3620649 16.9316441,52.0369232 17.7401644,52.0369232 C19.0259326,52.0369232 20.17471,52.850623 20.598578,54.061765 C20.6894824,54.3212652 20.8929602,54.5086762 21.1349138,54.5899616 C19.7567614,55.3149767 18.8143157,56.7606732 18.8143157,58.4230602 C18.8143157,58.8961857 19.197911,59.2798867 19.6711422,59.2798867 C20.1443733,59.2798867 20.5279686,58.8962914 20.5279686,58.4230602 C20.5279686,56.9809577 21.7012691,55.8076572 23.1434773,55.8076572 C24.5856856,55.8076572 25.7590917,56.9809577 25.7590917,58.4230602 C25.7590917,58.8961857 26.142687,59.2798867 26.6159182,59.2798867 C27.0890436,59.2798867 27.4727446,58.8962914 27.4727446,58.4230602 C27.4722161,56.0360809 25.5301396,54.0942158 23.1431602,54.0942158 Z" id="Shape"></path>
                    </g>
                </g>
            </g>
        </g>
    </g>
</svg>