<?xml version="1.0" encoding="UTF-8"?>
<svg width="37px" height="43px" viewBox="0 0 37 43" version="1.1" xmlns="http://www.w3.org/2000/svg" xmlns:xlink="http://www.w3.org/1999/xlink">
    <!-- Generator: Sketch 45.2 (43514) - http://www.bohemiancoding.com/sketch -->
    <title>Group 14</title>
    <desc>Created with Sketch.</desc>
    <defs>
        <linearGradient x1="50%" y1="0%" x2="50%" y2="100%" id="linearGradient-1">
            <stop stop-color="#00DEB3" offset="0%"></stop>
            <stop stop-color="#00B4F6" offset="100%"></stop>
        </linearGradient>
    </defs>
    <g id="Page-1" stroke="none" stroke-width="1" fill="none" fill-rule="evenodd">
        <g id="LANDING" transform="translate(-977.000000, -5134.000000)" fill-rule="nonzero" fill="url(#linearGradient-1)">
            <g id="innovations" transform="translate(145.000000, 4938.000000)">
                <g id="3" transform="translate(806.000000, 173.000000)">
                    <g id="Group-14" transform="translate(18.000000, 11.000000)">
                        <path d="M44.1932971,19.5596156 C38.3193666,17.9501528 32.4109154,15.4440703 27.106659,12.3123635 C26.8249071,12.146014 26.4752813,12.146014 26.1936128,12.3123635 C20.7363481,15.5340408 15.1471713,17.9045422 9.10647431,19.5596156 C8.71624086,19.6664295 8.44574572,20.0211417 8.44574572,20.4258005 L8.44574572,29.6017897 C8.44574572,39.0510257 12.8049368,45.3057674 16.4619578,48.8888275 C20.3989797,52.7465519 24.9850565,54.8799115 26.6501359,54.8799115 C28.3150485,54.8799115 32.9011253,52.7465519 36.8381472,48.8888275 C40.4950848,45.3058508 44.8540257,39.0511091 44.8540257,29.6017897 L44.8540257,20.4257171 C44.8540257,20.0211417 44.5835306,19.6664295 44.1932971,19.5596156 Z M43.0579513,29.6017063 C43.0579513,38.4272359 38.9921024,44.263644 35.5810618,47.60581 C31.7094958,51.3993293 27.5701029,53.0836702 26.6501359,53.0836702 C25.7301689,53.0836702 21.5905258,51.3993293 17.7188764,47.60581 C14.3079192,44.2635606 10.2419035,38.4272359 10.2419035,29.6017063 L10.2419035,21.1074582 C16.0185259,19.4673104 21.3982441,17.1783578 26.6503026,14.126282 C31.7711994,17.0973927 37.4193282,19.5001634 43.0579513,21.1071247 L43.0579513,29.6017063 Z" id="Shape"></path>
                        <path d="M18.6899573,21.0069815 C18.5081819,20.5454554 17.9867867,20.3187364 17.5251772,20.5005952 C15.9208841,21.1327234 14.2742324,21.7145714 12.6309994,22.2300465 C12.2565254,22.3476168 12.0017063,22.694491 12.0017063,23.0868924 L12.0017063,26.5548836 C12.0017063,27.050847 12.4038635,27.4529209 12.8997435,27.4529209 C13.3956235,27.4529209 13.7977807,27.050847 13.7977807,26.5548836 L13.7977807,23.7432016 C15.2719126,23.2662497 16.7444601,22.7386841 18.183571,22.1715948 C18.6450971,21.9899028 18.8718161,21.4685076 18.6899573,21.0069815 Z" id="Shape"></path>
                        <path d="M20.3958945,21.1773334 C20.5163832,21.1773334 20.6387064,21.1530689 20.7560266,21.1018716 L20.7725365,21.0947006 C21.2268916,20.8955815 21.431514,20.3666818 21.2323949,19.9124934 C21.033109,19.4581383 20.5012075,19.2525986 20.0473526,19.451551 L20.032844,19.4578047 C19.5782387,19.6563402 19.3729492,20.184823 19.5714846,20.6392615 C19.7188228,20.97663 20.0494372,21.1773334 20.3958945,21.1773334 Z" id="Shape"></path>
                        <path d="M37.3497866,41.1451951 C36.9347883,40.8739495 36.3782887,40.9906026 36.1067096,41.4057677 C35.3666836,42.5384453 34.4984976,43.6230941 33.5259157,44.6292794 C32.7261039,45.4566076 31.8594188,46.2277356 30.9499581,46.921067 C30.5556389,47.2217469 30.4797601,47.7852506 30.7803566,48.1797366 C30.9572124,48.4114586 31.2246224,48.5333648 31.4951175,48.5333648 C31.6850645,48.5333648 31.876429,48.4734123 32.0390263,48.3493381 C33.0200298,47.6013073 33.9547556,46.7697265 34.8171048,45.8776929 C35.8686505,44.7900422 36.8083794,43.6160065 37.6103591,42.3881887 C37.8817715,41.9729403 37.7649516,41.4164407 37.3497866,41.1451951 Z" id="Shape"></path>
                        <path d="M28.8643771,48.3294929 L28.8128463,48.3598444 C28.3836729,48.6084097 28.2370018,49.1577384 28.4854838,49.5869118 C28.6520001,49.8745839 28.9534304,50.0351799 29.2635326,50.0351799 C29.4161239,50.0351799 29.5710499,49.99624 29.7125512,49.9141075 L29.7720034,49.8791699 C30.2000095,49.62852 30.3437621,49.0784409 30.0931122,48.6504349 C29.8422955,48.2225956 29.292133,48.0790931 28.8643771,48.3294929 Z" id="Shape"></path>
                        <path d="M20.5286406,31.7008787 C19.9772274,31.1493821 19.243872,30.8458672 18.4639054,30.8458672 C17.6839388,30.8458672 16.9505001,31.1494655 16.3988367,31.7008787 C15.2604057,32.8395599 15.2604057,34.6923349 16.3988367,35.8309327 L21.7016756,41.1336049 C22.2531722,41.6849347 22.9865276,41.988533 23.7665775,41.988533 C24.5466275,41.988533 25.2799829,41.6849347 25.8315629,41.1334381 L36.9016018,30.0633158 C38.0399494,28.9243844 38.0399494,27.0718596 36.901435,25.9335953 C36.3499384,25.3820987 35.6165831,25.0785838 34.8364497,25.0785838 C34.0563997,25.0785838 33.3230444,25.3821821 32.7714644,25.9335953 L23.7664942,34.9385656 L20.5286406,31.7008787 Z M34.0415575,27.2036884 C34.2537678,26.9914782 34.5361868,26.8746583 34.8365331,26.8746583 C35.1370462,26.8746583 35.419215,26.9914782 35.6315921,27.2036884 C36.0697708,27.6418672 36.0697708,28.3551272 35.6314253,28.7934728 L24.5615531,39.8634284 C24.3493428,40.0756386 24.0669239,40.1924585 23.7665775,40.1924585 C23.4662312,40.1924585 23.1838123,40.0756386 22.9715186,39.8634284 L17.6688465,34.560923 C17.2305009,34.1225774 17.2305009,33.4093174 17.6686797,32.9711386 C17.8809734,32.7589283 18.1633923,32.6419417 18.463822,32.6419417 C18.7642517,32.6419417 19.0465039,32.7587616 19.2587142,32.9709718 L23.1314476,36.8437886 C23.2999651,37.0121393 23.5282683,37.1067793 23.7664942,37.1067793 C24.00472,37.1067793 24.2330232,37.0122227 24.401374,36.8437886 L34.0415575,27.2036884 Z" id="Shape"></path>
                    </g>
                </g>
            </g>
        </g>
    </g>
</svg>