<?xml version="1.0" encoding="UTF-8"?>
<svg width="49px" height="42px" viewBox="0 0 49 42" version="1.1" xmlns="http://www.w3.org/2000/svg" xmlns:xlink="http://www.w3.org/1999/xlink">
    <!-- Generator: Sketch 45.2 (43514) - http://www.bohemiancoding.com/sketch -->
    <title>Group 19</title>
    <desc>Created with Sketch.</desc>
    <defs>
        <linearGradient x1="50%" y1="0%" x2="50%" y2="100%" id="linearGradient-1">
            <stop stop-color="#00DEB3" offset="0%"></stop>
            <stop stop-color="#00B4F6" offset="100%"></stop>
        </linearGradient>
    </defs>
    <g id="Page-1" stroke="none" stroke-width="1" fill="none" fill-rule="evenodd">
        <g id="LANDING" transform="translate(-576.000000, -5794.000000)" fill-rule="nonzero" fill="url(#linearGradient-1)">
            <g id="innovations" transform="translate(145.000000, 4938.000000)">
                <g id="8" transform="translate(411.000000, 830.000000)">
                    <g id="Group-19" transform="translate(11.000000, 21.000000)">
                        <path d="M17.9121428,20.9957908 L28.2673327,20.9957908 C28.7078265,20.9957908 29.0638858,20.6389351 29.0638858,20.1992378 C29.0638858,19.7595405 28.7078265,19.4026847 28.2673327,19.4026847 L17.9121428,19.4026847 C17.471649,19.4026847 17.1155898,19.7595405 17.1155898,20.1992378 C17.1155898,20.6389351 17.471649,20.9957908 17.9121428,20.9957908 Z" id="Shape"></path>
                        <path d="M38.6225226,24.1820031 L17.9121428,24.1820031 C17.471649,24.1820031 17.1155898,24.5388589 17.1155898,24.9785562 C17.1155898,25.4182535 17.471649,25.7751092 17.9121428,25.7751092 L38.6225226,25.7751092 C39.0630164,25.7751092 39.4190756,25.4182535 39.4190756,24.9785562 C39.4190756,24.5388589 39.0630164,24.1820031 38.6225226,24.1820031 Z" id="Shape"></path>
                        <path d="M38.6225226,28.9613215 L17.9121428,28.9613215 C17.471649,28.9613215 17.1155898,29.3181773 17.1155898,29.7578746 C17.1155898,30.1975719 17.471649,30.5544276 17.9121428,30.5544276 L38.6225226,30.5544276 C39.0630164,30.5544276 39.4190756,30.1975719 39.4190756,29.7578746 C39.4190756,29.3181773 39.0630164,28.9613215 38.6225226,28.9613215 Z" id="Shape"></path>
                        <path d="M53.0178296,5.40961342 L25.8219148,5.3538547 C23.2171863,5.3538547 21.0983551,7.47268586 21.0983551,10.0774144 L21.0983551,11.4801679 L14.6701719,11.4937093 C12.0654433,11.4937093 9.94661217,13.6125404 9.94661217,16.217269 L9.94661217,33.0571974 C9.94661217,35.6619259 12.0654433,37.7799605 14.6701719,37.7799605 L19.505249,37.7799605 L19.505249,45.7454912 C19.505249,46.0744676 19.7075734,46.3699888 20.0150429,46.4886752 C20.1082396,46.5245201 20.2054191,46.5420442 20.301802,46.5420442 C20.5216507,46.5420442 20.7375166,46.4504406 20.8912513,46.2815714 L28.6210023,37.7783674 L41.8644936,37.7242018 C44.4692221,37.7242018 46.5880532,35.6053706 46.5880532,33.0014386 L50.7779224,37.5202842 C50.9316571,37.6891534 51.147523,37.780757 51.3673716,37.780757 C51.4637546,37.780757 51.560934,37.7632329 51.6541307,37.727388 C51.9616002,37.6087016 52.1639247,37.3131804 52.1639247,36.984204 L52.1639247,29.0186733 L53.0162365,29.0186733 C55.620965,29.0186733 57.7397962,26.8998422 57.7397962,24.2959102 L57.7397962,10.1331731 C57.7397962,7.52924113 55.6217616,5.41040997 53.0178296,5.40961342 Z M44.9949471,33.0006421 C44.9949471,34.7267726 43.590624,36.1302991 41.8613073,36.1302991 L28.2641465,36.1860578 C28.0411116,36.1868544 27.8276354,36.2816442 27.6778834,36.4465307 L21.0983551,43.6848084 L21.0983551,36.9826109 C21.0983551,36.5429136 20.7422959,36.1860578 20.301802,36.1860578 L14.6701719,36.1860578 C12.9440414,36.1860578 11.5397183,34.7817347 11.5397183,33.0564008 L11.5397183,16.2164724 C11.5397183,14.4903419 12.9440414,13.0860189 14.671765,13.0860189 L21.8949082,13.0708844 L21.8949082,13.0708844 L21.8965013,13.0708844 L41.8644936,13.0294636 C43.590624,13.0294636 44.9949471,14.4337867 44.9949471,16.1599172 L44.9949471,30.8491523 L44.9949471,33.0006421 Z M53.0162365,27.4239741 L51.3673716,27.4239741 C50.9268778,27.4239741 50.5708186,27.7808298 50.5708186,28.2205271 L50.5708186,34.9227246 L46.5880532,30.5416828 L46.5880532,16.1607137 C46.5880532,13.5559852 44.4692221,11.437154 41.8629004,11.437154 L22.6914612,11.4761851 L22.6914612,10.0766178 C22.6914612,8.35048734 24.0957843,6.94616428 25.8203217,6.94616428 L53.0154399,7.001923 C54.7431635,7.001923 56.1474866,8.40624605 56.1474866,10.1323765 L56.1474866,24.2943171 C56.14669,26.0204476 54.742367,27.4239741 53.0162365,27.4239741 Z" id="Shape"></path>
                    </g>
                </g>
            </g>
        </g>
    </g>
</svg>